<?xml version="1.0" standalone="no"?>
<!DOCTYPE svg PUBLIC "-//W3C//DTD SVG 20010904//EN"
 "http://www.w3.org/TR/2001/REC-SVG-20010904/DTD/svg10.dtd">
<svg version="1.0" xmlns="http://www.w3.org/2000/svg"
 width="81.000000pt" height="100.000000pt" viewBox="0 0 81.000000 100.000000"
 preserveAspectRatio="xMidYMid meet">
<metadata>
Created by potrace 1.16, written by Peter Selinger 2001-2019
</metadata>
<g transform="translate(0.000000,100.000000) scale(0.100000,-0.100000)"
fill="#000000" stroke="none">
<path d="M325 973 c-22 -15 -51 -38 -65 -51 -14 -13 -37 -30 -51 -37 -31 -16
-110 -104 -130 -144 -8 -14 -25 -41 -39 -60 -20 -27 -25 -45 -23 -83 1 -28 -2
-48 -8 -48 -15 0 -1 -140 16 -160 7 -8 16 -33 20 -55 4 -22 12 -49 18 -60 6
-11 18 -40 27 -65 8 -25 24 -49 36 -55 11 -6 19 -17 17 -25 -3 -10 -2 -11 4
-3 11 16 62 35 74 27 14 -8 11 14 -5 39 -8 12 -17 50 -20 83 l-7 62 36 6 c20
4 71 9 113 11 141 6 227 17 249 31 29 18 32 18 26 -6 -3 -11 0 -20 6 -20 6 0
11 -12 11 -28 0 -15 5 -43 10 -62 6 -19 18 -75 26 -125 8 -49 22 -97 31 -107
16 -18 52 -25 54 -10 7 38 10 64 13 102 2 25 7 55 11 68 6 18 4 21 -9 16 -13
-5 -15 -1 -10 23 3 17 -1 51 -11 79 -9 27 -19 74 -21 104 -3 30 -9 69 -14 85
-5 17 -11 53 -14 80 -3 28 -14 79 -25 113 -12 35 -21 77 -21 93 0 16 -4 29 -9
29 -5 0 -12 10 -15 23 -6 22 -39 62 -88 105 -16 14 -47 27 -79 32 -30 4 -63
11 -74 14 -13 5 -34 -3 -60 -21z m123 -97 c25 -13 96 -82 90 -88 -7 -7 26
-107 33 -102 9 5 16 -30 24 -128 5 -61 4 -78 -7 -79 -7 -1 -58 -3 -113 -6 -55
-2 -113 -5 -130 -5 -16 -1 -65 -1 -108 0 -69 2 -78 4 -75 20 1 10 -7 31 -20
46 -22 29 -30 84 -13 102 18 19 51 85 39 78 -7 -4 -5 2 5 13 9 11 17 25 17 31
0 7 6 12 13 12 8 0 19 12 25 26 7 14 16 23 20 20 5 -3 35 13 68 34 65 42 91
47 132 26z"/>
<path d="M566 635 c-3 -8 -1 -15 4 -15 6 0 10 7 10 15 0 8 -2 15 -4 15 -2 0
-6 -7 -10 -15z"/>
</g>
</svg>
