<?xml version="1.0" standalone="no"?>
<!DOCTYPE svg PUBLIC "-//W3C//DTD SVG 20010904//EN"
 "http://www.w3.org/TR/2001/REC-SVG-20010904/DTD/svg10.dtd">
<svg version="1.0" xmlns="http://www.w3.org/2000/svg"
 width="90.000000pt" height="91.000000pt" viewBox="0 0 90.000000 91.000000"
 preserveAspectRatio="xMidYMid meet">
<metadata>
Created by potrace 1.16, written by Peter Selinger 2001-2019
</metadata>
<g transform="translate(0.000000,91.000000) scale(0.100000,-0.100000)"
fill="#000000" stroke="none">
<path d="M240 893 c-14 -3 -29 -9 -35 -14 -5 -5 -16 -9 -25 -9 -24 0 -83 -33
-132 -73 -36 -30 -43 -42 -43 -71 0 -20 3 -36 8 -36 4 0 7 -9 7 -21 0 -11 4
-18 9 -15 5 3 5 -15 0 -41 -5 -27 -5 -68 1 -102 5 -31 12 -69 15 -85 2 -15 7
-35 9 -45 12 -38 20 -89 20 -128 1 -22 4 -39 8 -36 5 2 8 -5 8 -17 0 -58 83
-164 142 -181 40 -11 222 -10 263 2 17 5 49 11 72 14 48 5 122 33 141 52 7 7
22 13 33 13 11 0 37 17 59 39 21 21 42 36 45 33 3 -3 8 4 12 16 3 12 10 22 15
22 6 0 7 11 3 27 -4 16 -9 37 -10 47 -2 28 -104 124 -145 137 -19 7 -44 17
-55 22 -11 6 -22 12 -25 12 -24 4 -61 21 -87 42 -29 21 -33 29 -33 72 0 27 7
65 16 86 24 58 23 114 -4 135 -12 10 -22 25 -22 33 0 50 -156 90 -270 70z
m177 -138 c25 -29 23 -60 -8 -134 -10 -24 -17 -47 -14 -51 3 -5 1 -11 -5 -15
-12 -7 -13 -65 -2 -80 19 -27 95 -77 153 -101 124 -51 168 -74 188 -100 29
-37 28 -64 -4 -64 -25 0 -32 -2 -92 -34 -17 -9 -40 -16 -50 -16 -10 0 -23 -4
-28 -8 -15 -14 -197 -34 -241 -27 -41 7 -70 28 -116 83 -28 33 -37 72 -18 72
6 0 10 -8 10 -17 1 -17 1 -17 11 0 10 17 -16 79 -64 150 -16 23 -17 33 -8 55
11 27 11 93 0 102 -3 3 -8 32 -11 66 -5 53 -3 63 14 75 11 8 32 23 46 34 42
32 83 43 152 39 55 -3 69 -8 87 -29z"/>
</g>
</svg>
