<?xml version="1.0" standalone="no"?>
<!DOCTYPE svg PUBLIC "-//W3C//DTD SVG 20010904//EN"
 "http://www.w3.org/TR/2001/REC-SVG-20010904/DTD/svg10.dtd">
<svg version="1.0" xmlns="http://www.w3.org/2000/svg"
 width="76.000000pt" height="85.000000pt" viewBox="0 0 76.000000 85.000000"
 preserveAspectRatio="xMidYMid meet">
<metadata>
Created by potrace 1.16, written by Peter Selinger 2001-2019
</metadata>
<g transform="translate(0.000000,85.000000) scale(0.100000,-0.100000)"
fill="#000000" stroke="none">
<path d="M195 841 c-34 -9 -80 -32 -112 -58 -49 -38 -37 -215 22 -338 54 -113
85 -183 85 -190 0 -21 32 -41 59 -37 24 3 30 10 35 37 8 43 0 77 -36 143 -26
49 -40 96 -18 62 8 -13 10 -13 10 2 0 9 -4 19 -9 22 -4 3 -6 17 -3 31 2 14 0
31 -6 38 -6 7 -9 22 -6 34 3 11 -4 40 -16 64 -15 28 -19 44 -11 47 6 2 11 11
11 19 0 14 11 15 77 9 43 -4 80 -12 84 -17 3 -6 12 -12 20 -13 95 -19 184
-122 212 -246 16 -69 37 -185 37 -200 0 -13 -106 -77 -138 -85 -18 -3 -30 -10
-27 -14 6 -10 -94 -21 -190 -21 -66 0 -73 2 -83 24 -15 34 -49 54 -98 59 -36
4 -44 2 -61 -22 -22 -29 -35 -101 -19 -101 5 0 6 -3 3 -7 -18 -17 167 -67 209
-57 14 4 31 1 39 -6 17 -14 143 -7 175 10 10 6 33 10 50 10 18 0 44 8 58 18
15 10 39 24 55 32 15 7 27 17 27 22 0 4 7 8 15 8 8 0 25 11 37 25 11 13 24 22
28 20 4 -3 5 15 3 39 -4 28 0 53 11 74 17 33 15 94 -3 100 -6 2 -11 20 -11 40
-1 114 -104 276 -215 342 -22 13 -50 32 -61 42 -12 10 -25 18 -30 17 -5 -2
-36 3 -69 10 -91 18 -107 20 -140 12z"/>
</g>
</svg>
