<?xml version="1.0" standalone="no"?>
<!DOCTYPE svg PUBLIC "-//W3C//DTD SVG 20010904//EN"
 "http://www.w3.org/TR/2001/REC-SVG-20010904/DTD/svg10.dtd">
<svg version="1.0" xmlns="http://www.w3.org/2000/svg"
 width="91.000000pt" height="80.000000pt" viewBox="0 0 91.000000 80.000000"
 preserveAspectRatio="xMidYMid meet">
<metadata>
Created by potrace 1.16, written by Peter Selinger 2001-2019
</metadata>
<g transform="translate(0.000000,80.000000) scale(0.100000,-0.100000)"
fill="#000000" stroke="none">
<path d="M666 779 c-49 -4 -187 -10 -307 -13 -201 -5 -220 -7 -238 -25 -11
-11 -16 -23 -11 -26 6 -4 10 -16 10 -29 0 -44 31 -58 127 -58 112 1 374 20
433 32 25 5 72 12 105 15 67 7 99 27 107 68 3 14 2 24 -3 22 -4 -3 -9 -1 -11
4 -5 14 -113 19 -212 10z"/>
<path d="M42 606 c-32 -72 -41 -251 -13 -279 6 -6 11 -23 11 -38 0 -15 12 -65
27 -111 35 -109 67 -144 148 -159 64 -12 266 -5 320 11 17 5 50 14 75 20 25 7
54 16 65 20 11 4 36 13 55 20 109 37 160 77 160 125 0 47 -84 61 -130 21 -16
-13 -47 -26 -71 -30 -23 -4 -47 -10 -53 -13 -5 -4 -19 -8 -30 -9 -43 -6 -72
-12 -101 -24 -47 -19 -228 -25 -267 -10 -48 19 -87 58 -81 81 3 11 -1 21 -10
25 -31 12 -53 210 -34 296 8 30 5 40 -12 57 -27 27 -45 27 -59 -3z"/>
<path d="M181 402 c-17 -32 -13 -58 12 -86 20 -23 32 -26 118 -32 135 -9 221
1 253 31 27 25 35 68 15 81 -7 4 -66 8 -133 9 -67 1 -151 5 -187 10 -62 7 -68
6 -78 -13z"/>
</g>
</svg>
