<?xml version="1.0" standalone="no"?>
<!DOCTYPE svg PUBLIC "-//W3C//DTD SVG 20010904//EN"
 "http://www.w3.org/TR/2001/REC-SVG-20010904/DTD/svg10.dtd">
<svg version="1.0" xmlns="http://www.w3.org/2000/svg"
 width="81.000000pt" height="167.000000pt" viewBox="0 0 81.000000 167.000000"
 preserveAspectRatio="xMidYMid meet">
<metadata>
Created by potrace 1.16, written by Peter Selinger 2001-2019
</metadata>
<g transform="translate(0.000000,167.000000) scale(0.100000,-0.100000)"
fill="#000000" stroke="none">
<path d="M433 1600 c-29 -29 -53 -58 -53 -66 0 -8 -4 -14 -10 -14 -5 0 -10
-19 -10 -42 0 -24 -5 -63 -11 -88 -6 -25 -11 -95 -12 -157 -1 -61 -5 -115 -9
-119 -12 -11 -10 -62 3 -86 15 -28 20 -150 16 -375 -2 -77 -4 -85 -30 -108
-15 -15 -31 -24 -35 -22 -11 7 -152 -13 -173 -24 -41 -22 -101 -191 -101 -289
-1 -105 0 -108 45 -150 62 -59 95 -65 174 -32 73 30 163 104 163 133 0 10 9
35 20 55 12 20 25 70 30 111 12 89 33 138 60 140 39 3 67 51 49 84 -7 14 -16
18 -30 14 -11 -4 -31 -4 -43 -1 -22 5 -23 10 -24 103 -1 54 -4 115 -8 137 -3
21 -2 36 2 33 5 -3 10 27 11 67 l1 71 48 40 c90 75 214 198 220 219 4 12 15
33 25 48 11 14 19 38 19 52 0 14 5 26 11 26 13 0 8 37 -13 91 -15 41 -36 70
-47 66 -9 -2 -91 81 -107 108 -7 14 -26 19 -70 22 l-59 4 -52 -51z m164 -90
c28 -22 58 -51 67 -65 19 -29 21 -89 4 -112 -37 -45 -214 -223 -223 -223 -10
0 -11 74 -5 250 2 57 8 82 24 105 29 42 68 85 76 85 4 0 30 -18 57 -40z m-284
-1097 c22 -6 21 -29 -3 -128 -14 -57 -26 -85 -42 -97 -13 -10 -33 -27 -46 -39
-15 -14 -38 -22 -65 -23 -54 -1 -70 25 -61 104 12 110 42 171 89 183 26 6 105
6 128 0z"/>
</g>
</svg>
