<?xml version="1.0" standalone="no"?>
<!DOCTYPE svg PUBLIC "-//W3C//DTD SVG 20010904//EN"
 "http://www.w3.org/TR/2001/REC-SVG-20010904/DTD/svg10.dtd">
<svg version="1.0" xmlns="http://www.w3.org/2000/svg"
 width="102.000000pt" height="106.000000pt" viewBox="0 0 102.000000 106.000000"
 preserveAspectRatio="xMidYMid meet">
<metadata>
Created by potrace 1.16, written by Peter Selinger 2001-2019
</metadata>
<g transform="translate(0.000000,106.000000) scale(0.100000,-0.100000)"
fill="#000000" stroke="none">
<path d="M122 1037 c-8 -9 -7 -36 3 -96 8 -46 12 -88 9 -93 -4 -6 -1 -14 5
-18 7 -4 13 -22 13 -41 1 -63 -11 -244 -21 -294 -5 -27 -14 -76 -20 -107 -5
-31 -15 -67 -22 -80 -7 -13 -23 -50 -35 -83 -11 -33 -29 -79 -39 -103 -14 -33
-16 -51 -9 -80 9 -36 10 -37 54 -37 49 0 55 4 132 100 22 28 67 78 99 113 32
35 66 76 75 91 9 15 36 40 61 56 63 40 65 38 68 -145 1 -60 7 -110 17 -135 17
-42 62 -85 90 -85 50 0 156 36 238 81 19 10 49 25 65 33 45 22 93 77 97 111 2
25 -1 31 -20 33 -13 2 -31 -2 -40 -10 -28 -22 -61 -38 -78 -38 -9 0 -32 -13
-51 -30 -18 -16 -40 -30 -48 -30 -8 0 -15 -5 -15 -11 0 -7 -10 -9 -25 -7 -14
3 -28 1 -31 -3 -8 -14 -19 -11 -48 15 -26 21 -28 31 -36 132 -10 127 -32 233
-52 245 -7 5 -33 9 -59 9 -53 0 -105 -30 -189 -108 -30 -29 -60 -52 -66 -52
-19 0 -22 39 -7 90 16 57 16 87 1 93 -8 3 -6 6 5 6 17 1 22 12 10 25 -10 9
-13 233 -4 282 9 45 -16 114 -51 145 -10 9 -14 20 -10 24 4 4 -3 5 -15 2 -13
-3 -23 -1 -23 4 0 13 -16 11 -28 -4z m13 -17 c3 -5 1 -10 -4 -10 -6 0 -11 5
-11 10 0 6 2 10 4 10 3 0 8 -4 11 -10z"/>
</g>
</svg>
