<?xml version="1.0" standalone="no"?>
<!DOCTYPE svg PUBLIC "-//W3C//DTD SVG 20010904//EN"
 "http://www.w3.org/TR/2001/REC-SVG-20010904/DTD/svg10.dtd">
<svg version="1.0" xmlns="http://www.w3.org/2000/svg"
 width="75.000000pt" height="86.000000pt" viewBox="0 0 75.000000 86.000000"
 preserveAspectRatio="xMidYMid meet">
<metadata>
Created by potrace 1.16, written by Peter Selinger 2001-2019
</metadata>
<g transform="translate(0.000000,86.000000) scale(0.100000,-0.100000)"
fill="#000000" stroke="none">
<path d="M508 795 c-41 -38 -42 -62 -2 -105 16 -17 21 -32 18 -48 -4 -12 1
-40 10 -61 12 -31 13 -47 5 -70 l-11 -30 -79 3 c-44 2 -83 7 -86 10 -15 15
-79 5 -90 -13 -15 -24 1 -87 25 -100 9 -5 74 -12 144 -16 l127 -7 22 -72 c12
-39 23 -94 23 -122 1 -40 4 -50 15 -46 10 4 13 1 9 -10 -5 -11 -1 -14 17 -10
12 2 32 -1 42 -7 13 -6 23 -7 30 0 13 13 -1 114 -28 201 -19 63 -19 68 -4 99
21 39 14 79 -20 131 -14 21 -25 46 -25 55 0 24 -39 164 -51 183 -5 8 -14 27
-20 43 -14 35 -26 34 -71 -8z"/>
<path d="M17 813 c-7 -12 2 -93 14 -131 6 -19 9 -47 5 -63 -3 -16 -2 -29 2
-29 4 0 8 -12 8 -27 1 -16 6 -55 13 -88 6 -33 11 -89 11 -125 0 -36 5 -96 11
-135 5 -38 10 -90 10 -115 1 -28 8 -54 19 -68 17 -20 22 -21 40 -10 16 10 22
10 28 1 7 -10 12 -10 26 0 29 21 30 112 2 167 -18 35 -25 70 -30 155 -4 61
-11 128 -15 150 -5 22 -16 76 -25 120 -26 133 -38 179 -49 193 -10 13 -63 17
-70 5z"/>
</g>
</svg>
