<?xml version="1.0" standalone="no"?>
<!DOCTYPE svg PUBLIC "-//W3C//DTD SVG 20010904//EN"
 "http://www.w3.org/TR/2001/REC-SVG-20010904/DTD/svg10.dtd">
<svg version="1.0" xmlns="http://www.w3.org/2000/svg"
 width="59.000000pt" height="86.000000pt" viewBox="0 0 59.000000 86.000000"
 preserveAspectRatio="xMidYMid meet">
<metadata>
Created by potrace 1.16, written by Peter Selinger 2001-2019
</metadata>
<g transform="translate(0.000000,86.000000) scale(0.100000,-0.100000)"
fill="#000000" stroke="none">
<path d="M32 849 c-17 -6 -22 -16 -22 -42 0 -51 25 -68 94 -65 50 3 56 5 56
25 0 13 -15 33 -37 50 -48 37 -62 42 -91 32z"/>
<path d="M109 512 c-9 -4 -15 -15 -13 -27 2 -11 8 -80 13 -153 6 -100 12 -137
25 -150 9 -10 16 -26 16 -34 0 -25 72 -90 132 -121 50 -25 60 -26 108 -17 55
10 99 40 163 108 42 47 47 76 15 102 -23 18 -24 18 -58 -8 -19 -14 -37 -29
-40 -33 -12 -16 -72 -39 -100 -39 -42 0 -114 34 -132 62 -8 13 -20 61 -27 108
-19 139 -20 143 -44 177 -22 34 -30 37 -58 25z"/>
</g>
</svg>
