<?xml version="1.0" standalone="no"?>
<!DOCTYPE svg PUBLIC "-//W3C//DTD SVG 20010904//EN"
 "http://www.w3.org/TR/2001/REC-SVG-20010904/DTD/svg10.dtd">
<svg version="1.0" xmlns="http://www.w3.org/2000/svg"
 width="100.000000pt" height="80.000000pt" viewBox="0 0 100.000000 80.000000"
 preserveAspectRatio="xMidYMid meet">
<metadata>
Created by potrace 1.16, written by Peter Selinger 2001-2019
</metadata>
<g transform="translate(0.000000,80.000000) scale(0.100000,-0.100000)"
fill="#000000" stroke="none">
<path d="M169 780 c-128 -6 -149 -15 -149 -68 0 -52 27 -57 254 -54 111 2 218
5 238 7 30 3 40 -1 53 -21 9 -14 13 -29 10 -35 -4 -5 -2 -15 3 -22 5 -7 12
-34 16 -62 13 -98 23 -147 33 -154 5 -3 20 -22 33 -41 25 -37 70 -80 83 -80 4
0 7 -6 7 -14 0 -8 7 -16 15 -20 27 -10 17 -44 -17 -59 -68 -30 -152 -41 -292
-38 -119 3 -143 6 -174 24 l-35 21 24 19 c13 11 33 25 43 33 17 11 17 17 7 42
-13 32 -16 32 -96 10 -22 -7 -52 -20 -66 -29 -23 -16 -25 -23 -22 -71 5 -61
21 -110 34 -102 5 3 9 0 9 -6 0 -7 7 -10 15 -6 9 3 24 -3 34 -13 24 -24 181
-33 357 -20 149 11 250 36 300 74 30 23 34 32 34 70 0 40 -5 49 -51 92 -135
127 -146 141 -153 188 -4 25 -11 45 -17 45 -14 0 -11 67 4 82 7 7 14 29 15 48
5 52 18 58 132 52 80 -4 104 -2 123 11 34 22 25 60 -19 86 -32 19 -50 20 -352
18 -174 -1 -369 -4 -433 -7z"/>
</g>
</svg>
