<?xml version="1.0" standalone="no"?>
<!DOCTYPE svg PUBLIC "-//W3C//DTD SVG 20010904//EN"
 "http://www.w3.org/TR/2001/REC-SVG-20010904/DTD/svg10.dtd">
<svg version="1.0" xmlns="http://www.w3.org/2000/svg"
 width="62.000000pt" height="154.000000pt" viewBox="0 0 62.000000 154.000000"
 preserveAspectRatio="xMidYMid meet">
<metadata>
Created by potrace 1.16, written by Peter Selinger 2001-2019
</metadata>
<g transform="translate(0.000000,154.000000) scale(0.100000,-0.100000)"
fill="#000000" stroke="none">
<path d="M32 1528 c-7 -7 -12 -17 -12 -24 0 -7 -5 -14 -11 -16 -8 -3 -7 -13 4
-34 19 -37 34 -49 69 -58 23 -5 27 -2 37 25 12 34 4 57 -32 97 -23 25 -37 28
-55 10z"/>
<path d="M120 1110 c-5 -10 -10 -30 -10 -44 0 -27 37 -135 51 -151 5 -5 9 -16
9 -25 0 -9 11 -27 24 -40 14 -12 28 -36 31 -52 4 -16 22 -59 40 -96 19 -37 37
-85 40 -107 l7 -40 -63 -3 c-36 -2 -76 -11 -92 -20 -37 -22 -83 -114 -101
-202 -13 -62 -13 -81 -1 -153 8 -45 15 -83 15 -84 0 -2 16 -21 36 -43 35 -39
38 -40 100 -40 34 0 65 4 68 9 3 4 30 21 60 36 36 18 59 37 66 55 6 15 26 44
43 63 38 42 35 30 43 166 6 101 9 111 28 117 35 11 96 58 96 74 0 9 -7 25 -15
38 -15 21 -17 21 -55 6 -35 -14 -42 -14 -72 0 -33 16 -108 118 -108 147 0 8
-11 30 -25 49 -13 18 -30 49 -36 69 -13 40 -43 95 -69 126 -9 11 -23 46 -30
78 -7 31 -18 61 -24 66 -26 19 -46 20 -56 1z m261 -707 c23 -70 -12 -161 -95
-250 -25 -27 -37 -33 -73 -33 -37 0 -44 4 -59 31 -16 33 -15 75 8 189 17 86
35 100 129 99 l78 -1 12 -35z"/>
</g>
</svg>
