<?xml version="1.0" standalone="no"?>
<!DOCTYPE svg PUBLIC "-//W3C//DTD SVG 20010904//EN"
 "http://www.w3.org/TR/2001/REC-SVG-20010904/DTD/svg10.dtd">
<svg version="1.0" xmlns="http://www.w3.org/2000/svg"
 width="89.000000pt" height="114.000000pt" viewBox="0 0 89.000000 114.000000"
 preserveAspectRatio="xMidYMid meet">
<metadata>
Created by potrace 1.16, written by Peter Selinger 2001-2019
</metadata>
<g transform="translate(0.000000,114.000000) scale(0.100000,-0.100000)"
fill="#000000" stroke="none">
<path d="M250 1108 c-14 -5 -27 -13 -30 -17 -3 -5 -22 -17 -42 -28 -52 -28
-120 -102 -138 -148 -11 -30 -13 -75 -10 -185 8 -280 6 -366 -8 -383 -9 -11
-14 -49 -14 -119 -2 -170 16 -218 78 -218 42 0 65 32 65 86 -1 22 4 92 9 158
l10 119 57 61 c165 178 262 243 301 204 15 -15 16 -54 2 -63 -5 -3 -10 -15
-10 -26 0 -11 -7 -22 -15 -25 -8 -4 -15 -14 -15 -23 -1 -24 -57 -81 -80 -81
-11 0 -20 -5 -20 -11 0 -7 -11 -9 -27 -6 -36 7 -51 -14 -44 -66 6 -37 9 -41
39 -45 50 -5 64 -12 127 -67 85 -75 148 -105 217 -105 70 0 92 9 142 55 38 35
38 38 32 88 -3 31 -12 57 -22 64 -14 10 -22 5 -51 -30 -45 -54 -57 -60 -96
-51 -18 4 -40 8 -49 9 -10 1 -21 4 -24 8 -4 4 -15 7 -23 7 -9 0 -25 12 -36 26
-21 27 -38 84 -26 84 4 0 17 18 30 40 12 22 33 52 45 67 19 22 24 44 28 107
l5 78 -41 48 c-42 48 -81 67 -103 48 -7 -6 -13 -7 -13 -3 0 4 -6 2 -14 -4 -21
-18 -26 -1 -14 53 15 72 2 210 -23 232 -11 10 -27 19 -35 20 -24 4 -43 24 -37
40 6 16 -5 18 -26 5 -7 -5 -27 -5 -45 -1 -18 4 -43 3 -56 -2z m124 -114 c27
-20 27 -18 10 -141 -4 -29 -11 -53 -15 -53 -5 0 -9 -5 -9 -11 0 -6 -7 -17 -15
-25 -8 -9 -18 -27 -21 -41 -7 -26 -57 -83 -126 -142 -36 -31 -38 -31 -55 -14
-16 16 -18 35 -17 145 1 116 4 131 29 182 28 58 69 110 95 120 27 10 97 -1
124 -20z"/>
</g>
</svg>
