<?xml version="1.0" standalone="no"?>
<!DOCTYPE svg PUBLIC "-//W3C//DTD SVG 20010904//EN"
 "http://www.w3.org/TR/2001/REC-SVG-20010904/DTD/svg10.dtd">
<svg version="1.0" xmlns="http://www.w3.org/2000/svg"
 width="87.000000pt" height="82.000000pt" viewBox="0 0 87.000000 82.000000"
 preserveAspectRatio="xMidYMid meet">
<metadata>
Created by potrace 1.16, written by Peter Selinger 2001-2019
</metadata>
<g transform="translate(0.000000,82.000000) scale(0.100000,-0.100000)"
fill="#000000" stroke="none">
<path d="M486 790 c-55 -10 -116 -23 -135 -29 -50 -14 -102 -21 -206 -27 -111
-6 -116 -8 -111 -36 2 -13 -1 -29 -6 -36 -8 -9 1 -17 33 -31 62 -28 69 -45 67
-158 -6 -344 2 -430 41 -415 9 3 12 1 7 -6 -9 -15 9 -16 33 -2 26 13 31 32 21
76 -5 22 -10 77 -10 124 -1 47 -6 141 -11 209 -12 147 -7 157 82 171 30 4 90
17 134 29 150 41 172 43 214 21 27 -13 40 -27 44 -47 3 -15 17 -45 31 -66 23
-33 26 -48 25 -120 0 -45 3 -156 6 -247 7 -168 17 -209 41 -175 11 15 13 15
24 -5 11 -21 12 -21 31 -4 11 10 18 22 16 28 -2 6 0 22 5 34 5 14 4 50 -1 85
-6 34 -15 143 -21 242 -11 167 -14 184 -41 240 -56 113 -116 166 -183 164 -17
-1 -76 -9 -130 -19z"/>
</g>
</svg>
