<?xml version="1.0" standalone="no"?>
<!DOCTYPE svg PUBLIC "-//W3C//DTD SVG 20010904//EN"
 "http://www.w3.org/TR/2001/REC-SVG-20010904/DTD/svg10.dtd">
<svg version="1.0" xmlns="http://www.w3.org/2000/svg"
 width="82.000000pt" height="88.000000pt" viewBox="0 0 82.000000 88.000000"
 preserveAspectRatio="xMidYMid meet">
<metadata>
Created by potrace 1.16, written by Peter Selinger 2001-2019
</metadata>
<g transform="translate(0.000000,88.000000) scale(0.100000,-0.100000)"
fill="#000000" stroke="none">
<path d="M710 856 c-6 -8 -18 -12 -26 -9 -15 6 -14 -7 3 -71 3 -10 -1 -22 -8
-27 -11 -7 -10 -9 4 -9 15 0 17 -15 18 -167 0 -93 -1 -197 -2 -233 -1 -36 -3
-78 -3 -95 -1 -50 -44 -61 -86 -22 -14 12 -28 21 -33 19 -5 -1 -6 2 -3 7 7 11
-18 33 -27 24 -4 -3 -7 -1 -7 5 0 7 -21 35 -48 64 -26 29 -58 69 -72 88 -13
19 -48 65 -77 101 -29 36 -60 83 -69 105 -17 42 -150 184 -172 184 -7 0 -11 4
-8 9 3 4 -11 8 -32 7 -25 -1 -37 -6 -38 -16 0 -8 -4 -23 -9 -33 -4 -10 -4 -46
0 -80 4 -34 9 -125 11 -202 5 -181 14 -298 22 -307 8 -8 79 6 90 17 11 10 5
197 -7 228 -14 36 -15 197 -1 197 6 0 10 -3 10 -8 0 -4 14 -13 30 -20 17 -8
30 -19 30 -26 0 -7 9 -21 21 -32 11 -10 18 -26 16 -36 -3 -10 -1 -18 3 -18 5
0 16 -15 25 -32 18 -38 79 -108 94 -108 6 0 11 -8 11 -18 0 -11 9 -27 20 -37
11 -10 22 -26 25 -36 4 -11 11 -19 16 -19 12 0 109 -99 109 -112 0 -4 3 -7 8
-6 4 2 30 -21 57 -50 45 -48 56 -54 106 -61 49 -6 57 -5 71 14 28 36 33 140
25 515 -4 222 -23 320 -62 320 -12 0 -28 -6 -35 -14z"/>
</g>
</svg>
