<?xml version="1.0" standalone="no"?>
<!DOCTYPE svg PUBLIC "-//W3C//DTD SVG 20010904//EN"
 "http://www.w3.org/TR/2001/REC-SVG-20010904/DTD/svg10.dtd">
<svg version="1.0" xmlns="http://www.w3.org/2000/svg"
 width="56.000000pt" height="67.000000pt" viewBox="0 0 56.000000 67.000000"
 preserveAspectRatio="xMidYMid meet">
<metadata>
Created by potrace 1.16, written by Peter Selinger 2001-2019
</metadata>
<g transform="translate(0.000000,67.000000) scale(0.100000,-0.100000)"
fill="#000000" stroke="none">
<path d="M255 650 c-11 -5 -32 -9 -46 -9 -31 -1 -144 -114 -135 -137 3 -8 -1
-14 -9 -14 -8 0 -15 -7 -15 -15 0 -8 -4 -15 -8 -15 -4 0 -8 -16 -9 -36 -1 -20
-5 -40 -10 -45 -4 -4 -6 -50 -3 -101 5 -84 9 -97 37 -138 92 -130 126 -147
225 -114 48 16 118 58 126 77 2 4 7 5 12 2 5 -3 12 4 15 16 4 11 27 43 51 70
24 27 44 56 44 64 0 8 4 15 9 15 4 0 11 33 14 72 5 55 3 78 -8 95 -8 12 -15
33 -15 45 0 47 -129 162 -160 143 -6 -4 -9 -1 -8 5 2 7 -4 14 -13 15 -9 2 -29
5 -45 8 -16 3 -38 2 -49 -3z m55 -127 c8 -2 15 -3 16 -1 0 2 8 -5 18 -14 10
-10 28 -18 40 -18 57 0 84 -102 48 -181 -30 -63 -167 -189 -207 -189 -51 0
-97 63 -106 145 -7 60 4 127 25 154 6 8 16 24 21 37 6 13 28 36 50 52 37 27
52 29 95 15z"/>
</g>
</svg>
