<?xml version="1.0" standalone="no"?>
<!DOCTYPE svg PUBLIC "-//W3C//DTD SVG 20010904//EN"
 "http://www.w3.org/TR/2001/REC-SVG-20010904/DTD/svg10.dtd">
<svg version="1.0" xmlns="http://www.w3.org/2000/svg"
 width="56.000000pt" height="118.000000pt" viewBox="0 0 56.000000 118.000000"
 preserveAspectRatio="xMidYMid meet">
<metadata>
Created by potrace 1.16, written by Peter Selinger 2001-2019
</metadata>
<g transform="translate(0.000000,118.000000) scale(0.100000,-0.100000)"
fill="#000000" stroke="none">
<path d="M166 1145 c-8 -9 -19 -16 -23 -17 -14 -2 -54 -61 -83 -123 -43 -91
-56 -177 -41 -266 15 -95 52 -176 84 -188 14 -6 28 -15 32 -20 6 -11 135 -11
135 0 0 14 69 59 83 53 13 -5 21 -48 33 -189 13 -153 44 -358 56 -370 4 -4 28
-8 54 -9 52 -1 51 -3 61 90 4 38 1 58 -12 77 -9 14 -14 31 -10 37 3 5 2 10 -3
10 -6 0 -13 23 -17 50 -4 28 -12 50 -17 50 -8 0 -9 31 -4 95 4 62 3 95 -4 95
-6 0 -10 28 -10 68 0 37 -5 84 -11 105 -8 30 -7 42 3 54 8 10 14 55 16 124 4
106 4 108 -26 151 -47 68 -77 91 -106 84 -13 -3 -28 -15 -31 -26 -5 -16 -10
-18 -26 -9 -11 6 -23 18 -26 27 -9 26 -35 52 -44 46 -5 -3 -9 0 -9 5 0 16 -36
13 -54 -4z m75 -151 c19 -20 30 -24 54 -20 25 5 31 3 32 -11 1 -10 6 -60 13
-111 11 -88 10 -95 -9 -125 -11 -18 -21 -26 -21 -19 0 6 -5 12 -10 12 -6 0
-10 -8 -8 -17 4 -23 -57 -63 -96 -63 -18 0 -38 8 -47 18 -37 43 -49 144 -25
208 8 21 17 50 20 64 8 36 43 90 59 90 7 0 24 -12 38 -26z"/>
</g>
</svg>
