<?xml version="1.0" standalone="no"?>
<!DOCTYPE svg PUBLIC "-//W3C//DTD SVG 20010904//EN"
 "http://www.w3.org/TR/2001/REC-SVG-20010904/DTD/svg10.dtd">
<svg version="1.0" xmlns="http://www.w3.org/2000/svg"
 width="84.000000pt" height="91.000000pt" viewBox="0 0 84.000000 91.000000"
 preserveAspectRatio="xMidYMid meet">
<metadata>
Created by potrace 1.16, written by Peter Selinger 2001-2019
</metadata>
<g transform="translate(0.000000,91.000000) scale(0.100000,-0.100000)"
fill="#000000" stroke="none">
<path d="M300 891 c-19 -4 -44 -12 -55 -19 -11 -6 -37 -14 -57 -17 -42 -7 -98
-64 -145 -150 -35 -64 -39 -154 -8 -184 42 -41 111 -70 181 -76 38 -4 78 -10
89 -15 11 -5 49 -16 85 -25 61 -14 137 -41 205 -70 37 -17 90 -71 104 -106 11
-31 -2 -64 -39 -90 -36 -27 -165 -35 -310 -19 -85 9 -125 18 -138 30 -10 9
-24 19 -31 21 -13 5 100 89 118 89 5 0 14 6 20 14 9 11 9 19 -1 36 -11 19 -19
21 -63 15 -54 -7 -105 -36 -154 -90 -33 -36 -39 -70 -19 -108 6 -12 14 -28 18
-36 23 -51 216 -85 435 -78 147 4 164 9 224 59 48 41 61 81 49 153 -6 33 -17
67 -24 76 -8 8 -14 22 -14 31 0 13 -161 122 -185 124 -11 1 -59 19 -90 34 -19
9 -92 22 -195 35 -63 8 -150 35 -150 46 0 5 -9 9 -19 9 -10 0 -22 7 -25 16 -6
15 2 30 42 72 6 7 12 17 12 22 0 16 55 70 72 70 9 0 19 4 22 9 3 5 37 12 75
16 72 7 96 1 138 -37 12 -12 27 -17 34 -13 8 5 10 4 5 -3 -9 -15 -1 -15 26 -1
15 8 19 8 14 0 -4 -6 -3 -11 2 -11 6 0 15 14 21 30 9 27 7 34 -21 65 -21 25
-47 40 -87 51 -31 9 -60 20 -65 25 -11 10 -44 10 -96 0z"/>
</g>
</svg>
