<?xml version="1.0" standalone="no"?>
<!DOCTYPE svg PUBLIC "-//W3C//DTD SVG 20010904//EN"
 "http://www.w3.org/TR/2001/REC-SVG-20010904/DTD/svg10.dtd">
<svg version="1.0" xmlns="http://www.w3.org/2000/svg"
 width="59.000000pt" height="68.000000pt" viewBox="0 0 59.000000 68.000000"
 preserveAspectRatio="xMidYMid meet">
<metadata>
Created by potrace 1.16, written by Peter Selinger 2001-2019
</metadata>
<g transform="translate(0.000000,68.000000) scale(0.100000,-0.100000)"
fill="#000000" stroke="none">
<path d="M165 659 c-16 -3 -46 -7 -66 -8 -49 -1 -85 -41 -94 -103 -9 -61 2
-138 19 -138 8 0 19 -6 25 -14 7 -8 38 -26 69 -42 31 -15 59 -29 61 -30 5 -5
-42 -43 -54 -44 -14 0 -95 -82 -95 -97 0 -7 -4 -13 -10 -13 -11 0 -14 -88 -4
-114 3 -9 13 -16 20 -16 8 0 25 -7 38 -16 51 -32 343 -25 429 11 72 30 83 65
45 138 -26 48 -157 187 -177 187 -7 0 -27 11 -44 24 -19 14 -54 27 -86 31 -58
8 -126 47 -137 79 -8 23 12 43 54 56 29 8 36 6 61 -21 32 -33 78 -39 88 -11 4
9 14 23 22 30 14 11 14 13 -1 22 -10 6 -32 24 -50 40 -18 17 -37 30 -42 30 -5
0 -17 6 -25 13 -10 9 -26 11 -46 6z m128 -375 c15 -3 34 -19 43 -34 9 -15 36
-35 61 -45 24 -10 46 -22 48 -25 3 -4 -6 -19 -18 -34 -18 -21 -31 -26 -68 -26
-26 0 -70 -4 -99 -10 -64 -12 -89 -6 -114 27 l-18 25 41 42 c22 23 41 47 41
54 0 20 23 41 40 37 8 -2 27 -7 43 -11z"/>
</g>
</svg>
