<?xml version="1.0" standalone="no"?>
<!DOCTYPE svg PUBLIC "-//W3C//DTD SVG 20010904//EN"
 "http://www.w3.org/TR/2001/REC-SVG-20010904/DTD/svg10.dtd">
<svg version="1.0" xmlns="http://www.w3.org/2000/svg"
 width="67.000000pt" height="82.000000pt" viewBox="0 0 67.000000 82.000000"
 preserveAspectRatio="xMidYMid meet">
<metadata>
Created by potrace 1.16, written by Peter Selinger 2001-2019
</metadata>
<g transform="translate(0.000000,82.000000) scale(0.100000,-0.100000)"
fill="#000000" stroke="none">
<path d="M57 783 c-23 -27 -31 -140 -40 -538 -1 -64 20 -125 43 -125 11 0 20
-6 20 -14 0 -8 16 -24 35 -36 19 -12 35 -25 35 -30 0 -4 21 -11 48 -14 26 -3
66 -8 90 -12 24 -3 81 -3 127 1 68 5 89 11 112 31 15 13 33 24 40 24 7 0 34
21 60 46 26 26 40 44 31 41 -10 -4 -18 -2 -18 3 0 6 4 10 10 10 5 0 9 6 7 12
-3 15 -23 38 -33 38 -12 0 -97 -41 -114 -55 -24 -20 -202 -48 -208 -34 -2 5
-20 11 -40 15 -61 11 -132 62 -138 99 -1 5 -3 15 -5 20 -6 19 13 108 24 119 7
6 41 12 77 14 91 4 222 31 242 50 19 16 25 72 8 72 -5 0 -6 8 -3 17 5 13 3 15
-13 8 -10 -5 -55 -12 -99 -16 -44 -4 -110 -11 -147 -15 l-66 -7 -7 44 c-3 24
-8 82 -9 128 -2 54 -7 86 -14 89 -7 2 -12 10 -12 18 0 19 -24 18 -43 -3z"/>
</g>
</svg>
