<?xml version="1.0" standalone="no"?>
<!DOCTYPE svg PUBLIC "-//W3C//DTD SVG 20010904//EN"
 "http://www.w3.org/TR/2001/REC-SVG-20010904/DTD/svg10.dtd">
<svg version="1.0" xmlns="http://www.w3.org/2000/svg"
 width="105.000000pt" height="63.000000pt" viewBox="0 0 105.000000 63.000000"
 preserveAspectRatio="xMidYMid meet">
<metadata>
Created by potrace 1.16, written by Peter Selinger 2001-2019
</metadata>
<g transform="translate(0.000000,63.000000) scale(0.100000,-0.100000)"
fill="#000000" stroke="none">
<path d="M727 619 c-62 -17 -81 -53 -97 -181 l-11 -96 -84 -84 c-46 -45 -100
-90 -120 -99 -19 -9 -32 -19 -28 -22 3 -4 -6 -7 -20 -7 -19 0 -27 5 -27 18 0
15 40 204 57 270 3 12 2 60 -2 107 l-7 84 -50 -4 c-36 -3 -61 -12 -87 -32 -20
-16 -49 -37 -65 -47 -35 -22 -136 -124 -136 -136 0 -5 -9 -18 -21 -29 -17 -15
-20 -27 -15 -58 3 -21 5 -46 6 -55 0 -15 9 -18 49 -18 28 0 53 5 56 11 4 6 14
8 22 5 10 -4 13 -1 9 12 -2 9 -7 27 -10 38 -4 12 -2 33 3 47 12 32 97 98 117
90 16 -6 20 -88 4 -98 -5 -3 -10 -16 -10 -29 0 -12 -5 -27 -10 -32 -6 -6 -11
-42 -13 -82 -2 -39 -6 -74 -10 -78 -15 -15 -6 -50 18 -77 23 -24 33 -27 88
-27 55 0 69 5 122 39 33 21 83 59 111 84 l52 47 15 -39 c17 -42 69 -91 96 -91
9 0 23 -6 30 -13 11 -9 13 -9 7 1 -5 9 5 12 40 12 35 0 60 8 96 30 26 17 52
30 58 30 5 0 25 9 44 21 28 16 36 27 36 50 0 21 -5 29 -17 29 -15 0 -16 2 -3
10 8 5 12 12 8 15 -8 8 -90 -17 -158 -49 -30 -14 -65 -26 -77 -26 -27 0 -86
85 -77 112 3 10 7 28 8 41 1 12 9 36 18 52 35 69 49 230 22 255 -5 4 -22 4
-37 -1z"/>
<path d="M792 560 c0 -19 2 -27 5 -17 2 9 2 25 0 35 -3 9 -5 1 -5 -18z"/>
</g>
</svg>
