<?xml version="1.0" standalone="no"?>
<!DOCTYPE svg PUBLIC "-//W3C//DTD SVG 20010904//EN"
 "http://www.w3.org/TR/2001/REC-SVG-20010904/DTD/svg10.dtd">
<svg version="1.0" xmlns="http://www.w3.org/2000/svg"
 width="106.000000pt" height="97.000000pt" viewBox="0 0 106.000000 97.000000"
 preserveAspectRatio="xMidYMid meet">
<metadata>
Created by potrace 1.16, written by Peter Selinger 2001-2019
</metadata>
<g transform="translate(0.000000,97.000000) scale(0.100000,-0.100000)"
fill="#000000" stroke="none">
<path d="M958 948 c-5 -12 -11 -48 -39 -218 -15 -91 -23 -211 -23 -342 1 -54
-2 -98 -6 -98 -3 0 -6 -21 -6 -47 0 -64 -17 -93 -54 -93 -53 0 -84 65 -160
340 -24 83 -41 130 -61 160 -8 14 -19 34 -24 45 -8 19 -8 19 -12 2 -5 -18 -15
-19 -54 -3 -14 6 -17 -9 -23 -126 -7 -132 -31 -255 -63 -333 -21 -48 -73 -115
-90 -115 -18 0 -63 41 -63 57 0 7 -11 38 -25 69 -14 31 -25 66 -25 78 0 13
-11 32 -24 43 -17 15 -25 36 -31 79 -4 31 -13 67 -21 79 -8 12 -21 56 -29 98
-8 42 -20 87 -27 99 -7 13 -13 24 -14 26 0 1 -17 -5 -37 -13 -36 -15 -37 -16
-37 -71 0 -30 7 -68 15 -84 9 -16 18 -50 22 -75 3 -25 10 -45 14 -45 5 0 9
-13 9 -29 0 -16 4 -31 8 -33 4 -1 23 -48 41 -103 18 -55 40 -111 49 -125 9
-14 26 -46 38 -71 12 -25 36 -57 53 -70 30 -24 35 -24 95 -14 98 16 135 46
170 141 16 44 33 83 38 88 4 6 8 29 8 53 0 62 31 53 43 -12 9 -51 53 -156 61
-148 5 5 7 1 4 -7 -3 -9 16 -35 51 -68 46 -43 60 -51 81 -46 14 3 43 7 65 8
51 1 64 11 94 66 24 43 25 57 33 295 6 176 13 259 23 280 21 47 34 233 16 244
-4 3 -11 16 -15 29 -5 16 -15 22 -36 22 -15 0 -30 -6 -32 -12z"/>
</g>
</svg>
