<?xml version="1.0" standalone="no"?>
<!DOCTYPE svg PUBLIC "-//W3C//DTD SVG 20010904//EN"
 "http://www.w3.org/TR/2001/REC-SVG-20010904/DTD/svg10.dtd">
<svg version="1.0" xmlns="http://www.w3.org/2000/svg"
 width="89.000000pt" height="94.000000pt" viewBox="0 0 89.000000 94.000000"
 preserveAspectRatio="xMidYMid meet">
<metadata>
Created by potrace 1.16, written by Peter Selinger 2001-2019
</metadata>
<g transform="translate(0.000000,94.000000) scale(0.100000,-0.100000)"
fill="#000000" stroke="none">
<path d="M733 866 c-23 -29 -58 -79 -78 -112 -39 -65 -141 -174 -163 -174 -14
0 -90 75 -150 150 -77 94 -129 143 -143 134 -8 -5 -22 -7 -31 -6 -14 3 -18 -4
-18 -27 0 -22 5 -31 16 -31 10 0 14 -6 11 -14 -6 -14 22 -53 107 -148 78 -86
118 -147 111 -168 -8 -24 -242 -266 -250 -258 -3 3 -16 -4 -28 -16 -12 -11
-39 -36 -60 -54 -67 -57 -53 -131 23 -127 23 1 48 9 58 18 9 8 35 24 57 35 41
21 63 48 71 85 2 11 17 33 34 48 16 15 30 33 30 38 0 6 5 11 11 11 6 0 25 17
42 37 59 68 79 83 112 83 30 0 75 -30 75 -50 0 -6 7 -10 15 -10 14 0 50 -30
151 -126 41 -39 43 -40 59 -21 12 14 23 17 45 12 29 -6 30 -5 30 28 0 49 -17
90 -43 103 -78 38 -116 64 -168 114 -71 68 -78 104 -29 150 17 15 30 32 30 37
0 5 16 24 35 43 19 19 35 39 35 44 0 6 17 29 38 51 58 62 65 73 69 111 4 38
-14 64 -44 64 -10 -1 -37 -25 -60 -54z"/>
</g>
</svg>
