<?xml version="1.0" standalone="no"?>
<!DOCTYPE svg PUBLIC "-//W3C//DTD SVG 20010904//EN"
 "http://www.w3.org/TR/2001/REC-SVG-20010904/DTD/svg10.dtd">
<svg version="1.0" xmlns="http://www.w3.org/2000/svg"
 width="110.000000pt" height="63.000000pt" viewBox="0 0 110.000000 63.000000"
 preserveAspectRatio="xMidYMid meet">
<metadata>
Created by potrace 1.16, written by Peter Selinger 2001-2019
</metadata>
<g transform="translate(0.000000,63.000000) scale(0.100000,-0.100000)"
fill="#000000" stroke="none">
<path d="M345 600 c-11 -5 -35 -9 -52 -9 -18 -1 -33 -5 -33 -11 0 -5 -9 -10
-20 -10 -19 0 -71 -20 -80 -31 -3 -3 -12 -10 -21 -15 -37 -20 -115 -100 -117
-119 0 -11 -4 -35 -8 -53 -9 -48 12 -84 45 -78 14 2 30 5 35 5 5 1 6 18 2 39
-5 37 -3 40 47 83 88 75 151 109 206 109 23 0 23 -2 17 -52 -4 -29 -12 -58
-19 -63 -7 -6 -13 -16 -15 -23 -2 -14 -33 -42 -127 -117 -80 -64 -159 -140
-164 -156 -2 -8 -5 -21 -8 -29 -2 -10 6 -21 21 -29 21 -11 32 -11 72 0 25 8
54 24 63 35 9 12 44 44 77 72 47 38 64 48 77 40 9 -5 17 -16 17 -24 0 -43 26
-91 66 -122 39 -29 50 -32 109 -32 81 0 153 17 181 41 11 11 28 19 37 19 9 0
19 4 22 10 3 5 16 10 28 10 12 0 31 10 42 23 11 13 45 35 75 50 31 16 80 50
110 76 48 42 53 50 41 65 -7 8 -11 23 -7 31 3 9 2 13 -3 10 -5 -3 -12 -1 -15
4 -12 19 -126 -26 -126 -50 0 -5 -6 -9 -14 -9 -7 0 -20 -7 -27 -16 -8 -9 -33
-25 -56 -35 -24 -10 -43 -23 -43 -29 0 -5 -16 -10 -35 -10 -19 0 -35 -4 -35
-10 0 -5 -19 -14 -42 -21 -24 -6 -51 -18 -60 -26 -20 -18 -93 -9 -121 15 -16
14 -16 17 0 41 32 50 118 142 168 181 28 21 74 61 103 89 46 44 52 54 46 78
-13 51 -41 55 -117 16 -28 -14 -60 -33 -69 -41 -9 -8 -23 -12 -30 -9 -7 2 -25
-4 -40 -15 -22 -15 -32 -17 -48 -8 -11 6 -20 15 -20 21 0 20 -53 79 -71 79
-11 0 -19 5 -19 10 0 12 -17 12 -45 0z"/>
<path d="M1070 320 c0 -5 5 -10 11 -10 5 0 7 5 4 10 -3 6 -8 10 -11 10 -2 0
-4 -4 -4 -10z"/>
</g>
</svg>
