<?xml version="1.0" standalone="no"?>
<!DOCTYPE svg PUBLIC "-//W3C//DTD SVG 20010904//EN"
 "http://www.w3.org/TR/2001/REC-SVG-20010904/DTD/svg10.dtd">
<svg version="1.0" xmlns="http://www.w3.org/2000/svg"
 width="74.000000pt" height="116.000000pt" viewBox="0 0 74.000000 116.000000"
 preserveAspectRatio="xMidYMid meet">
<metadata>
Created by potrace 1.16, written by Peter Selinger 2001-2019
</metadata>
<g transform="translate(0.000000,116.000000) scale(0.100000,-0.100000)"
fill="#000000" stroke="none">
<path d="M383 1123 c-4 -10 -12 -22 -19 -28 -6 -5 -22 -37 -34 -70 -12 -33
-27 -67 -35 -75 -7 -8 -15 -31 -18 -50 -12 -69 -19 -100 -26 -100 -3 0 -5 -31
-3 -70 3 -64 6 -72 35 -96 43 -36 88 -54 138 -54 l41 0 -7 -37 c-8 -49 -35
-70 -82 -64 -6 1 -14 -3 -18 -9 -3 -5 -15 -10 -26 -10 -11 0 -30 -5 -42 -12
-12 -6 -32 -13 -45 -14 -12 -2 -43 -16 -68 -33 -25 -17 -53 -31 -62 -31 -22
-1 -51 -23 -66 -52 -7 -13 -19 -33 -26 -45 -11 -18 -11 -30 -1 -76 11 -44 22
-61 60 -94 45 -39 178 -103 213 -103 16 0 96 85 98 105 1 6 7 17 14 25 8 8 21
32 31 53 9 20 21 37 26 37 5 0 9 6 9 12 0 33 57 152 89 185 34 35 35 38 36
117 0 62 6 91 22 122 11 22 24 55 28 73 4 18 13 35 20 37 7 3 15 31 19 65 3
33 11 69 17 81 18 34 21 164 3 178 -7 7 -11 17 -7 23 4 7 -5 8 -28 4 -51 -10
-69 -39 -69 -108 0 -32 -4 -60 -9 -64 -6 -3 -13 -27 -17 -53 -6 -48 -47 -124
-85 -157 -13 -12 -38 -20 -70 -21 -40 -1 -52 2 -64 19 -17 24 -20 77 -5 77 6
0 10 11 10 24 0 14 4 27 9 30 4 3 11 23 14 44 4 20 18 53 32 72 14 18 25 40
25 47 0 7 3 13 8 13 13 0 7 64 -8 83 -8 9 -23 17 -33 17 -9 0 -21 -8 -24 -17z
m-53 -784 c0 9 37 8 46 -2 8 -8 -37 -127 -48 -127 -5 0 -8 -6 -8 -13 0 -26
-56 -68 -84 -64 -15 2 -31 8 -34 13 -4 5 -19 17 -34 27 -40 25 -38 68 5 100
17 14 42 28 53 31 12 4 29 15 39 26 13 15 22 17 41 10 13 -5 24 -6 24 -1z"/>
</g>
</svg>
