<?xml version="1.0" standalone="no"?>
<!DOCTYPE svg PUBLIC "-//W3C//DTD SVG 20010904//EN"
 "http://www.w3.org/TR/2001/REC-SVG-20010904/DTD/svg10.dtd">
<svg version="1.0" xmlns="http://www.w3.org/2000/svg"
 width="98.000000pt" height="95.000000pt" viewBox="0 0 98.000000 95.000000"
 preserveAspectRatio="xMidYMid meet">
<metadata>
Created by potrace 1.16, written by Peter Selinger 2001-2019
</metadata>
<g transform="translate(0.000000,95.000000) scale(0.100000,-0.100000)"
fill="#000000" stroke="none">
<path d="M385 924 c-55 -8 -127 -18 -160 -24 -33 -6 -85 -11 -115 -13 -61 -2
-77 -12 -84 -50 -8 -47 20 -59 126 -54 51 3 116 9 143 14 192 37 202 37 220
19 16 -16 17 -23 4 -73 -7 -31 -24 -70 -38 -86 -14 -17 -26 -36 -26 -43 0 -7
-13 -22 -28 -35 -24 -18 -45 -23 -125 -27 -111 -5 -152 -21 -152 -57 0 -13 -4
-27 -10 -30 -15 -9 -12 -25 4 -25 8 0 16 -7 20 -15 3 -8 14 -15 25 -15 11 0
22 -4 25 -9 3 -5 15 -7 25 -4 42 11 30 -36 -23 -92 -41 -44 -76 -99 -76 -121
0 -32 53 -125 84 -148 25 -19 28 -19 163 -1 76 10 156 20 178 22 22 2 49 8 60
13 22 9 49 16 140 32 83 15 130 57 129 114 0 22 -4 46 -8 52 -9 14 -76 16 -76
2 0 -15 -56 -40 -89 -40 -16 0 -33 -4 -36 -10 -3 -5 -17 -10 -31 -10 -13 0
-24 -4 -24 -10 0 -5 -15 -10 -33 -10 -18 0 -37 -4 -42 -9 -6 -5 -53 -18 -106
-30 -82 -18 -102 -19 -145 -8 -72 18 -71 38 6 108 38 35 57 60 50 64 -15 9 93
85 139 97 20 5 63 14 96 18 33 5 92 14 130 21 39 6 78 12 88 12 9 1 17 5 17 9
0 4 12 8 27 8 35 0 123 40 123 56 0 7 -12 25 -27 39 -23 22 -35 25 -68 21
-116 -14 -298 -27 -312 -22 -14 6 -11 12 15 39 75 77 109 196 77 266 -15 35
-22 40 -73 50 -66 13 -78 13 -207 -5z"/>
</g>
</svg>
