<?xml version="1.0" standalone="no"?>
<!DOCTYPE svg PUBLIC "-//W3C//DTD SVG 20010904//EN"
 "http://www.w3.org/TR/2001/REC-SVG-20010904/DTD/svg10.dtd">
<svg version="1.0" xmlns="http://www.w3.org/2000/svg"
 width="94.000000pt" height="67.000000pt" viewBox="0 0 94.000000 67.000000"
 preserveAspectRatio="xMidYMid meet">
<metadata>
Created by potrace 1.16, written by Peter Selinger 2001-2019
</metadata>
<g transform="translate(0.000000,67.000000) scale(0.100000,-0.100000)"
fill="#000000" stroke="none">
<path d="M225 646 c-11 -9 -27 -16 -36 -16 -28 0 -94 -78 -121 -143 -27 -66
-58 -194 -58 -239 0 -15 6 -33 13 -40 6 -7 13 -23 14 -36 2 -12 12 -32 23 -44
21 -23 27 -44 10 -33 -5 3 -10 2 -10 -3 0 -33 201 -36 237 -3 10 9 47 38 82
65 l64 49 28 -34 c16 -19 29 -42 29 -52 0 -10 18 -37 39 -60 l40 -42 109 0
c65 0 115 4 123 11 8 6 30 17 49 23 78 26 106 82 45 89 -17 2 -52 -1 -80 -7
-27 -6 -74 -12 -102 -13 -48 -2 -56 1 -88 32 -19 19 -35 44 -35 56 0 13 -5 26
-10 29 -6 4 -8 10 -5 15 3 5 -3 18 -15 30 -12 12 -20 33 -20 54 0 24 -9 43
-31 67 -17 19 -31 43 -31 54 1 11 2 33 3 49 1 19 -6 36 -17 46 -11 8 -36 36
-56 61 l-37 46 -68 2 c-47 1 -74 -3 -88 -13z m143 -110 c31 -19 68 -156 42
-156 -5 0 -14 -18 -20 -40 -6 -22 -15 -40 -20 -40 -6 0 -10 -6 -10 -13 0 -7
-10 -19 -22 -27 -11 -8 -36 -27 -53 -42 -18 -16 -42 -28 -54 -28 -11 0 -21 -4
-21 -10 0 -5 -7 -10 -16 -10 -8 0 -13 4 -9 9 3 6 -5 8 -18 5 -24 -4 -35 9 -51
60 -8 23 23 147 39 161 7 5 15 22 19 37 7 32 61 97 90 107 20 8 84 0 104 -13z"/>
</g>
</svg>
