<?xml version="1.0" standalone="no"?>
<!DOCTYPE svg PUBLIC "-//W3C//DTD SVG 20010904//EN"
 "http://www.w3.org/TR/2001/REC-SVG-20010904/DTD/svg10.dtd">
<svg version="1.0" xmlns="http://www.w3.org/2000/svg"
 width="63.000000pt" height="106.000000pt" viewBox="0 0 63.000000 106.000000"
 preserveAspectRatio="xMidYMid meet">
<metadata>
Created by potrace 1.16, written by Peter Selinger 2001-2019
</metadata>
<g transform="translate(0.000000,106.000000) scale(0.100000,-0.100000)"
fill="#000000" stroke="none">
<path d="M99 1041 c-24 -19 -24 -22 -29 -248 -3 -125 -2 -275 1 -333 6 -97 5
-108 -16 -145 -33 -59 -55 -161 -46 -215 10 -61 13 -66 68 -84 61 -21 92 -20
143 3 24 11 49 17 56 14 16 -6 134 57 172 92 15 14 30 25 34 25 11 0 82 99
108 150 19 38 22 54 17 113 -7 85 -29 129 -91 181 -46 40 -51 41 -127 43 -61
2 -87 -2 -112 -16 -17 -10 -44 -21 -60 -25 -37 -9 -42 8 -31 99 5 41 6 71 2
69 -11 -7 -10 114 1 152 9 33 -6 82 -34 110 -8 9 -15 20 -15 25 0 14 -16 11
-41 -10z m347 -541 c21 -16 45 -30 52 -30 19 0 7 -86 -20 -143 -19 -41 -133
-167 -151 -167 -5 0 -23 -6 -40 -14 -111 -51 -140 -56 -169 -29 -25 22 -23 62
7 105 14 20 25 43 25 50 0 8 14 28 30 46 17 18 30 41 30 51 0 10 7 24 15 31 9
7 23 28 31 47 18 38 86 83 125 83 14 0 43 -13 65 -30z"/>
</g>
</svg>
