<?xml version="1.0" standalone="no"?>
<!DOCTYPE svg PUBLIC "-//W3C//DTD SVG 20010904//EN"
 "http://www.w3.org/TR/2001/REC-SVG-20010904/DTD/svg10.dtd">
<svg version="1.0" xmlns="http://www.w3.org/2000/svg"
 width="97.000000pt" height="89.000000pt" viewBox="0 0 97.000000 89.000000"
 preserveAspectRatio="xMidYMid meet">
<metadata>
Created by potrace 1.16, written by Peter Selinger 2001-2019
</metadata>
<g transform="translate(0.000000,89.000000) scale(0.100000,-0.100000)"
fill="#000000" stroke="none">
<path d="M332 862 c-29 -10 -57 -24 -62 -32 -5 -8 -12 -11 -16 -7 -4 4 -13 -2
-21 -13 -8 -11 -21 -20 -29 -20 -22 0 -104 -91 -111 -122 -3 -15 -12 -33 -19
-39 -8 -7 -14 -30 -14 -55 0 -24 -4 -44 -10 -44 -5 0 -10 -4 -10 -9 0 -5 -7
-26 -17 -47 -19 -46 -29 -179 -13 -189 5 -3 10 -17 10 -30 0 -13 14 -41 32
-60 33 -39 122 -95 149 -95 9 0 19 -7 23 -15 3 -9 18 -15 35 -15 16 0 58 -9
93 -20 100 -32 340 -49 376 -26 6 3 44 11 86 18 72 11 79 14 111 54 33 40 47
72 25 59 -5 -3 -10 2 -10 12 -1 37 -25 55 -67 47 -21 -4 -50 -13 -65 -20 -15
-8 -44 -14 -66 -14 -21 0 -42 -3 -46 -7 -12 -12 -38 -16 -160 -20 -92 -4 -127
-1 -155 11 -20 8 -64 23 -98 33 -35 9 -63 21 -63 25 0 4 -8 8 -18 8 -23 0 -93
81 -109 126 -7 19 -10 35 -7 35 2 1 9 2 16 3 6 0 12 22 13 51 1 36 10 61 28
89 15 21 27 44 27 50 0 6 37 49 81 96 l81 85 84 3 c71 2 91 -1 136 -21 29 -14
68 -41 86 -61 18 -20 37 -36 42 -36 16 0 32 41 25 67 -4 17 -2 22 5 18 16 -10
-10 34 -39 67 -43 49 -94 68 -194 73 -72 4 -104 1 -145 -13z"/>
</g>
</svg>
