<?xml version="1.0" standalone="no"?>
<!DOCTYPE svg PUBLIC "-//W3C//DTD SVG 20010904//EN"
 "http://www.w3.org/TR/2001/REC-SVG-20010904/DTD/svg10.dtd">
<svg version="1.0" xmlns="http://www.w3.org/2000/svg"
 width="73.000000pt" height="76.000000pt" viewBox="0 0 73.000000 76.000000"
 preserveAspectRatio="xMidYMid meet">
<metadata>
Created by potrace 1.16, written by Peter Selinger 2001-2019
</metadata>
<g transform="translate(0.000000,76.000000) scale(0.100000,-0.100000)"
fill="#000000" stroke="none">
<path d="M196 686 c-31 -30 -56 -59 -56 -65 0 -5 -16 -27 -35 -48 -20 -21 -38
-48 -41 -60 -4 -13 -10 -23 -14 -23 -4 0 -10 -17 -14 -37 -3 -21 -10 -63 -16
-93 -11 -64 -3 -145 16 -161 8 -6 14 -21 14 -33 0 -11 6 -28 13 -36 18 -23
134 -110 146 -110 6 0 11 -4 11 -10 0 -6 27 -8 68 -5 98 8 122 14 168 46 23
15 44 25 47 22 4 -3 24 12 46 33 22 21 56 50 76 64 75 52 84 61 90 91 5 24 2
35 -14 50 -21 20 -61 26 -61 9 0 -5 -5 -10 -11 -10 -7 0 -31 -16 -55 -35 -23
-19 -47 -35 -53 -35 -6 0 -11 -4 -11 -9 0 -8 -32 -24 -52 -26 -4 0 -13 -6 -19
-12 -7 -7 -19 -13 -26 -13 -7 0 -13 -4 -13 -9 0 -9 -31 -17 -117 -29 -50 -8
-54 -7 -100 30 -34 26 -49 46 -51 65 -1 15 -5 54 -8 85 -4 42 -2 65 10 88 9
16 24 45 33 63 9 17 21 35 27 39 7 5 6 8 -2 8 -20 0 -12 13 36 64 32 34 51 46
72 46 26 0 29 -4 35 -42 8 -58 25 -88 47 -88 10 0 18 -5 18 -11 0 -7 9 0 20
14 26 33 25 55 -4 122 -20 43 -30 55 -48 55 -22 1 -22 1 -4 15 21 16 14 34
-12 33 -9 -1 -36 2 -59 6 -40 7 -43 6 -97 -48z"/>
</g>
</svg>
