<?xml version="1.0" standalone="no"?>
<!DOCTYPE svg PUBLIC "-//W3C//DTD SVG 20010904//EN"
 "http://www.w3.org/TR/2001/REC-SVG-20010904/DTD/svg10.dtd">
<svg version="1.0" xmlns="http://www.w3.org/2000/svg"
 width="99.000000pt" height="90.000000pt" viewBox="0 0 99.000000 90.000000"
 preserveAspectRatio="xMidYMid meet">
<metadata>
Created by potrace 1.16, written by Peter Selinger 2001-2019
</metadata>
<g transform="translate(0.000000,90.000000) scale(0.100000,-0.100000)"
fill="#000000" stroke="none">
<path d="M413 892 c-12 -8 -38 -256 -35 -334 2 -27 -1 -48 -6 -48 -12 0 -42
34 -42 48 0 7 -5 12 -11 12 -6 0 -18 9 -27 19 -10 11 -34 23 -54 26 -33 6 -38
4 -52 -24 -13 -23 -23 -31 -44 -31 -22 0 -33 -8 -50 -38 -11 -21 -26 -56 -31
-77 -32 -125 -41 -166 -49 -218 -8 -51 -7 -61 10 -83 11 -14 18 -33 15 -43 -6
-23 10 -51 28 -51 8 0 15 -6 15 -14 0 -21 117 -32 167 -16 52 17 161 82 203
122 41 39 54 43 70 23 7 -8 19 -15 26 -15 8 0 14 -4 14 -9 0 -13 16 -14 129
-13 72 1 103 6 135 22 23 11 46 20 50 20 4 0 29 20 55 45 46 43 57 73 38 102
-6 10 -16 9 -45 -3 -20 -9 -41 -17 -47 -18 -5 -2 -23 -8 -40 -16 -137 -59
-165 -61 -229 -23 -35 22 -45 33 -41 48 3 13 -7 31 -30 55 l-34 35 -1 120 c-1
66 -2 144 -1 173 0 33 -6 66 -17 85 -9 18 -19 52 -22 77 -5 45 -21 59 -47 42z
m-136 -423 c12 -24 19 -46 17 -48 -10 -10 21 -31 47 -31 19 0 29 -5 29 -15 0
-8 4 -15 9 -15 5 0 13 -9 16 -20 4 -11 11 -17 17 -14 7 4 8 -8 3 -37 -5 -37
-16 -52 -67 -99 -65 -58 -110 -80 -170 -80 -59 0 -71 20 -63 104 3 39 8 92 10
118 2 26 6 57 10 70 9 28 95 119 110 115 5 -2 20 -23 32 -48z"/>
</g>
</svg>
