<?xml version="1.0" standalone="no"?>
<!DOCTYPE svg PUBLIC "-//W3C//DTD SVG 20010904//EN"
 "http://www.w3.org/TR/2001/REC-SVG-20010904/DTD/svg10.dtd">
<svg version="1.0" xmlns="http://www.w3.org/2000/svg"
 width="87.000000pt" height="73.000000pt" viewBox="0 0 87.000000 73.000000"
 preserveAspectRatio="xMidYMid meet">
<metadata>
Created by potrace 1.16, written by Peter Selinger 2001-2019
</metadata>
<g transform="translate(0.000000,73.000000) scale(0.100000,-0.100000)"
fill="#000000" stroke="none">
<path d="M212 679 c-63 -35 -72 -43 -98 -89 -10 -19 -32 -52 -47 -73 -39 -51
-61 -128 -61 -214 -1 -66 2 -75 38 -127 21 -31 53 -68 70 -82 17 -14 40 -33
51 -43 45 -40 136 -58 195 -38 8 2 33 10 55 17 22 6 56 20 75 30 19 11 53 28
75 38 22 11 64 36 94 56 29 20 60 36 68 36 8 0 42 21 75 46 48 38 59 51 54 68
-3 11 -6 23 -6 26 0 3 -17 5 -37 4 -37 -2 -51 -5 -83 -16 -8 -3 -37 -13 -65
-23 -65 -22 -107 -42 -175 -84 -82 -51 -140 -74 -190 -76 -25 -1 -47 1 -50 5
-3 3 -20 16 -37 29 -18 12 -33 28 -32 34 0 7 26 24 57 39 31 15 83 50 114 78
32 28 62 49 68 45 5 -3 14 4 19 17 5 13 21 41 36 62 20 30 27 53 28 96 2 56 1
58 -42 96 -24 22 -52 46 -61 56 -13 12 -21 13 -29 5 -8 -8 -11 -8 -11 1 0 25
-92 13 -148 -19z m139 -79 c53 -15 73 -40 58 -74 -19 -40 -193 -176 -219 -169
-22 6 -23 12 -13 93 5 42 8 50 15 35 6 -14 7 -10 3 13 -4 29 0 38 26 60 17 15
36 32 43 39 14 15 40 16 87 3z"/>
</g>
</svg>
