<?xml version="1.0" standalone="no"?>
<!DOCTYPE svg PUBLIC "-//W3C//DTD SVG 20010904//EN"
 "http://www.w3.org/TR/2001/REC-SVG-20010904/DTD/svg10.dtd">
<svg version="1.0" xmlns="http://www.w3.org/2000/svg"
 width="93.000000pt" height="83.000000pt" viewBox="0 0 93.000000 83.000000"
 preserveAspectRatio="xMidYMid meet">
<metadata>
Created by potrace 1.16, written by Peter Selinger 2001-2019
</metadata>
<g transform="translate(0.000000,83.000000) scale(0.100000,-0.100000)"
fill="#000000" stroke="none">
<path d="M295 818 c-77 -5 -165 -6 -196 -4 -60 6 -71 0 -82 -42 -4 -15 2 -32
18 -50 21 -24 32 -27 116 -34 52 -4 127 -4 167 -1 54 4 72 3 72 -7 0 -10 3
-10 16 1 12 9 64 13 197 14 177 2 229 8 254 27 7 6 19 8 28 4 9 -3 19 3 25 14
27 50 -4 90 -60 79 -19 -4 -38 -5 -42 -3 -5 3 -8 0 -8 -5 0 -14 -66 -14 -145
-1 -91 14 -205 17 -360 8z"/>
<path d="M243 612 c-22 -3 -23 -8 -23 -85 0 -103 -5 -112 -56 -98 -21 6 -40 8
-42 6 -3 -3 -7 -27 -10 -54 -4 -46 -3 -50 24 -64 16 -8 43 -18 59 -21 45 -10
78 -83 90 -198 7 -65 15 -74 72 -82 37 -5 44 -2 62 22 12 15 25 32 31 39 5 7
11 26 12 44 3 29 -1 35 -40 53 -27 14 -48 33 -58 54 -15 31 -14 34 3 47 10 8
28 15 40 15 11 0 53 11 92 24 38 13 72 21 75 18 3 -2 12 1 21 8 19 16 19 54 0
70 -19 16 -85 22 -85 8 0 -15 -156 -3 -176 13 -20 16 -34 52 -40 98 -3 19 -9
40 -13 45 -5 6 -10 18 -12 26 -3 9 -13 14 -26 12z"/>
</g>
</svg>
