<?xml version="1.0" standalone="no"?>
<!DOCTYPE svg PUBLIC "-//W3C//DTD SVG 20010904//EN"
 "http://www.w3.org/TR/2001/REC-SVG-20010904/DTD/svg10.dtd">
<svg version="1.0" xmlns="http://www.w3.org/2000/svg"
 width="91.000000pt" height="89.000000pt" viewBox="0 0 91.000000 89.000000"
 preserveAspectRatio="xMidYMid meet">
<metadata>
Created by potrace 1.16, written by Peter Selinger 2001-2019
</metadata>
<g transform="translate(0.000000,89.000000) scale(0.100000,-0.100000)"
fill="#000000" stroke="none">
<path d="M290 879 c0 -5 -11 -9 -25 -9 -29 0 -122 -63 -130 -89 -3 -10 -14
-26 -25 -36 -12 -11 -20 -31 -20 -48 0 -17 -12 -65 -27 -106 -33 -93 -56 -309
-36 -336 6 -9 14 -34 18 -55 8 -48 20 -58 122 -109 83 -41 103 -48 178 -56 22
-2 63 -7 90 -10 92 -12 172 45 235 167 21 40 22 50 12 73 -11 24 -10 29 9 46
12 10 29 20 38 20 27 2 35 4 61 17 14 6 44 16 68 22 46 12 54 32 30 82 -17 35
-40 38 -129 16 -91 -22 -129 -22 -199 -2 -30 8 -65 15 -78 15 -15 -1 -21 3
-17 12 4 6 -5 -1 -20 -16 -18 -20 -24 -36 -20 -50 11 -39 28 -67 41 -67 15 0
73 -30 92 -48 21 -19 20 -54 -3 -81 -69 -83 -77 -90 -118 -97 -23 -4 -55 -6
-72 -5 -53 3 -169 51 -204 84 -51 49 -62 82 -51 163 16 117 22 144 31 144 5 0
9 11 9 24 0 14 5 28 10 31 6 4 8 10 5 15 -3 5 4 24 15 42 11 18 27 47 35 65
22 48 74 83 121 82 31 0 35 -2 19 -9 -15 -7 -9 -9 26 -9 35 -1 56 -8 87 -31
23 -17 42 -34 42 -39 0 -6 18 -9 40 -9 22 0 40 2 40 4 0 2 -5 25 -11 51 -9 45
-15 51 -84 96 -65 41 -82 48 -139 51 -38 3 -66 1 -66 -5z"/>
</g>
</svg>
