<?xml version="1.0" standalone="no"?>
<!DOCTYPE svg PUBLIC "-//W3C//DTD SVG 20010904//EN"
 "http://www.w3.org/TR/2001/REC-SVG-20010904/DTD/svg10.dtd">
<svg version="1.0" xmlns="http://www.w3.org/2000/svg"
 width="61.000000pt" height="114.000000pt" viewBox="0 0 61.000000 114.000000"
 preserveAspectRatio="xMidYMid meet">
<metadata>
Created by potrace 1.16, written by Peter Selinger 2001-2019
</metadata>
<g transform="translate(0.000000,114.000000) scale(0.100000,-0.100000)"
fill="#000000" stroke="none">
<path d="M147 1082 c-26 -27 -59 -71 -73 -98 -27 -52 -54 -164 -61 -252 -5
-48 -2 -56 32 -101 38 -49 46 -53 143 -63 18 -2 15 -11 -8 -25 -10 -7 -23 -30
-29 -50 -13 -52 -7 -331 8 -346 6 -6 11 -16 11 -23 0 -6 21 -32 46 -58 46 -45
47 -46 113 -46 36 0 83 6 104 14 58 20 131 97 149 159 16 51 17 142 3 200 -4
15 -2 48 4 73 11 42 10 47 -11 64 -13 11 -28 19 -35 20 -6 0 -15 15 -18 33 -4
17 -15 43 -25 57 -30 43 -31 103 -4 161 14 28 26 72 27 98 2 40 -3 53 -31 89
-21 26 -42 42 -55 42 -18 0 -19 2 -7 10 11 7 3 8 -27 4 -36 -5 -43 -3 -53 17
-26 48 -48 62 -102 66 -52 5 -54 4 -101 -45z m123 -94 c33 -37 37 -58 16 -91
-9 -13 -12 -34 -9 -50 5 -24 9 -28 29 -23 20 5 26 1 34 -19 15 -39 14 -40 -49
-89 -53 -40 -64 -44 -98 -39 -55 8 -82 42 -76 96 2 23 8 51 13 62 5 11 16 47
25 80 15 55 52 105 78 105 4 0 21 -15 37 -32z m133 -365 c13 -24 15 -62 3 -78
-12 -17 -18 -17 -89 -5 l-75 14 37 19 c20 10 45 27 56 38 19 19 60 26 68 12z
m79 -228 c14 -36 18 -68 16 -113 -4 -56 -7 -66 -43 -102 -72 -74 -122 -82
-172 -29 -39 43 -56 103 -50 177 6 76 14 102 31 103 6 0 44 2 84 4 40 2 76 6
80 9 15 16 36 -3 54 -49z"/>
</g>
</svg>
