<?xml version="1.0" standalone="no"?>
<!DOCTYPE svg PUBLIC "-//W3C//DTD SVG 20010904//EN"
 "http://www.w3.org/TR/2001/REC-SVG-20010904/DTD/svg10.dtd">
<svg version="1.0" xmlns="http://www.w3.org/2000/svg"
 width="107.000000pt" height="66.000000pt" viewBox="0 0 107.000000 66.000000"
 preserveAspectRatio="xMidYMid meet">
<metadata>
Created by potrace 1.16, written by Peter Selinger 2001-2019
</metadata>
<g transform="translate(0.000000,66.000000) scale(0.100000,-0.100000)"
fill="#000000" stroke="none">
<path d="M38 635 c-28 -16 -37 -35 -17 -35 5 0 7 -4 4 -10 -3 -5 -1 -10 5 -10
7 0 10 -6 7 -14 -3 -8 1 -20 9 -27 21 -17 129 -38 199 -39 59 0 174 -15 182
-24 13 -13 19 -284 7 -296 -13 -12 -170 -27 -241 -22 -34 2 -70 -1 -82 -8 -33
-17 -27 -58 15 -96 l35 -33 117 5 c64 2 142 6 172 8 30 2 105 6 166 8 64 2
110 7 106 12 -3 5 8 7 24 4 47 -9 294 25 304 42 11 18 13 70 2 86 -4 6 -24 17
-44 24 -29 11 -47 11 -90 1 -58 -13 -330 -31 -359 -24 -15 4 -17 19 -19 131 0
70 -2 135 -3 146 -3 26 15 29 178 31 172 2 185 7 185 73 0 26 -4 53 -9 61 -7
11 -61 13 -292 11 -156 -2 -340 0 -409 4 -104 6 -130 4 -152 -9z"/>
</g>
</svg>
