<?xml version="1.0" standalone="no"?>
<!DOCTYPE svg PUBLIC "-//W3C//DTD SVG 20010904//EN"
 "http://www.w3.org/TR/2001/REC-SVG-20010904/DTD/svg10.dtd">
<svg version="1.0" xmlns="http://www.w3.org/2000/svg"
 width="93.000000pt" height="70.000000pt" viewBox="0 0 93.000000 70.000000"
 preserveAspectRatio="xMidYMid meet">
<metadata>
Created by potrace 1.16, written by Peter Selinger 2001-2019
</metadata>
<g transform="translate(0.000000,70.000000) scale(0.100000,-0.100000)"
fill="#000000" stroke="none">
<path d="M34 656 c-3 -13 -3 -62 1 -108 7 -101 11 -183 13 -350 2 -127 2 -127
32 -158 46 -47 65 -40 148 51 39 45 72 87 72 93 1 6 29 40 64 75 51 51 67 62
84 56 12 -3 22 -13 22 -20 0 -8 16 -45 35 -84 56 -112 162 -189 261 -190 85
-2 154 43 145 93 -1 4 4 15 11 24 10 12 10 14 1 8 -8 -4 -13 -2 -13 5 0 9 -19
10 -73 5 -57 -5 -77 -3 -92 8 -11 9 -28 16 -37 16 -24 0 -126 97 -149 141 -29
59 -25 104 14 143 17 19 50 45 71 60 45 30 66 65 66 108 0 22 -4 29 -14 25 -8
-3 -17 -1 -20 6 -3 9 -5 9 -5 0 -1 -7 -10 -13 -21 -13 -52 0 -137 -66 -333
-259 -136 -134 -172 -160 -173 -124 -4 106 -27 296 -41 336 -25 73 -57 98 -69
53z"/>
</g>
</svg>
