<?xml version="1.0" standalone="no"?>
<!DOCTYPE svg PUBLIC "-//W3C//DTD SVG 20010904//EN"
 "http://www.w3.org/TR/2001/REC-SVG-20010904/DTD/svg10.dtd">
<svg version="1.0" xmlns="http://www.w3.org/2000/svg"
 width="71.000000pt" height="73.000000pt" viewBox="0 0 71.000000 73.000000"
 preserveAspectRatio="xMidYMid meet">
<metadata>
Created by potrace 1.16, written by Peter Selinger 2001-2019
</metadata>
<g transform="translate(0.000000,73.000000) scale(0.100000,-0.100000)"
fill="#000000" stroke="none">
<path d="M25 694 c-17 -13 -18 -16 -5 -24 8 -5 12 -10 8 -10 -3 0 0 -20 7 -45
21 -69 28 -197 17 -345 -12 -167 -6 -211 30 -240 25 -19 40 -21 165 -21 76 0
187 5 247 11 96 11 113 16 152 44 23 17 43 39 43 49 1 9 6 17 11 17 16 0 11
46 -6 61 -24 20 -43 20 -88 -1 -55 -25 -199 -39 -319 -31 -57 3 -101 2 -105
-3 -7 -12 -34 95 -29 115 8 31 -14 314 -27 349 -7 19 -11 40 -9 46 10 28 -62
50 -92 28z"/>
</g>
</svg>
