<?xml version="1.0" standalone="no"?>
<!DOCTYPE svg PUBLIC "-//W3C//DTD SVG 20010904//EN"
 "http://www.w3.org/TR/2001/REC-SVG-20010904/DTD/svg10.dtd">
<svg version="1.0" xmlns="http://www.w3.org/2000/svg"
 width="70.000000pt" height="122.000000pt" viewBox="0 0 70.000000 122.000000"
 preserveAspectRatio="xMidYMid meet">
<metadata>
Created by potrace 1.16, written by Peter Selinger 2001-2019
</metadata>
<g transform="translate(0.000000,122.000000) scale(0.100000,-0.100000)"
fill="#000000" stroke="none">
<path d="M405 1205 c-5 -2 -22 -6 -37 -9 -16 -4 -28 -13 -28 -21 0 -8 -4 -15
-9 -15 -14 0 -81 -66 -81 -80 0 -8 -9 -23 -19 -34 -18 -20 -43 -94 -106 -307
-14 -47 -25 -95 -25 -107 0 -12 -4 -22 -10 -22 -5 0 -12 -17 -15 -37 -11 -70
-14 -78 -45 -110 l-30 -32 14 -58 c8 -32 17 -77 20 -100 8 -66 18 -95 43 -135
12 -21 23 -41 23 -45 1 -12 56 -70 78 -82 49 -26 125 -4 170 49 9 10 15 11 18
3 5 -10 74 49 74 64 0 10 63 62 120 101 30 20 59 42 63 49 5 8 12 11 18 8 5
-4 9 1 9 10 0 9 4 13 10 10 6 -4 7 1 3 11 -4 12 -3 15 5 10 14 -8 17 61 4 82
-14 21 -81 4 -116 -29 -17 -16 -36 -29 -42 -29 -7 0 -14 -7 -18 -15 -3 -8 -11
-15 -18 -15 -7 0 -35 -20 -63 -45 -56 -51 -131 -105 -146 -105 -5 0 -9 -4 -9
-10 0 -5 -11 -10 -25 -10 -53 0 -97 92 -81 167 6 27 37 52 154 128 32 21 139
131 157 163 11 18 27 32 38 32 11 0 15 4 11 12 -5 7 -2 9 7 6 9 -4 15 1 16 11
1 9 9 36 18 61 18 49 16 73 -24 205 -12 38 -21 81 -21 93 0 13 -6 38 -14 55
-15 35 -29 69 -30 77 -5 22 -42 50 -61 45z m21 -206 c4 -27 10 -49 14 -49 8 0
22 -87 23 -145 1 -30 -7 -52 -30 -85 -49 -71 -169 -190 -192 -190 -12 0 -21
-6 -21 -14 0 -9 -7 -12 -20 -9 -21 6 -25 24 -11 51 5 9 12 42 15 72 9 81 21
130 45 180 11 25 21 53 21 62 0 14 30 79 60 128 5 8 11 23 14 33 7 22 47 38
63 25 7 -6 16 -32 19 -59z"/>
</g>
</svg>
