<?xml version="1.0" standalone="no"?>
<!DOCTYPE svg PUBLIC "-//W3C//DTD SVG 20010904//EN"
 "http://www.w3.org/TR/2001/REC-SVG-20010904/DTD/svg10.dtd">
<svg version="1.0" xmlns="http://www.w3.org/2000/svg"
 width="117.000000pt" height="68.000000pt" viewBox="0 0 117.000000 68.000000"
 preserveAspectRatio="xMidYMid meet">
<metadata>
Created by potrace 1.16, written by Peter Selinger 2001-2019
</metadata>
<g transform="translate(0.000000,68.000000) scale(0.100000,-0.100000)"
fill="#000000" stroke="none">
<path d="M220 646 c-20 -13 -47 -38 -60 -55 -22 -26 -30 -30 -60 -25 -59 10
-64 -4 -67 -199 -1 -95 -6 -197 -10 -227 -9 -63 -2 -152 10 -132 5 6 20 12 35
12 54 0 72 31 83 137 4 48 13 108 20 133 6 25 13 69 16 98 3 28 8 52 13 52 4
0 13 14 20 31 18 41 37 59 65 59 20 0 29 -13 34 -45 0 -3 8 -20 18 -38 9 -17
20 -57 24 -87 7 -58 15 -95 22 -108 3 -4 7 -34 8 -67 4 -64 26 -95 67 -95 34
0 47 27 44 97 -5 103 13 160 78 239 5 7 7 14 4 17 -3 2 1 7 9 10 9 3 21 -11
34 -42 32 -71 37 -84 39 -111 1 -14 7 -41 14 -60 17 -47 23 -64 24 -70 1 -8
45 -65 81 -105 l30 -34 65 15 c36 9 75 18 88 21 12 3 22 11 22 19 0 8 26 27
58 43 71 37 106 62 109 78 4 19 -29 53 -51 53 -27 0 -86 -22 -86 -32 0 -4 -6
-8 -14 -8 -7 0 -25 -10 -40 -21 -15 -12 -43 -25 -63 -29 -31 -7 -41 -5 -70 17
-19 15 -33 34 -33 47 0 12 -4 26 -9 31 -12 12 -32 86 -38 143 -3 23 -9 42 -14
42 -5 0 -9 11 -9 24 0 14 -4 28 -10 31 -5 3 -10 13 -10 22 0 22 -53 102 -67
103 -7 0 -13 -4 -13 -10 0 -5 -10 -10 -23 -10 -16 0 -42 -21 -82 -65 -33 -36
-65 -65 -72 -65 -14 0 -35 34 -27 43 3 3 -7 20 -23 37 -15 18 -27 36 -26 41 5
15 -71 69 -97 68 -14 0 -41 -11 -60 -23z"/>
</g>
</svg>
