<?xml version="1.0" standalone="no"?>
<!DOCTYPE svg PUBLIC "-//W3C//DTD SVG 20010904//EN"
 "http://www.w3.org/TR/2001/REC-SVG-20010904/DTD/svg10.dtd">
<svg version="1.0" xmlns="http://www.w3.org/2000/svg"
 width="123.000000pt" height="82.000000pt" viewBox="0 0 123.000000 82.000000"
 preserveAspectRatio="xMidYMid meet">
<metadata>
Created by potrace 1.16, written by Peter Selinger 2001-2019
</metadata>
<g transform="translate(0.000000,82.000000) scale(0.100000,-0.100000)"
fill="#000000" stroke="none">
<path d="M380 810 c0 -6 -5 -10 -11 -10 -6 0 -27 -13 -46 -30 -18 -16 -37 -30
-41 -30 -4 0 -16 -13 -25 -30 -10 -16 -24 -30 -31 -30 -15 0 -96 -86 -96 -102
0 -5 -25 -35 -57 -65 -49 -48 -55 -58 -45 -74 7 -10 12 -24 12 -31 0 -9 -3 -8
-10 2 -8 12 -10 11 -10 -7 0 -14 6 -23 15 -23 8 0 15 5 15 10 0 6 11 10 24 10
16 0 35 14 57 41 42 50 118 129 145 150 37 28 48 27 67 -9 15 -28 18 -52 15
-138 -2 -57 -6 -104 -9 -104 -12 0 -31 -106 -31 -172 0 -32 -4 -48 -12 -48
-21 0 -40 -45 -28 -67 19 -36 72 -66 72 -42 0 5 -6 9 -12 9 -7 1 -1 6 13 13
34 15 93 68 102 90 10 27 81 128 119 169 36 39 56 71 87 133 20 40 59 91 64
84 8 -12 27 -104 27 -132 1 -41 39 -146 65 -179 29 -36 88 -44 160 -23 64 18
153 69 175 100 8 11 27 33 42 48 15 16 28 35 28 43 0 17 -29 64 -40 64 -7 0
-51 -32 -119 -87 -50 -41 -100 -63 -142 -63 l-37 0 -6 63 c-4 34 -9 94 -11
132 -5 76 -23 165 -33 165 -4 0 -21 14 -39 30 -18 17 -39 30 -47 30 -8 0 -43
-26 -76 -57 -46 -42 -60 -62 -56 -76 3 -13 -7 -34 -30 -60 -18 -22 -34 -46
-34 -53 0 -15 -63 -84 -76 -84 -5 0 -9 80 -9 178 0 97 -4 189 -8 203 -7 26
-77 79 -77 59z m-80 -734 c0 -3 -4 -8 -10 -11 -5 -3 -10 -1 -10 4 0 6 5 11 10
11 6 0 10 -2 10 -4z"/>
</g>
</svg>
