<?xml version="1.0" standalone="no"?>
<!DOCTYPE svg PUBLIC "-//W3C//DTD SVG 20010904//EN"
 "http://www.w3.org/TR/2001/REC-SVG-20010904/DTD/svg10.dtd">
<svg version="1.0" xmlns="http://www.w3.org/2000/svg"
 width="102.000000pt" height="93.000000pt" viewBox="0 0 102.000000 93.000000"
 preserveAspectRatio="xMidYMid meet">
<metadata>
Created by potrace 1.16, written by Peter Selinger 2001-2019
</metadata>
<g transform="translate(0.000000,93.000000) scale(0.100000,-0.100000)"
fill="#000000" stroke="none">
<path d="M402 886 c-22 -26 -32 -32 -32 -20 0 16 -2 16 -20 -1 -11 -10 -20
-23 -20 -29 0 -6 -16 -25 -36 -41 -65 -54 -107 -99 -120 -131 -7 -17 -20 -36
-28 -44 -9 -7 -16 -17 -16 -22 0 -5 -11 -19 -25 -32 -14 -13 -25 -33 -25 -44
0 -11 -6 -27 -12 -34 -33 -34 -47 -89 -49 -180 0 -51 3 -102 7 -113 17 -47 67
-94 128 -124 36 -17 68 -35 71 -41 3 -5 12 -7 20 -4 8 4 52 1 97 -6 85 -13
214 -2 227 18 3 5 27 12 53 16 26 4 58 16 71 26 14 11 33 21 43 23 33 7 61 21
127 67 54 37 72 57 103 115 35 65 38 77 42 173 3 82 1 107 -12 127 -9 13 -16
30 -16 38 0 18 -52 86 -66 87 -6 0 -18 8 -28 19 -9 10 -34 26 -56 36 -22 10
-40 22 -40 26 0 5 -20 14 -45 20 -25 6 -62 25 -82 40 -20 16 -48 32 -62 36
-14 3 -31 10 -38 15 -7 6 -38 12 -71 15 -57 5 -58 5 -90 -31z m221 -98 c15 -7
27 -16 27 -20 0 -5 6 -8 13 -8 7 0 29 -15 49 -33 20 -18 47 -38 61 -44 40 -19
97 -73 118 -114 22 -44 25 -126 6 -179 -20 -59 -52 -94 -121 -134 -37 -22 -69
-43 -72 -48 -3 -4 -16 -8 -30 -8 -13 0 -24 -4 -24 -10 0 -5 -8 -10 -18 -10
-10 0 -29 -8 -42 -17 -14 -10 -38 -19 -55 -19 -16 -1 -48 -7 -70 -13 -50 -13
-109 -14 -149 -1 -17 5 -47 12 -66 15 -22 3 -54 22 -84 48 -43 38 -49 49 -57
97 -8 49 -6 60 21 113 16 33 34 65 39 71 5 6 12 22 16 36 8 24 63 102 78 108
4 2 7 8 7 12 0 22 127 130 152 130 9 0 18 6 21 14 10 25 136 34 180 14z"/>
</g>
</svg>
