<?xml version="1.0" standalone="no"?>
<!DOCTYPE svg PUBLIC "-//W3C//DTD SVG 20010904//EN"
 "http://www.w3.org/TR/2001/REC-SVG-20010904/DTD/svg10.dtd">
<svg version="1.0" xmlns="http://www.w3.org/2000/svg"
 width="87.000000pt" height="93.000000pt" viewBox="0 0 87.000000 93.000000"
 preserveAspectRatio="xMidYMid meet">
<metadata>
Created by potrace 1.16, written by Peter Selinger 2001-2019
</metadata>
<g transform="translate(0.000000,93.000000) scale(0.100000,-0.100000)"
fill="#000000" stroke="none">
<path d="M275 920 c-22 -3 -65 -17 -95 -32 -122 -57 -152 -193 -39 -180 18 2
28 11 35 34 7 26 18 35 59 49 28 10 62 18 77 18 15 1 29 5 32 10 8 13 195 -28
247 -54 65 -33 139 -102 139 -130 0 -35 -67 -103 -135 -137 -33 -17 -62 -33
-65 -37 -9 -12 -85 -41 -115 -43 -21 -2 -30 2 -30 12 -1 8 -6 28 -13 43 -7 16
-12 36 -13 45 0 14 -2 14 -8 -2 -7 -18 -8 -18 -14 -3 -4 10 -4 30 -1 47 5 21
0 36 -14 55 -12 15 -18 33 -15 41 4 10 -2 17 -16 21 -11 3 -18 9 -15 14 11 19
-14 8 -36 -16 l-23 -25 17 -62 c10 -35 22 -72 27 -83 5 -11 10 -47 11 -79 l3
-60 -55 3 c-46 2 -59 7 -82 32 -15 16 -29 29 -32 29 -2 0 -26 -21 -53 -48 -33
-33 -48 -56 -48 -74 0 -14 3 -24 6 -22 4 2 12 -3 19 -11 16 -19 53 -25 175
-28 l100 -3 -3 -34 c-2 -18 1 -42 6 -54 17 -36 32 -88 32 -113 0 -23 2 -24 43
-18 70 11 73 13 74 50 1 19 -4 35 -10 35 -6 0 -7 3 -4 6 4 4 0 19 -7 33 -17
33 -50 131 -45 134 63 42 93 57 111 57 13 0 48 13 78 29 30 15 68 31 85 35 16
4 50 29 76 55 25 26 51 45 57 43 6 -2 8 5 5 17 -3 12 4 32 16 50 30 41 38 89
17 97 -9 3 -16 12 -16 19 0 15 -72 115 -83 115 -4 0 -22 14 -40 30 -18 17 -50
35 -72 41 -22 6 -55 18 -73 27 -35 17 -210 31 -277 22z m52 -346 c-3 -3 -12
-4 -19 -1 -8 3 -5 6 6 6 11 1 17 -2 13 -5z"/>
</g>
</svg>
