<?xml version="1.0" standalone="no"?>
<!DOCTYPE svg PUBLIC "-//W3C//DTD SVG 20010904//EN"
 "http://www.w3.org/TR/2001/REC-SVG-20010904/DTD/svg10.dtd">
<svg version="1.0" xmlns="http://www.w3.org/2000/svg"
 width="44.000000pt" height="117.000000pt" viewBox="0 0 44.000000 117.000000"
 preserveAspectRatio="xMidYMid meet">
<metadata>
Created by potrace 1.16, written by Peter Selinger 2001-2019
</metadata>
<g transform="translate(0.000000,117.000000) scale(0.100000,-0.100000)"
fill="#000000" stroke="none">
<path d="M233 1153 c-13 -3 -41 -31 -69 -69 -36 -52 -45 -71 -39 -91 4 -19 3
-24 -7 -20 -8 2 -14 -2 -15 -12 -10 -115 -22 -181 -35 -206 -57 -103 -60 -112
-49 -152 7 -23 24 -48 45 -65 20 -17 34 -36 34 -50 0 -13 5 -43 12 -68 7 -25
14 -74 15 -110 1 -36 7 -78 14 -93 6 -16 11 -34 11 -42 0 -8 4 -16 9 -19 5 -4
12 -29 16 -58 8 -54 42 -99 57 -75 5 8 8 5 8 -8 0 -18 2 -17 26 7 35 34 36 87
5 153 -25 51 -35 149 -36 344 l0 73 50 27 c70 36 131 99 139 144 11 61 5 185
-10 198 -8 6 -18 28 -24 48 -6 23 -19 43 -35 51 -14 7 -25 18 -25 23 0 17 -50
77 -63 76 -7 -1 -22 -4 -34 -6z m43 -171 c27 -23 43 -62 50 -125 6 -52 6 -52
-41 -94 -25 -24 -52 -43 -58 -43 -9 0 -13 35 -14 120 -2 100 0 122 13 127 8 3
13 12 10 19 -7 19 15 17 40 -4z"/>
</g>
</svg>
