<?xml version="1.0" standalone="no"?>
<!DOCTYPE svg PUBLIC "-//W3C//DTD SVG 20010904//EN"
 "http://www.w3.org/TR/2001/REC-SVG-20010904/DTD/svg10.dtd">
<svg version="1.0" xmlns="http://www.w3.org/2000/svg"
 width="87.000000pt" height="89.000000pt" viewBox="0 0 87.000000 89.000000"
 preserveAspectRatio="xMidYMid meet">
<metadata>
Created by potrace 1.16, written by Peter Selinger 2001-2019
</metadata>
<g transform="translate(0.000000,89.000000) scale(0.100000,-0.100000)"
fill="#000000" stroke="none">
<path d="M270 865 c-6 -8 -25 -17 -41 -20 -63 -14 -179 -143 -179 -199 0 -14
-4 -28 -10 -31 -5 -3 -10 -15 -10 -25 0 -10 -6 -21 -12 -23 -10 -4 -9 -8 2
-16 12 -8 12 -12 -2 -28 -14 -16 -14 -28 -1 -123 11 -80 18 -109 33 -122 11
-9 20 -19 20 -22 0 -12 76 -88 117 -117 23 -16 55 -29 70 -29 16 0 34 -5 41
-12 7 -7 52 -14 107 -16 74 -3 113 0 179 17 l85 22 50 -51 c56 -56 79 -61 116
-25 33 34 32 46 -12 86 -21 19 -38 41 -38 49 0 8 -6 14 -12 13 -18 -4 -16 44
2 51 8 3 15 12 15 21 0 8 5 15 11 15 7 0 8 13 4 38 -6 40 12 71 35 57 5 -3 10
1 10 10 0 11 -5 15 -15 11 -9 -3 -15 0 -15 10 0 8 4 13 9 10 5 -3 12 1 15 10
11 30 6 44 -16 44 -19 0 -20 2 -8 10 10 6 11 10 3 10 -7 0 -13 12 -13 28 0 21
2 24 10 12 8 -13 10 -13 10 1 0 9 -6 19 -14 22 -8 3 -30 34 -50 69 -19 35 -38
62 -41 61 -14 -7 -18 -2 -5 7 12 8 12 10 -5 10 -11 0 -33 8 -50 18 -16 10 -50
24 -75 31 -24 7 -50 21 -57 30 -9 12 -12 12 -13 2 0 -7 -25 12 -56 43 l-56 56
-64 -1 c-39 -1 -68 -6 -74 -14z m148 -129 c23 -45 68 -76 114 -76 39 -1 131
-46 140 -69 4 -12 3 -21 -2 -21 -6 0 -10 -4 -10 -10 0 -5 9 -10 21 -10 11 0
17 -4 14 -10 -3 -5 -2 -10 4 -10 23 0 33 -43 26 -107 -6 -60 -8 -63 -28 -57
-12 4 -29 13 -37 20 -8 8 -36 31 -62 53 -26 21 -44 42 -41 45 4 3 1 6 -5 6 -7
0 -12 7 -12 15 0 24 -38 18 -46 -7 -5 -13 -7 -26 -6 -30 1 -5 -3 -8 -8 -8 -6
0 -10 -5 -10 -11 0 -5 4 -7 10 -4 6 3 7 -1 4 -9 -3 -9 -1 -16 5 -16 6 0 11 -7
11 -16 0 -9 13 -31 29 -50 39 -44 52 -119 25 -139 -42 -31 -102 -39 -198 -26
-83 11 -94 15 -126 46 -20 19 -41 35 -47 35 -7 0 -20 14 -30 30 -9 16 -24 30
-33 30 -11 0 -12 2 -2 8 17 11 5 92 -14 99 -19 7 -18 38 2 54 10 8 13 21 9 38
-4 15 1 40 13 65 11 23 25 54 31 69 6 16 19 31 29 34 10 2 24 16 32 30 18 30
67 50 131 52 44 1 46 0 67 -43z m422 -291 c0 -8 -4 -15 -10 -15 -5 0 -7 7 -4
15 4 8 8 15 10 15 2 0 4 -7 4 -15z m-250 -180 c0 -14 -2 -25 -4 -25 -2 0 -6
11 -8 25 -3 14 -1 25 3 25 5 0 9 -11 9 -25z"/>
</g>
</svg>
