<?xml version="1.0" standalone="no"?>
<!DOCTYPE svg PUBLIC "-//W3C//DTD SVG 20010904//EN"
 "http://www.w3.org/TR/2001/REC-SVG-20010904/DTD/svg10.dtd">
<svg version="1.0" xmlns="http://www.w3.org/2000/svg"
 width="67.000000pt" height="62.000000pt" viewBox="0 0 67.000000 62.000000"
 preserveAspectRatio="xMidYMid meet">
<metadata>
Created by potrace 1.16, written by Peter Selinger 2001-2019
</metadata>
<g transform="translate(0.000000,62.000000) scale(0.100000,-0.100000)"
fill="#000000" stroke="none">
<path d="M218 603 c-27 -2 -48 -8 -48 -14 0 -5 -11 -9 -24 -9 -16 0 -41 -19
-80 -61 l-56 -60 0 -77 c0 -42 7 -122 14 -177 7 -55 11 -119 8 -142 -3 -34 0
-43 17 -53 18 -9 25 -7 45 15 43 46 52 148 24 259 -24 96 -20 149 16 185 l26
26 168 -4 c303 -7 288 -8 311 13 27 24 27 58 0 82 -19 17 -39 19 -197 20 -98
1 -198 0 -224 -3z"/>
</g>
</svg>
