<?xml version="1.0" standalone="no"?>
<!DOCTYPE svg PUBLIC "-//W3C//DTD SVG 20010904//EN"
 "http://www.w3.org/TR/2001/REC-SVG-20010904/DTD/svg10.dtd">
<svg version="1.0" xmlns="http://www.w3.org/2000/svg"
 width="84.000000pt" height="94.000000pt" viewBox="0 0 84.000000 94.000000"
 preserveAspectRatio="xMidYMid meet">
<metadata>
Created by potrace 1.16, written by Peter Selinger 2001-2019
</metadata>
<g transform="translate(0.000000,94.000000) scale(0.100000,-0.100000)"
fill="#000000" stroke="none">
<path d="M161 932 c-1 -7 -25 -36 -54 -65 -52 -53 -77 -104 -77 -161 0 -15 -7
-43 -16 -64 -18 -45 -18 -270 1 -326 8 -22 9 -38 3 -44 -6 -6 -4 -19 7 -36 11
-16 15 -35 11 -50 -3 -14 -2 -28 4 -31 5 -3 10 -14 10 -24 0 -10 12 -28 26
-42 14 -13 30 -33 34 -45 10 -25 65 -40 84 -22 13 12 12 34 -4 73 -16 42 -27
105 -18 105 5 0 6 10 3 21 -7 21 -5 22 36 15 24 -4 58 -18 77 -32 18 -15 36
-23 39 -20 4 3 14 -1 24 -10 9 -8 23 -17 31 -18 28 -6 54 -21 70 -41 13 -15
17 -16 18 -5 0 9 3 11 8 5 10 -15 83 -69 114 -84 20 -10 48 -12 110 -7 73 6
86 10 106 33 26 31 26 32 3 60 -16 20 -29 23 -85 23 -53 0 -69 4 -83 19 -9 11
-20 18 -24 15 -5 -3 -32 11 -61 30 -29 19 -65 38 -79 41 -15 4 -39 19 -53 34
l-26 28 24 26 c14 15 29 27 33 27 4 0 21 14 37 30 16 17 33 30 38 30 4 0 8 4
8 10 0 5 11 25 24 45 15 21 22 43 19 56 -3 11 0 31 7 44 10 18 10 31 1 55 -6
18 -8 44 -4 58 4 17 2 23 -6 18 -13 -8 -35 40 -25 56 4 7 2 8 -4 4 -7 -4 -12
-1 -12 6 0 8 -27 36 -60 64 -78 65 -165 97 -250 92 -34 -2 -62 1 -64 7 -3 6
-5 4 -5 -3z m147 -127 c17 -4 32 -11 32 -15 0 -4 14 -13 30 -20 17 -7 30 -15
30 -19 0 -4 13 -14 29 -24 35 -21 74 -98 65 -131 -3 -14 -14 -32 -25 -42 -10
-9 -19 -22 -19 -29 0 -15 -60 -69 -123 -112 -40 -28 -57 -33 -105 -33 -32 0
-63 5 -68 10 -7 7 -9 52 -7 122 3 78 1 108 -6 104 -6 -4 -11 -2 -11 3 0 6 -3
10 -7 9 -21 -7 -10 50 21 107 45 84 65 93 164 70z"/>
</g>
</svg>
