<?xml version="1.0" standalone="no"?>
<!DOCTYPE svg PUBLIC "-//W3C//DTD SVG 20010904//EN"
 "http://www.w3.org/TR/2001/REC-SVG-20010904/DTD/svg10.dtd">
<svg version="1.0" xmlns="http://www.w3.org/2000/svg"
 width="125.000000pt" height="81.000000pt" viewBox="0 0 125.000000 81.000000"
 preserveAspectRatio="xMidYMid meet">
<metadata>
Created by potrace 1.16, written by Peter Selinger 2001-2019
</metadata>
<g transform="translate(0.000000,81.000000) scale(0.100000,-0.100000)"
fill="#000000" stroke="none">
<path d="M1079 806 c-3 -3 -73 -8 -155 -11 -82 -2 -183 -9 -224 -15 -41 -6
-196 -13 -345 -16 -148 -3 -284 -9 -302 -15 -23 -7 -33 -18 -38 -40 -11 -48 3
-88 33 -96 46 -13 302 -6 440 13 59 7 68 -2 51 -51 -10 -28 -10 -39 0 -59 8
-14 10 -32 6 -43 -12 -29 -5 -192 12 -268 9 -38 27 -94 40 -122 25 -53 25 -53
64 -47 32 5 39 4 39 -10 0 -20 7 -20 26 -1 9 8 13 19 9 25 -3 5 -8 26 -11 47
-2 20 -8 40 -12 43 -4 3 -13 17 -21 33 -8 15 -18 27 -23 27 -4 0 -8 9 -8 21 0
11 -4 29 -10 39 -5 10 -12 67 -15 127 -3 59 -8 131 -10 159 -6 67 4 75 108 85
45 4 125 12 177 18 52 6 135 11 183 11 80 0 89 2 94 20 3 11 12 21 19 21 8 1
18 2 23 3 36 5 22 56 -21 78 -35 18 -119 34 -129 24z"/>
</g>
</svg>
