<?xml version="1.0" standalone="no"?>
<!DOCTYPE svg PUBLIC "-//W3C//DTD SVG 20010904//EN"
 "http://www.w3.org/TR/2001/REC-SVG-20010904/DTD/svg10.dtd">
<svg version="1.0" xmlns="http://www.w3.org/2000/svg"
 width="69.000000pt" height="75.000000pt" viewBox="0 0 69.000000 75.000000"
 preserveAspectRatio="xMidYMid meet">
<metadata>
Created by potrace 1.16, written by Peter Selinger 2001-2019
</metadata>
<g transform="translate(0.000000,75.000000) scale(0.100000,-0.100000)"
fill="#000000" stroke="none">
<path d="M487 732 c-28 -31 -17 -94 24 -138 20 -22 49 -116 49 -162 0 -16 5
-33 10 -38 11 -11 -3 -135 -18 -159 -11 -19 -79 -75 -90 -75 -6 0 -23 -5 -39
-12 -29 -12 -124 -11 -133 1 -3 4 -29 24 -58 45 -50 36 -82 79 -82 109 0 8 -7
27 -15 43 -9 18 -16 70 -18 134 -3 58 -9 117 -15 133 -10 22 -9 27 4 27 11 0
14 6 8 23 -8 28 -34 58 -45 52 -4 -3 -10 -1 -14 5 -10 17 -25 11 -25 -9 0 -11
-5 -23 -10 -26 -13 -8 -4 -176 19 -337 14 -101 21 -123 49 -163 17 -25 44 -50
58 -55 14 -6 28 -19 31 -29 3 -11 12 -22 21 -25 10 -3 35 -16 57 -29 44 -26
125 -44 125 -27 0 5 11 10 24 10 14 0 28 5 31 10 3 6 16 10 28 10 13 0 40 9
62 20 22 11 43 20 48 20 10 0 51 45 76 85 16 25 21 57 27 181 5 109 4 153 -5
158 -6 4 -11 18 -11 31 0 14 -18 55 -41 92 -69 114 -97 134 -132 95z"/>
</g>
</svg>
