<?xml version="1.0" standalone="no"?>
<!DOCTYPE svg PUBLIC "-//W3C//DTD SVG 20010904//EN"
 "http://www.w3.org/TR/2001/REC-SVG-20010904/DTD/svg10.dtd">
<svg version="1.0" xmlns="http://www.w3.org/2000/svg"
 width="90.000000pt" height="87.000000pt" viewBox="0 0 90.000000 87.000000"
 preserveAspectRatio="xMidYMid meet">
<metadata>
Created by potrace 1.16, written by Peter Selinger 2001-2019
</metadata>
<g transform="translate(0.000000,87.000000) scale(0.100000,-0.100000)"
fill="#000000" stroke="none">
<path d="M819 854 c-31 -16 -114 -97 -161 -156 -37 -47 -65 -118 -78 -200 -5
-29 -16 -80 -25 -113 -9 -33 -21 -82 -27 -110 -6 -27 -21 -65 -33 -82 l-22
-33 -46 50 c-25 27 -54 62 -63 77 -10 16 -26 37 -35 48 -26 29 -79 137 -79
160 0 11 -8 36 -19 55 -10 20 -24 62 -32 95 -7 33 -19 66 -27 74 -7 7 -11 19
-9 25 6 16 -63 18 -78 2 -7 -7 -12 -37 -11 -73 1 -53 -2 -64 -23 -82 -13 -11
-28 -18 -32 -15 -5 3 -9 -8 -9 -24 0 -24 5 -31 24 -34 14 -3 29 -1 34 4 5 5
20 8 33 6 17 -2 25 -12 30 -35 7 -33 23 -73 66 -158 32 -63 58 -96 68 -87 5 4
5 -1 2 -11 -7 -20 132 -192 170 -210 12 -5 23 -14 23 -19 0 -4 9 -8 20 -8 11
0 20 5 20 10 0 6 16 10 36 10 21 0 33 -4 29 -10 -3 -5 -2 -10 4 -10 5 0 13 15
16 32 4 18 13 44 20 58 26 53 44 99 50 134 4 20 10 36 14 36 3 0 7 24 7 53 1
28 6 72 13 97 6 25 14 63 17 85 10 71 68 175 133 240 34 33 61 65 61 73 0 19
-31 62 -44 61 -6 -1 -23 -7 -37 -15z"/>
</g>
</svg>
