<?xml version="1.0" standalone="no"?>
<!DOCTYPE svg PUBLIC "-//W3C//DTD SVG 20010904//EN"
 "http://www.w3.org/TR/2001/REC-SVG-20010904/DTD/svg10.dtd">
<svg version="1.0" xmlns="http://www.w3.org/2000/svg"
 width="104.000000pt" height="74.000000pt" viewBox="0 0 104.000000 74.000000"
 preserveAspectRatio="xMidYMid meet">
<metadata>
Created by potrace 1.16, written by Peter Selinger 2001-2019
</metadata>
<g transform="translate(0.000000,74.000000) scale(0.100000,-0.100000)"
fill="#000000" stroke="none">
<path d="M910 710 c-103 -36 -225 -62 -297 -64 -60 -1 -76 -5 -93 -24 -11 -12
-17 -22 -13 -22 5 0 9 -10 10 -21 2 -24 30 -59 47 -59 19 0 67 -58 77 -92 18
-63 -17 -175 -68 -218 -62 -53 -116 -80 -156 -80 -71 0 -72 2 -69 152 2 130
-15 299 -28 277 -4 -6 -13 3 -20 21 -21 50 -61 64 -96 33 -10 -10 -37 -31 -59
-48 -88 -65 -135 -134 -135 -197 0 -40 36 -80 51 -57 7 12 9 12 9 0 0 -11 3
-11 15 -1 8 7 15 27 15 46 0 23 9 43 34 68 18 20 31 36 27 36 -17 1 27 20 46
20 18 0 22 -7 27 -47 4 -27 4 -82 2 -123 -2 -42 1 -81 6 -88 6 -6 8 -34 6 -60
-5 -46 -3 -50 42 -95 43 -43 50 -46 111 -53 71 -7 117 9 170 60 15 14 29 23
32 20 9 -9 67 70 62 84 -3 7 0 10 5 7 6 -3 10 3 10 14 0 11 8 26 18 33 30 22
43 71 45 172 1 113 7 121 101 152 32 10 69 29 82 41 14 13 31 20 39 16 17 -6
50 20 67 50 7 15 5 24 -13 43 -27 28 -36 29 -109 4z"/>
</g>
</svg>
