<?xml version="1.0" standalone="no"?>
<!DOCTYPE svg PUBLIC "-//W3C//DTD SVG 20010904//EN"
 "http://www.w3.org/TR/2001/REC-SVG-20010904/DTD/svg10.dtd">
<svg version="1.0" xmlns="http://www.w3.org/2000/svg"
 width="146.000000pt" height="79.000000pt" viewBox="0 0 146.000000 79.000000"
 preserveAspectRatio="xMidYMid meet">
<metadata>
Created by potrace 1.16, written by Peter Selinger 2001-2019
</metadata>
<g transform="translate(0.000000,79.000000) scale(0.100000,-0.100000)"
fill="#000000" stroke="none">
<path d="M1373 773 c-13 -2 -23 -9 -23 -14 0 -5 -7 -9 -16 -9 -9 0 -45 -16
-80 -35 -35 -19 -70 -35 -79 -35 -8 0 -15 -4 -15 -10 0 -5 -7 -10 -15 -10 -8
0 -15 -5 -15 -12 0 -9 -3 -9 -12 0 -7 7 -33 12 -59 12 -67 0 -101 -31 -90 -81
5 -20 13 -44 19 -54 5 -10 6 -26 2 -34 -5 -9 -13 -36 -20 -60 -10 -38 -57
-116 -135 -229 -9 -12 -34 -31 -56 -42 -37 -20 -41 -20 -74 -5 -27 14 -35 24
-42 58 -4 23 -6 49 -5 57 1 8 4 33 7 55 9 74 12 90 39 188 22 77 25 101 15
113 -8 10 -8 14 0 14 23 0 10 16 -15 18 -22 2 -24 -1 -18 -20 6 -20 5 -21 -9
-9 -9 7 -15 17 -12 21 3 5 2 11 -3 14 -5 3 -16 -13 -26 -34 -10 -22 -21 -40
-26 -40 -5 0 -15 -18 -21 -40 -7 -22 -15 -40 -19 -40 -4 0 -10 -17 -14 -38 -3
-22 -15 -51 -27 -65 -11 -15 -18 -27 -14 -27 7 0 -21 -53 -48 -90 -40 -54
-130 -140 -148 -140 -26 0 -25 54 2 117 46 105 67 205 72 338 2 49 1 50 -37
68 -33 16 -43 17 -63 6 -19 -10 -26 -10 -32 -1 -5 9 -12 7 -26 -8 -10 -11 -23
-20 -30 -20 -7 0 -28 -16 -48 -35 -21 -20 -37 -33 -37 -30 0 9 -44 -37 -73
-76 -32 -42 -35 -87 -8 -118 16 -19 23 -21 40 -11 24 12 27 26 9 34 -19 7 107
123 160 146 25 11 47 18 49 16 6 -6 -16 -94 -52 -201 -61 -185 -69 -273 -28
-331 16 -23 23 -25 79 -22 41 3 67 9 78 21 10 9 23 17 30 17 6 0 38 27 71 60
33 33 63 60 67 60 4 0 16 -17 27 -38 27 -54 101 -119 151 -132 36 -10 47 -8
85 10 52 25 132 93 140 120 3 10 14 21 23 24 10 3 28 33 41 68 14 35 29 68 34
75 5 7 6 17 2 22 -7 12 21 71 35 71 5 0 10 28 12 63 3 61 4 62 33 65 17 2 44
9 60 17 17 7 56 25 87 39 31 14 60 26 65 26 19 1 94 78 96 98 1 12 6 22 12 22
6 0 6 3 -1 8 -6 4 -13 15 -17 25 -6 17 -12 18 -54 10z"/>
</g>
</svg>
