<?xml version="1.0" standalone="no"?>
<!DOCTYPE svg PUBLIC "-//W3C//DTD SVG 20010904//EN"
 "http://www.w3.org/TR/2001/REC-SVG-20010904/DTD/svg10.dtd">
<svg version="1.0" xmlns="http://www.w3.org/2000/svg"
 width="90.000000pt" height="102.000000pt" viewBox="0 0 90.000000 102.000000"
 preserveAspectRatio="xMidYMid meet">
<metadata>
Created by potrace 1.16, written by Peter Selinger 2001-2019
</metadata>
<g transform="translate(0.000000,102.000000) scale(0.100000,-0.100000)"
fill="#000000" stroke="none">
<path d="M760 1002 c-19 -2 -46 -13 -58 -25 -26 -24 -52 -79 -52 -108 0 -11
-4 -19 -10 -19 -5 0 -10 -13 -10 -28 0 -15 -8 -44 -19 -65 -10 -20 -22 -54
-26 -74 -4 -21 -13 -45 -20 -53 -7 -8 -15 -26 -17 -38 -4 -34 -123 -76 -188
-67 -50 7 -140 65 -140 90 0 8 -4 15 -10 15 -25 0 -87 191 -103 314 -1 10 -11
25 -22 32 -18 12 -24 12 -42 -1 -17 -12 -20 -22 -16 -72 2 -32 8 -71 13 -88 5
-16 11 -54 14 -83 6 -55 57 -178 69 -166 4 4 7 -2 7 -13 0 -28 32 -66 85 -101
37 -25 59 -31 130 -37 92 -7 95 -10 93 -72 -1 -18 -5 -33 -11 -33 -5 0 -7 -7
-3 -15 3 -8 1 -15 -4 -15 -5 0 -12 -10 -15 -22 -4 -13 -17 -33 -28 -45 -11
-13 -17 -23 -14 -23 4 0 0 -11 -8 -24 -12 -18 -13 -30 -6 -50 6 -14 7 -25 3
-25 -36 6 -44 -34 -14 -71 17 -21 20 -22 43 -8 13 9 41 19 61 22 20 4 38 10
40 14 2 4 25 23 51 42 30 21 46 39 42 48 -3 7 -5 22 -5 33 0 12 -13 27 -30 37
-16 9 -30 22 -30 27 0 6 16 30 35 54 19 24 36 53 37 65 0 12 2 26 2 32 2 19
29 64 38 64 4 0 8 6 8 14 0 13 102 114 155 153 28 20 29 22 12 40 -9 11 -17
24 -17 30 0 7 -15 9 -41 6 -39 -6 -41 -5 -30 15 6 11 11 33 11 49 1 15 10 44
20 63 11 19 22 43 26 54 6 16 14 18 58 12 34 -4 46 -2 36 4 -13 8 -13 10 1 10
23 0 30 53 10 78 -17 21 -54 29 -111 24z"/>
</g>
</svg>
