<?xml version="1.0" standalone="no"?>
<!DOCTYPE svg PUBLIC "-//W3C//DTD SVG 20010904//EN"
 "http://www.w3.org/TR/2001/REC-SVG-20010904/DTD/svg10.dtd">
<svg version="1.0" xmlns="http://www.w3.org/2000/svg"
 width="79.000000pt" height="71.000000pt" viewBox="0 0 79.000000 71.000000"
 preserveAspectRatio="xMidYMid meet">
<metadata>
Created by potrace 1.16, written by Peter Selinger 2001-2019
</metadata>
<g transform="translate(0.000000,71.000000) scale(0.100000,-0.100000)"
fill="#000000" stroke="none">
<path d="M360 678 c-19 -5 -40 -14 -46 -19 -13 -11 -161 -14 -187 -4 -9 4 -17
3 -17 -3 0 -6 6 -13 13 -15 6 -3 2 -6 -10 -6 -20 -1 -23 -6 -23 -40 0 -32 3
-39 18 -37 9 2 20 -2 24 -8 5 -7 16 -6 35 5 18 11 35 14 48 9 11 -4 43 -6 70
-5 28 1 53 -2 56 -7 9 -13 -2 -69 -12 -62 -5 3 -9 -1 -9 -8 0 -19 -71 -73 -99
-75 -13 -1 -33 4 -45 12 -11 8 -35 15 -53 15 -17 0 -34 4 -38 10 -3 5 -19 -5
-35 -21 -20 -22 -27 -36 -22 -50 11 -28 72 -90 83 -83 15 9 10 -13 -6 -30 -18
-18 -39 -66 -36 -83 1 -7 -3 -13 -9 -13 -5 0 -10 -16 -10 -35 0 -26 7 -43 26
-60 33 -30 65 -40 186 -56 99 -13 128 -9 293 32 95 25 148 30 157 17 6 -11 8
-11 8 0 0 7 11 24 25 38 14 14 25 37 25 52 0 15 3 37 6 49 4 14 2 23 -5 23 -7
0 -10 -4 -7 -9 7 -10 -94 -26 -187 -30 -21 0 -36 -5 -32 -10 19 -31 -297 -58
-332 -29 -21 17 -15 34 27 72 38 34 43 36 113 36 40 0 77 4 82 9 6 6 37 14 70
19 32 5 61 15 63 21 2 6 14 11 26 11 12 0 35 14 51 30 28 29 29 32 15 57 -13
23 -60 41 -60 24 0 -3 -15 -6 -32 -6 -18 -1 -52 -4 -75 -9 -40 -7 -43 -6 -49
19 -4 15 -1 38 6 53 7 15 17 37 23 49 15 32 0 113 -25 140 -23 25 -35 26 -88
11z"/>
</g>
</svg>
