<?xml version="1.0" standalone="no"?>
<!DOCTYPE svg PUBLIC "-//W3C//DTD SVG 20010904//EN"
 "http://www.w3.org/TR/2001/REC-SVG-20010904/DTD/svg10.dtd">
<svg version="1.0" xmlns="http://www.w3.org/2000/svg"
 width="114.000000pt" height="63.000000pt" viewBox="0 0 114.000000 63.000000"
 preserveAspectRatio="xMidYMid meet">
<metadata>
Created by potrace 1.16, written by Peter Selinger 2001-2019
</metadata>
<g transform="translate(0.000000,63.000000) scale(0.100000,-0.100000)"
fill="#000000" stroke="none">
<path d="M290 611 c0 -5 -19 -19 -42 -31 -53 -27 -113 -83 -140 -132 -12 -21
-25 -38 -30 -38 -4 0 -8 -8 -8 -18 0 -10 -11 -33 -24 -50 -19 -26 -25 -51 -31
-118 l-7 -84 39 -51 c48 -63 90 -83 160 -74 28 3 57 13 64 21 6 8 17 14 25 14
27 0 91 45 147 103 55 57 59 59 82 47 15 -8 25 -22 25 -36 0 -13 9 -30 21 -38
12 -8 18 -19 15 -24 -8 -13 48 -61 77 -66 12 -3 33 -7 47 -10 42 -9 185 19
243 48 30 14 60 26 66 26 7 0 25 8 39 18 15 9 36 22 47 28 24 13 38 59 22 73
-16 12 -117 -6 -138 -25 -8 -8 -27 -14 -40 -14 -14 0 -30 -5 -36 -11 -18 -18
-209 -25 -228 -9 -31 26 -52 151 -36 222 12 54 0 78 -39 78 -20 0 -35 -8 -47
-26 -41 -58 -186 -214 -206 -220 -12 -4 -42 -24 -67 -45 -34 -28 -58 -40 -92
-44 -44 -5 -46 -4 -67 30 -25 43 -26 55 -4 103 9 20 16 40 15 43 -1 4 10 19
23 33 14 15 25 31 25 36 0 5 29 38 65 74 49 50 71 66 92 66 33 -1 63 -21 63
-42 0 -9 8 -26 18 -38 14 -18 25 -22 45 -16 29 7 34 27 18 70 -7 17 -7 26 2
29 7 2 -7 22 -33 45 -50 48 -45 45 -71 32 -15 -8 -19 -7 -19 3 0 15 -29 27
-62 27 -10 0 -18 -4 -18 -9z"/>
</g>
</svg>
