<?xml version="1.0" standalone="no"?>
<!DOCTYPE svg PUBLIC "-//W3C//DTD SVG 20010904//EN"
 "http://www.w3.org/TR/2001/REC-SVG-20010904/DTD/svg10.dtd">
<svg version="1.0" xmlns="http://www.w3.org/2000/svg"
 width="79.000000pt" height="97.000000pt" viewBox="0 0 79.000000 97.000000"
 preserveAspectRatio="xMidYMid meet">
<metadata>
Created by potrace 1.16, written by Peter Selinger 2001-2019
</metadata>
<g transform="translate(0.000000,97.000000) scale(0.100000,-0.100000)"
fill="#000000" stroke="none">
<path d="M258 927 c-53 -40 -128 -149 -128 -186 0 -18 -7 -29 -23 -36 -13 -6
-23 -21 -25 -37 -2 -16 -19 -43 -40 -63 -35 -32 -38 -39 -40 -101 -2 -46 1
-69 9 -75 10 -6 10 -11 0 -23 -8 -9 -10 -23 -6 -33 4 -10 8 -54 9 -99 2 -44 7
-87 12 -95 5 -8 9 -36 9 -64 0 -53 21 -115 37 -115 6 0 5 7 -2 15 -7 8 -11 15
-9 16 53 8 79 7 73 -4 -5 -9 -4 -9 6 0 11 10 10 18 -3 45 -9 18 -13 35 -9 38
11 8 7 71 -7 112 -8 24 -9 43 -3 55 9 18 7 65 -5 93 -10 24 -11 64 -1 77 5 6
8 20 7 30 -1 10 0 25 3 33 3 8 11 35 18 60 6 25 16 53 21 62 5 10 9 31 9 46 0
20 13 42 41 71 22 24 38 49 35 57 -3 8 0 11 8 8 7 -3 16 2 19 10 3 8 24 20 46
26 45 12 94 -2 121 -34 8 -10 24 -22 36 -26 40 -16 118 -121 138 -187 10 -34
16 -69 13 -77 -7 -19 -69 -21 -310 -14 -95 3 -117 -8 -117 -61 0 -51 2 -51
263 -51 171 0 187 -2 187 -18 0 -13 -2 -14 -9 -4 -5 8 -10 -29 -14 -90 -4 -64
-3 -104 3 -106 16 -6 12 -34 -10 -70 -22 -35 -26 -87 -9 -98 12 -7 92 16 84
24 -2 3 3 11 12 17 18 14 20 24 27 253 4 91 8 127 19 135 15 13 12 97 -4 97
-15 0 -41 72 -30 83 11 11 -13 67 -29 67 -6 0 -10 6 -10 13 0 8 -9 22 -20 32
-11 10 -20 26 -20 37 0 10 -6 18 -14 18 -8 0 -16 3 -18 8 -1 4 -15 14 -30 22
-15 8 -37 30 -50 49 -13 19 -41 43 -63 55 -22 11 -41 24 -43 28 -2 4 -30 8
-62 8 -51 0 -64 -4 -102 -33z"/>
</g>
</svg>
