<?xml version="1.0" standalone="no"?>
<!DOCTYPE svg PUBLIC "-//W3C//DTD SVG 20010904//EN"
 "http://www.w3.org/TR/2001/REC-SVG-20010904/DTD/svg10.dtd">
<svg version="1.0" xmlns="http://www.w3.org/2000/svg"
 width="92.000000pt" height="111.000000pt" viewBox="0 0 92.000000 111.000000"
 preserveAspectRatio="xMidYMid meet">
<metadata>
Created by potrace 1.16, written by Peter Selinger 2001-2019
</metadata>
<g transform="translate(0.000000,111.000000) scale(0.100000,-0.100000)"
fill="#000000" stroke="none">
<path d="M271 1093 c-18 -3 -50 -15 -70 -27 -20 -13 -50 -26 -66 -30 -17 -4
-45 -20 -62 -36 -18 -17 -36 -30 -41 -30 -12 0 -22 -32 -28 -85 -7 -61 18 -86
92 -94 56 -6 59 -7 56 -31 -5 -41 -4 -143 2 -169 3 -14 1 -30 -5 -37 -12 -15
6 -58 22 -49 5 4 9 1 9 -5 0 -7 -6 -10 -14 -7 -14 6 -32 -21 -21 -31 3 -3 5 0
5 6 0 6 7 9 16 5 14 -5 13 -9 -6 -23 -17 -13 -21 -24 -17 -40 4 -17 -5 -33
-41 -69 -102 -102 -120 -140 -89 -192 9 -17 9 -23 0 -26 -21 -8 73 -80 127
-98 75 -25 273 -10 336 26 18 10 50 21 71 25 47 9 234 103 247 124 16 25 80
85 99 93 22 8 24 89 2 107 -8 7 -15 21 -15 32 0 33 -91 108 -131 108 -14 0
-33 6 -44 14 -11 7 -42 16 -69 18 -26 3 -55 13 -64 22 -15 15 -13 19 21 54 20
21 37 41 37 45 0 10 42 70 55 79 12 9 15 48 4 48 -5 0 -4 12 2 27 5 14 7 34 3
42 -3 9 -8 27 -10 41 -5 41 -54 119 -83 134 -52 27 -222 42 -330 29z m230
-115 c19 -6 46 -19 61 -30 23 -16 25 -22 18 -48 -5 -17 -16 -44 -24 -62 -9
-17 -16 -38 -16 -47 0 -9 -10 -28 -23 -43 -12 -15 -34 -42 -49 -61 -16 -20
-40 -38 -57 -42 -17 -3 -41 -15 -53 -25 -21 -16 -27 -17 -56 -4 -18 7 -35 21
-38 31 -3 10 -12 32 -21 50 -9 18 -13 39 -9 48 11 30 -20 59 -64 60 -44 1 -54
8 -65 43 -5 17 2 31 33 63 22 22 46 39 54 38 7 -1 20 0 28 4 8 3 26 8 40 11
14 3 41 9 60 14 50 14 141 14 181 0z m-171 -452 c0 -15 45 -27 145 -41 28 -4
55 -10 60 -14 6 -3 21 -7 35 -8 124 -9 219 -45 221 -83 0 -10 3 -9 8 4 6 15
10 16 15 7 18 -28 -135 -147 -234 -181 -36 -13 -74 -29 -85 -36 -48 -30 -146
-54 -224 -54 -44 0 -81 3 -83 8 -1 4 -16 14 -33 22 -27 14 -30 20 -27 55 4 49
16 59 92 75 34 7 60 18 60 25 0 7 7 18 15 25 21 18 19 33 -4 25 -24 -7 -37 11
-21 30 7 8 9 31 4 63 -5 43 -3 53 15 71 24 24 41 27 41 7z m-150 -156 c0 -5
-2 -10 -4 -10 -2 0 -12 -3 -22 -7 -16 -6 -17 -5 -4 10 17 19 30 22 30 7z"/>
</g>
</svg>
