<?xml version="1.0" standalone="no"?>
<!DOCTYPE svg PUBLIC "-//W3C//DTD SVG 20010904//EN"
 "http://www.w3.org/TR/2001/REC-SVG-20010904/DTD/svg10.dtd">
<svg version="1.0" xmlns="http://www.w3.org/2000/svg"
 width="70.000000pt" height="93.000000pt" viewBox="0 0 70.000000 93.000000"
 preserveAspectRatio="xMidYMid meet">
<metadata>
Created by potrace 1.16, written by Peter Selinger 2001-2019
</metadata>
<g transform="translate(0.000000,93.000000) scale(0.100000,-0.100000)"
fill="#000000" stroke="none">
<path d="M83 898 c-6 -7 -11 -22 -11 -33 -1 -38 20 -190 29 -210 5 -11 10 -65
12 -120 2 -55 8 -116 14 -135 7 -25 7 -39 -1 -46 -76 -75 -108 -130 -113 -198
-5 -56 -3 -65 18 -87 44 -47 83 -59 177 -54 48 2 112 11 142 20 66 21 217 96
245 122 11 10 27 22 36 25 18 7 50 116 46 158 -1 14 -14 37 -29 53 -16 15 -28
31 -28 36 0 13 -47 41 -69 41 -11 0 -37 9 -57 21 -34 19 -94 24 -213 18 -34
-2 -53 23 -63 83 -5 29 -11 69 -15 88 -3 19 -10 40 -15 47 -5 7 -7 17 -4 22 4
5 2 12 -3 16 -6 3 -13 26 -17 50 -4 28 -14 51 -26 59 -11 8 -17 19 -13 25 9
15 -30 14 -42 -1z m228 -503 c54 12 146 7 171 -8 13 -8 38 -18 57 -22 21 -5
29 -10 21 -15 -8 -5 -7 -9 4 -13 12 -5 15 -14 10 -33 -12 -46 -112 -134 -153
-134 -12 0 -24 -7 -27 -15 -4 -9 -11 -15 -18 -14 -6 1 -24 -3 -41 -10 -35 -15
-222 -24 -230 -12 -13 22 52 128 119 194 16 16 25 34 22 43 -7 19 16 58 25 43
4 -7 19 -8 40 -4z"/>
</g>
</svg>
