<?xml version="1.0" standalone="no"?>
<!DOCTYPE svg PUBLIC "-//W3C//DTD SVG 20010904//EN"
 "http://www.w3.org/TR/2001/REC-SVG-20010904/DTD/svg10.dtd">
<svg version="1.0" xmlns="http://www.w3.org/2000/svg"
 width="76.000000pt" height="66.000000pt" viewBox="0 0 76.000000 66.000000"
 preserveAspectRatio="xMidYMid meet">
<metadata>
Created by potrace 1.16, written by Peter Selinger 2001-2019
</metadata>
<g transform="translate(0.000000,66.000000) scale(0.100000,-0.100000)"
fill="#000000" stroke="none">
<path d="M163 629 c-72 -28 -105 -66 -137 -158 -27 -76 -27 -80 -14 -162 l13
-83 65 -66 c100 -101 126 -119 192 -136 70 -18 158 -13 196 12 12 8 27 12 32
9 6 -3 10 -2 10 3 0 9 47 36 65 37 6 0 26 13 46 28 20 15 43 27 51 27 21 0 55
40 62 75 6 26 3 32 -23 43 -24 11 -38 11 -73 1 -24 -7 -45 -16 -48 -19 -9 -11
-114 -61 -169 -81 -76 -27 -121 -24 -185 10 -30 16 -56 28 -59 25 -2 -2 -10 3
-18 13 -9 11 -10 14 -1 9 24 -15 11 17 -19 45 -18 17 -29 35 -26 44 4 8 2 17
-3 20 -15 9 -4 85 19 136 29 64 52 83 94 75 35 -7 44 -19 63 -86 21 -76 82
-64 78 15 -1 22 -3 48 -3 58 -1 10 -5 15 -11 12 -9 -6 -14 10 -13 42 0 6 -6 9
-15 6 -10 -4 -13 -2 -8 5 12 19 -10 45 -40 48 -16 2 -38 5 -49 8 -11 2 -43 -4
-72 -15z m152 -19 c3 -6 -1 -7 -9 -4 -18 7 -21 14 -7 14 6 0 13 -4 16 -10z
m-180 -358 c-3 -3 -11 0 -18 7 -9 10 -8 11 6 5 10 -3 15 -9 12 -12z"/>
</g>
</svg>
