<?xml version="1.0" standalone="no"?>
<!DOCTYPE svg PUBLIC "-//W3C//DTD SVG 20010904//EN"
 "http://www.w3.org/TR/2001/REC-SVG-20010904/DTD/svg10.dtd">
<svg version="1.0" xmlns="http://www.w3.org/2000/svg"
 width="60.000000pt" height="66.000000pt" viewBox="0 0 60.000000 66.000000"
 preserveAspectRatio="xMidYMid meet">
<metadata>
Created by potrace 1.16, written by Peter Selinger 2001-2019
</metadata>
<g transform="translate(0.000000,66.000000) scale(0.100000,-0.100000)"
fill="#000000" stroke="none">
<path d="M200 640 c0 -5 -11 -10 -24 -10 -44 0 -118 -85 -140 -163 -13 -48
-30 -149 -28 -172 2 -15 20 -125 28 -161 24 -120 302 -183 399 -91 11 10 48
39 83 64 46 34 62 51 62 69 0 13 -5 24 -11 24 -5 0 -7 5 -3 12 4 6 3 8 -4 4
-6 -3 -14 -1 -17 4 -11 17 -62 2 -141 -41 -68 -38 -74 -39 -165 -38 -52 0 -88
3 -81 6 20 8 14 17 -23 37 -42 23 -49 45 -43 138 4 50 12 78 27 98 11 16 21
35 21 43 0 7 16 30 35 50 28 29 42 37 70 37 25 0 38 -5 42 -17 4 -10 15 -29
25 -42 10 -13 15 -27 12 -32 -3 -5 1 -9 10 -9 8 0 16 -5 18 -12 3 -7 14 -9 34
-3 25 6 27 8 9 14 -17 7 -17 9 -3 17 19 11 33 70 19 79 -6 3 -11 0 -11 -7 0
-7 -8 -1 -18 15 -23 34 -64 73 -74 70 -5 -2 -8 1 -8 6 0 15 -30 21 -51 11 -13
-7 -19 -7 -19 0 0 5 -7 10 -15 10 -8 0 -15 -4 -15 -10z"/>
</g>
</svg>
