<?xml version="1.0" standalone="no"?>
<!DOCTYPE svg PUBLIC "-//W3C//DTD SVG 20010904//EN"
 "http://www.w3.org/TR/2001/REC-SVG-20010904/DTD/svg10.dtd">
<svg version="1.0" xmlns="http://www.w3.org/2000/svg"
 width="92.000000pt" height="85.000000pt" viewBox="0 0 92.000000 85.000000"
 preserveAspectRatio="xMidYMid meet">
<metadata>
Created by potrace 1.16, written by Peter Selinger 2001-2019
</metadata>
<g transform="translate(0.000000,85.000000) scale(0.100000,-0.100000)"
fill="#000000" stroke="none">
<path d="M362 824 c-26 -25 -28 -30 -21 -83 3 -31 16 -74 28 -96 36 -68 32
-73 -60 -74 -51 -1 -91 -6 -107 -15 -15 -8 -38 -20 -52 -26 -41 -19 -58 -40
-97 -119 -46 -96 -54 -169 -25 -229 12 -24 16 -44 10 -50 -5 -5 7 -20 32 -37
22 -15 40 -31 40 -35 0 -3 18 -17 41 -29 35 -20 51 -23 128 -19 88 3 89 3 148
50 l61 47 44 -29 c58 -39 119 -47 190 -26 56 16 74 24 140 64 40 25 55 62 36
92 -15 23 -60 27 -80 6 -8 -7 -33 -17 -56 -21 -23 -4 -44 -11 -48 -16 -3 -5
-30 -8 -59 -7 -41 2 -51 5 -44 14 7 9 5 15 -5 21 -18 10 -46 84 -46 123 0 49
-32 171 -46 177 -8 3 -14 17 -14 33 0 15 -9 37 -19 49 -11 13 -23 35 -26 51
-3 16 -13 31 -21 34 -17 7 -19 36 -1 36 7 1 4 8 -8 18 -15 13 -20 29 -20 65 1
27 -3 50 -7 53 -4 3 -20 -7 -36 -22z m32 -20 c3 -8 2 -12 -4 -9 -6 3 -10 10
-10 16 0 14 7 11 14 -7z m-64 -354 c13 -11 37 -20 54 -20 27 0 34 -6 49 -40
16 -39 21 -120 6 -120 -4 0 -10 -11 -13 -24 -3 -13 -25 -45 -49 -71 -40 -45
-47 -48 -100 -53 -47 -4 -62 -1 -80 14 -12 11 -39 28 -59 38 -42 21 -43 28
-20 131 16 69 47 114 108 152 29 18 78 15 104 -7z"/>
</g>
</svg>
