<?xml version="1.0" standalone="no"?>
<!DOCTYPE svg PUBLIC "-//W3C//DTD SVG 20010904//EN"
 "http://www.w3.org/TR/2001/REC-SVG-20010904/DTD/svg10.dtd">
<svg version="1.0" xmlns="http://www.w3.org/2000/svg"
 width="79.000000pt" height="85.000000pt" viewBox="0 0 79.000000 85.000000"
 preserveAspectRatio="xMidYMid meet">
<metadata>
Created by potrace 1.16, written by Peter Selinger 2001-2019
</metadata>
<g transform="translate(0.000000,85.000000) scale(0.100000,-0.100000)"
fill="#000000" stroke="none">
<path d="M182 832 c-47 -15 -83 -127 -50 -160 18 -18 75 -15 82 4 4 9 8 15 11
13 9 -10 37 -264 40 -369 3 -110 4 -115 30 -137 43 -38 96 -25 96 24 0 37 -14
109 -28 136 -8 16 -9 27 -3 27 5 0 10 -5 10 -12 0 -9 3 -9 12 0 9 9 7 17 -10
33 -19 17 -22 27 -16 68 4 31 2 51 -5 55 -6 4 -11 16 -11 27 0 11 -5 17 -10
14 -7 -4 -9 11 -7 42 3 33 -1 54 -11 66 -13 14 -13 17 -1 17 12 0 12 2 0 9
-22 14 4 43 27 31 10 -4 35 -16 57 -26 60 -26 110 -66 157 -125 65 -82 86
-130 94 -218 l6 -78 -37 -36 c-21 -20 -56 -45 -79 -56 -59 -28 -228 -61 -314
-61 -69 0 -76 2 -104 31 -25 24 -36 29 -59 24 -15 -4 -32 -12 -38 -19 -16 -19
-26 -96 -12 -96 6 0 11 -6 11 -13 0 -16 110 -37 192 -36 120 0 352 43 406 74
15 9 45 26 67 39 27 14 47 36 62 66 19 40 21 56 16 135 -3 50 -9 94 -14 100
-5 5 -9 19 -9 31 0 12 -7 27 -15 34 -8 7 -15 20 -15 29 0 48 -184 260 -227
261 -12 0 -23 3 -25 8 -1 4 -19 16 -38 26 -37 20 -192 32 -238 18z"/>
</g>
</svg>
