<?xml version="1.0" standalone="no"?>
<!DOCTYPE svg PUBLIC "-//W3C//DTD SVG 20010904//EN"
 "http://www.w3.org/TR/2001/REC-SVG-20010904/DTD/svg10.dtd">
<svg version="1.0" xmlns="http://www.w3.org/2000/svg"
 width="77.000000pt" height="68.000000pt" viewBox="0 0 77.000000 68.000000"
 preserveAspectRatio="xMidYMid meet">
<metadata>
Created by potrace 1.16, written by Peter Selinger 2001-2019
</metadata>
<g transform="translate(0.000000,68.000000) scale(0.100000,-0.100000)"
fill="#000000" stroke="none">
<path d="M158 653 c-36 -6 -83 -53 -109 -110 -28 -61 -56 -240 -41 -263 6 -9
13 -38 17 -64 4 -25 11 -46 15 -46 5 0 12 -10 15 -22 4 -13 34 -48 66 -79 57
-54 60 -56 128 -62 73 -7 158 0 167 14 3 5 15 9 26 9 51 0 328 169 328 200 0
5 -10 18 -22 30 -31 28 -72 26 -104 -7 -15 -15 -37 -28 -48 -29 -27 -2 -52
-12 -96 -39 -19 -12 -60 -31 -91 -42 -47 -18 -67 -20 -120 -13 -35 4 -67 5
-71 3 -5 -2 -8 9 -8 26 0 30 32 62 66 67 8 1 42 28 76 59 35 31 72 61 83 65
11 5 15 9 8 9 -8 1 -9 10 -2 33 15 53 12 98 -6 92 -10 -4 -15 0 -15 10 0 20
-21 58 -37 69 -7 4 -13 12 -13 18 0 5 -15 23 -32 39 -23 21 -40 28 -55 25 -12
-3 -25 -1 -28 5 -6 10 -44 11 -97 3z m116 -94 c35 -17 46 -30 55 -59 6 -21 11
-47 11 -58 0 -25 -60 -83 -133 -129 -90 -57 -108 -44 -96 72 4 44 13 81 18 83
6 2 11 16 11 32 0 32 30 59 87 79 1 1 22 -9 47 -20z"/>
</g>
</svg>
