<?xml version="1.0" standalone="no"?>
<!DOCTYPE svg PUBLIC "-//W3C//DTD SVG 20010904//EN"
 "http://www.w3.org/TR/2001/REC-SVG-20010904/DTD/svg10.dtd">
<svg version="1.0" xmlns="http://www.w3.org/2000/svg"
 width="74.000000pt" height="80.000000pt" viewBox="0 0 74.000000 80.000000"
 preserveAspectRatio="xMidYMid meet">
<metadata>
Created by potrace 1.16, written by Peter Selinger 2001-2019
</metadata>
<g transform="translate(0.000000,80.000000) scale(0.100000,-0.100000)"
fill="#000000" stroke="none">
<path d="M362 776 c-79 -6 -140 -14 -136 -18 7 -8 1 -9 -88 -13 -47 -3 -112
-34 -120 -58 -10 -27 -9 -126 2 -202 9 -59 9 -117 2 -218 -10 -125 -9 -142 7
-170 25 -46 109 -86 186 -88 90 -3 211 10 290 31 39 10 91 22 117 25 27 4 49
13 52 22 4 9 13 13 22 9 8 -3 12 -2 9 4 -3 6 1 10 9 10 12 0 13 6 6 31 -18 62
-92 84 -163 47 -75 -38 -358 -71 -411 -47 -46 21 -40 154 7 163 43 8 107 4
107 -8 0 -6 4 -6 9 3 6 10 27 12 80 9 39 -2 72 0 74 5 1 4 30 9 64 10 33 1 61
4 60 7 0 3 5 18 11 33 10 24 9 32 -6 52 -18 26 -8 25 -193 10 -33 -3 -58 -1
-55 3 2 4 -36 5 -84 2 -49 -3 -88 -3 -87 0 1 3 -7 17 -16 32 -10 14 -21 51
-24 81 -5 47 -3 56 14 65 23 13 125 18 142 7 7 -4 16 -3 20 3 7 11 79 23 171
26 36 2 83 6 105 9 22 4 56 3 75 -1 28 -7 41 -4 63 12 27 20 36 49 17 61 -5 3
-10 14 -10 24 0 42 -61 47 -328 27z"/>
<path d="M518 23 c7 -3 16 -2 19 1 4 3 -2 6 -13 5 -11 0 -14 -3 -6 -6z"/>
</g>
</svg>
