<?xml version="1.0" standalone="no"?>
<!DOCTYPE svg PUBLIC "-//W3C//DTD SVG 20010904//EN"
 "http://www.w3.org/TR/2001/REC-SVG-20010904/DTD/svg10.dtd">
<svg version="1.0" xmlns="http://www.w3.org/2000/svg"
 width="48.000000pt" height="139.000000pt" viewBox="0 0 48.000000 139.000000"
 preserveAspectRatio="xMidYMid meet">
<metadata>
Created by potrace 1.16, written by Peter Selinger 2001-2019
</metadata>
<g transform="translate(0.000000,139.000000) scale(0.100000,-0.100000)"
fill="#000000" stroke="none">
<path d="M79 1333 c-16 -19 -17 -122 -1 -132 6 -3 23 -40 38 -81 15 -41 32
-82 39 -90 6 -8 17 -35 24 -60 7 -25 17 -53 23 -63 7 -14 5 -24 -8 -38 -21
-23 -43 -25 -51 -3 -4 11 -8 12 -13 4 -5 -8 -11 4 -15 28 -7 45 -38 88 -55 77
-5 -3 -17 -20 -26 -37 -15 -28 -15 -35 0 -82 9 -28 27 -65 40 -81 22 -28 30
-30 91 -32 37 -1 71 -5 75 -10 9 -10 27 -83 34 -140 3 -23 8 -48 12 -56 6 -16
-43 -43 -98 -54 -18 -3 -46 -15 -61 -25 -30 -21 -58 -77 -47 -93 3 -5 7 -40 8
-77 1 -49 8 -80 26 -115 13 -26 30 -61 37 -78 8 -16 16 -32 19 -35 3 -3 10
-14 16 -25 6 -11 15 -20 20 -21 5 0 17 -4 28 -9 11 -5 25 -4 35 3 9 6 42 26
73 43 79 44 89 68 83 206 -2 60 -7 116 -10 124 -3 9 7 27 25 44 16 16 30 36
30 45 0 21 -26 45 -63 59 -17 7 -27 18 -27 31 0 12 -4 19 -9 15 -5 -3 -12 -1
-16 5 -3 5 1 10 9 10 9 0 16 5 16 11 0 5 -4 8 -9 5 -5 -3 -11 20 -14 52 -4 31
-9 81 -13 110 -6 49 -4 56 32 110 60 89 72 121 66 180 -2 29 -9 52 -14 52 -5
0 -6 4 -3 10 3 5 0 7 -8 4 -10 -3 -17 4 -21 21 -4 15 -21 40 -38 56 -18 15
-33 38 -35 51 -5 30 -12 35 -23 18 -8 -12 -10 -10 -10 9 0 19 -4 22 -21 18
-15 -4 -19 -2 -15 9 6 16 -5 19 -21 3 -7 -7 -15 -5 -27 6 -16 17 -67 35 -97
35 -9 0 -23 -7 -30 -17z m177 -113 c8 0 14 -7 14 -15 0 -8 18 -33 40 -57 47
-51 53 -99 19 -154 -22 -37 -49 -45 -49 -16 0 10 -11 33 -24 51 -14 18 -22 39
-19 47 3 8 -4 30 -16 49 -31 54 -27 113 7 100 7 -3 20 -5 28 -5z m48 -842 c22
-85 25 -111 15 -165 -13 -74 -19 -96 -26 -89 -3 3 -14 1 -23 -4 -13 -7 -25 -4
-44 11 -14 11 -24 24 -21 29 3 5 -1 14 -8 22 -22 21 -37 77 -30 111 3 18 17
47 30 65 20 27 31 32 64 32 23 0 41 -5 43 -12z"/>
</g>
</svg>
