<?xml version="1.0" standalone="no"?>
<!DOCTYPE svg PUBLIC "-//W3C//DTD SVG 20010904//EN"
 "http://www.w3.org/TR/2001/REC-SVG-20010904/DTD/svg10.dtd">
<svg version="1.0" xmlns="http://www.w3.org/2000/svg"
 width="97.000000pt" height="81.000000pt" viewBox="0 0 97.000000 81.000000"
 preserveAspectRatio="xMidYMid meet">
<metadata>
Created by potrace 1.16, written by Peter Selinger 2001-2019
</metadata>
<g transform="translate(0.000000,81.000000) scale(0.100000,-0.100000)"
fill="#000000" stroke="none">
<path d="M885 796 c-22 -6 -62 -28 -88 -48 -38 -29 -55 -36 -78 -33 -16 3 -43
7 -60 10 -18 3 -37 1 -44 -5 -7 -6 -31 -6 -66 0 -354 63 -474 75 -490 48 -20
-31 -9 -81 26 -124 19 -23 35 -47 35 -52 0 -5 17 -25 38 -44 34 -31 37 -38 37
-86 l0 -52 -73 0 c-97 0 -112 -9 -112 -65 0 -58 7 -62 126 -72 77 -6 86 -20
86 -129 0 -91 15 -124 54 -124 14 0 32 7 41 16 23 22 35 99 27 173 -7 69 -1
81 47 81 15 0 29 7 33 15 3 9 18 15 39 15 35 0 60 19 71 56 12 38 -17 49 -122
46 -60 -2 -99 1 -108 9 -9 7 -14 32 -14 70 0 32 -5 70 -12 84 -6 14 -9 28 -5
31 3 4 50 1 104 -5 270 -30 373 -25 468 26 55 29 120 97 109 115 -5 7 -9 18
-10 23 0 6 -2 16 -2 23 -2 14 -2 14 -57 -2z"/>
</g>
</svg>
