<?xml version="1.0" standalone="no"?>
<!DOCTYPE svg PUBLIC "-//W3C//DTD SVG 20010904//EN"
 "http://www.w3.org/TR/2001/REC-SVG-20010904/DTD/svg10.dtd">
<svg version="1.0" xmlns="http://www.w3.org/2000/svg"
 width="89.000000pt" height="92.000000pt" viewBox="0 0 89.000000 92.000000"
 preserveAspectRatio="xMidYMid meet">
<metadata>
Created by potrace 1.16, written by Peter Selinger 2001-2019
</metadata>
<g transform="translate(0.000000,92.000000) scale(0.100000,-0.100000)"
fill="#000000" stroke="none">
<path d="M406 908 c-22 -4 -44 -12 -50 -17 -6 -5 -26 -12 -44 -16 -86 -18
-271 -261 -272 -357 0 -9 -5 -18 -10 -20 -27 -9 -23 -198 4 -198 8 0 11 -10 8
-29 -2 -16 1 -32 7 -35 7 -5 8 -1 4 10 -9 25 19 12 33 -14 15 -29 68 -75 72
-61 4 11 41 -10 77 -43 11 -10 31 -21 45 -24 14 -3 41 -12 60 -19 19 -8 54
-20 78 -26 26 -8 42 -18 43 -28 0 -10 2 -11 6 -4 5 13 83 8 114 -8 23 -12 90
25 117 64 27 40 30 118 7 193 -23 78 -22 80 44 93 33 6 70 9 83 6 38 -10 52
31 31 87 l-15 43 -127 1 c-71 1 -156 8 -196 16 -80 18 -96 11 -101 -48 -2 -30
2 -38 34 -58 49 -31 98 -85 107 -116 3 -14 13 -40 21 -58 9 -18 14 -47 12 -65
l-3 -32 -77 0 c-42 1 -88 6 -102 13 -37 17 -64 28 -121 48 -111 39 -195 119
-195 185 0 58 63 197 110 243 22 21 40 42 40 47 0 15 53 63 105 96 59 36 109
49 139 35 11 -6 29 -13 39 -16 10 -3 17 -15 17 -29 0 -22 6 -25 48 -30 68 -8
95 11 86 61 -8 43 -36 78 -79 97 -39 17 -149 25 -199 13z"/>
</g>
</svg>
