<?xml version="1.0" standalone="no"?>
<!DOCTYPE svg PUBLIC "-//W3C//DTD SVG 20010904//EN"
 "http://www.w3.org/TR/2001/REC-SVG-20010904/DTD/svg10.dtd">
<svg version="1.0" xmlns="http://www.w3.org/2000/svg"
 width="58.000000pt" height="126.000000pt" viewBox="0 0 58.000000 126.000000"
 preserveAspectRatio="xMidYMid meet">
<metadata>
Created by potrace 1.16, written by Peter Selinger 2001-2019
</metadata>
<g transform="translate(0.000000,126.000000) scale(0.100000,-0.100000)"
fill="#000000" stroke="none">
<path d="M433 1242 c22 -24 22 -35 0 -24 -41 21 -85 7 -131 -42 -35 -38 -42
-50 -31 -57 11 -7 10 -9 -4 -9 -12 0 -23 -12 -30 -30 -6 -16 -15 -30 -19 -30
-4 0 -8 -9 -8 -20 0 -11 -9 -53 -20 -92 -24 -87 -25 -114 -4 -184 27 -93 90
-119 162 -67 24 18 49 30 57 27 7 -3 15 3 18 13 4 14 3 -45 -2 -108 -1 -4 -16
-12 -33 -20 -18 -7 -45 -20 -59 -30 -14 -10 -37 -21 -52 -24 -15 -4 -27 -11
-27 -15 0 -4 -12 -11 -27 -14 -14 -4 -44 -22 -67 -40 -23 -18 -47 -31 -55 -28
-10 3 -12 0 -8 -11 4 -10 -4 -24 -21 -39 -41 -35 -66 -116 -57 -185 7 -54 59
-173 77 -173 4 0 8 -6 8 -14 0 -17 57 -27 121 -19 45 5 55 11 94 57 25 28 45
59 45 69 0 10 5 15 10 12 6 -3 10 1 10 10 0 15 24 75 52 133 6 12 15 22 20 22
4 0 8 11 8 25 0 14 5 25 10 25 6 0 10 9 10 19 0 11 5 23 10 26 6 3 10 21 10
40 0 19 5 37 10 40 6 3 10 15 10 26 0 10 4 19 8 19 5 0 15 18 22 40 11 32 11
42 0 55 -10 12 -12 50 -8 158 3 78 2 153 -2 167 -4 15 1 41 12 67 25 56 16 88
-39 141 -24 24 -50 57 -58 73 -9 16 -21 29 -27 29 -6 0 -4 -8 5 -18z m-9 -178
c10 -74 6 -117 -12 -149 -37 -64 -87 -125 -103 -125 -10 0 -24 -3 -33 -6 -26
-10 -20 58 9 116 14 27 25 59 25 71 0 24 79 138 96 138 6 1 14 -20 18 -45z
m-44 -611 c0 -10 -8 -31 -18 -48 -10 -16 -29 -61 -42 -100 -31 -96 -46 -125
-81 -163 -40 -42 -76 -43 -90 -2 -6 17 -16 30 -21 30 -6 0 -9 27 -6 71 4 79
-3 68 116 163 41 33 96 60 135 65 4 1 7 -7 7 -16z"/>
</g>
</svg>
