<?xml version="1.0" standalone="no"?>
<!DOCTYPE svg PUBLIC "-//W3C//DTD SVG 20010904//EN"
 "http://www.w3.org/TR/2001/REC-SVG-20010904/DTD/svg10.dtd">
<svg version="1.0" xmlns="http://www.w3.org/2000/svg"
 width="97.000000pt" height="92.000000pt" viewBox="0 0 97.000000 92.000000"
 preserveAspectRatio="xMidYMid meet">
<metadata>
Created by potrace 1.16, written by Peter Selinger 2001-2019
</metadata>
<g transform="translate(0.000000,92.000000) scale(0.100000,-0.100000)"
fill="#000000" stroke="none">
<path d="M29 900 c-15 -9 -15 -15 -2 -67 8 -32 20 -74 26 -93 8 -23 12 -120
13 -280 1 -279 9 -369 33 -377 9 -3 26 -10 39 -16 28 -13 35 -7 71 62 22 43
138 238 148 250 17 22 45 -86 58 -223 3 -32 14 -50 55 -90 l50 -51 83 0 c107
0 177 7 177 17 0 4 7 8 15 8 8 0 15 4 15 8 0 5 12 15 28 22 15 8 48 34 75 59
37 35 47 52 47 77 0 53 -42 59 -93 14 -19 -17 -40 -30 -47 -30 -7 0 -27 -13
-46 -29 -54 -48 -176 -54 -246 -14 -27 17 -29 21 -23 61 6 39 -8 123 -36 218
-5 17 -9 41 -9 53 0 23 -21 51 -39 51 -15 0 -83 -39 -110 -63 -13 -12 -45 -54
-72 -93 -75 -111 -77 -109 -76 74 2 345 -45 504 -134 452z"/>
</g>
</svg>
