<?xml version="1.0" standalone="no"?>
<!DOCTYPE svg PUBLIC "-//W3C//DTD SVG 20010904//EN"
 "http://www.w3.org/TR/2001/REC-SVG-20010904/DTD/svg10.dtd">
<svg version="1.0" xmlns="http://www.w3.org/2000/svg"
 width="73.000000pt" height="93.000000pt" viewBox="0 0 73.000000 93.000000"
 preserveAspectRatio="xMidYMid meet">
<metadata>
Created by potrace 1.16, written by Peter Selinger 2001-2019
</metadata>
<g transform="translate(0.000000,93.000000) scale(0.100000,-0.100000)"
fill="#000000" stroke="none">
<path d="M428 898 c-6 -16 18 -125 43 -199 22 -64 25 -129 7 -148 -11 -11 -10
-12 2 -6 8 5 12 4 7 0 -17 -19 -304 -16 -335 4 -7 4 -15 39 -17 77 -8 106 -19
145 -50 179 -14 15 -48 28 -40 15 3 -6 -1 -13 -9 -16 -9 -3 -14 -10 -11 -14 3
-5 10 -145 16 -312 14 -437 20 -468 85 -468 58 0 70 43 43 149 -20 76 -31 233
-17 247 4 4 42 1 83 -5 42 -7 95 -10 118 -6 81 12 152 28 164 38 14 10 34 0
32 -16 -2 -11 2 -24 21 -73 5 -12 11 -62 15 -113 5 -55 12 -91 19 -92 6 -1 31
-1 56 -1 71 -1 73 8 25 157 -20 61 -45 177 -45 207 0 15 -6 33 -13 40 -24 23
-36 54 -52 125 -23 104 -56 206 -73 226 -17 20 -68 23 -74 5z"/>
</g>
</svg>
