<?xml version="1.0" standalone="no"?>
<!DOCTYPE svg PUBLIC "-//W3C//DTD SVG 20010904//EN"
 "http://www.w3.org/TR/2001/REC-SVG-20010904/DTD/svg10.dtd">
<svg version="1.0" xmlns="http://www.w3.org/2000/svg"
 width="45.000000pt" height="89.000000pt" viewBox="0 0 45.000000 89.000000"
 preserveAspectRatio="xMidYMid meet">
<metadata>
Created by potrace 1.16, written by Peter Selinger 2001-2019
</metadata>
<g transform="translate(0.000000,89.000000) scale(0.100000,-0.100000)"
fill="#000000" stroke="none">
<path d="M20 854 c0 -39 24 -94 40 -94 24 0 100 57 100 75 0 22 -33 35 -89 35
-41 0 -51 -3 -51 -16z"/>
<path d="M46 525 c-10 -16 -20 -65 -26 -130 -16 -161 -15 -236 4 -270 9 -16
16 -35 16 -41 0 -14 62 -72 80 -75 35 -5 120 15 136 32 9 11 22 19 28 19 6 0
32 19 57 42 25 24 57 53 72 65 38 32 45 69 17 93 -24 21 -56 28 -45 10 3 -5
-3 -10 -13 -10 -11 0 -24 -6 -30 -13 -24 -29 -151 -107 -173 -107 -25 0 -53
32 -53 60 0 8 4 54 8 102 11 129 0 198 -34 225 l-28 23 -16 -25z"/>
</g>
</svg>
