<?xml version="1.0" standalone="no"?>
<!DOCTYPE svg PUBLIC "-//W3C//DTD SVG 20010904//EN"
 "http://www.w3.org/TR/2001/REC-SVG-20010904/DTD/svg10.dtd">
<svg version="1.0" xmlns="http://www.w3.org/2000/svg"
 width="78.000000pt" height="121.000000pt" viewBox="0 0 78.000000 121.000000"
 preserveAspectRatio="xMidYMid meet">
<metadata>
Created by potrace 1.16, written by Peter Selinger 2001-2019
</metadata>
<g transform="translate(0.000000,121.000000) scale(0.100000,-0.100000)"
fill="#000000" stroke="none">
<path d="M230 1164 c-24 -56 -24 -54 -2 -70 21 -16 66 -18 93 -4 23 13 17 49
-15 93 -29 40 -52 35 -76 -19z"/>
<path d="M301 899 c-21 -17 -22 -21 -10 -81 7 -35 19 -79 28 -98 8 -19 23 -69
32 -110 10 -41 22 -95 29 -119 6 -24 9 -45 7 -47 -5 -5 -158 -46 -174 -47 -7
0 -13 -4 -13 -9 0 -5 -5 -6 -10 -3 -6 3 -13 -1 -16 -9 -3 -9 -11 -16 -16 -16
-17 0 -136 -133 -131 -147 3 -7 1 -13 -5 -13 -33 0 -17 -120 22 -159 25 -25
31 -26 134 -26 97 0 111 2 147 25 22 14 43 24 46 23 4 -1 17 9 29 22 13 14 20
25 17 25 -4 0 3 17 16 37 13 21 34 61 47 90 13 29 26 51 29 48 11 -6 116 25
119 35 2 6 16 10 30 10 15 0 40 11 56 25 16 14 33 25 37 25 5 0 13 10 20 21 9
18 7 25 -15 45 -27 26 -55 31 -73 13 -12 -12 -108 -39 -139 -39 -25 0 -67 37
-58 52 4 6 2 13 -3 17 -6 3 -20 44 -31 91 -11 47 -29 121 -41 166 -11 44 -21
92 -23 106 -7 54 -50 77 -87 47z m76 -600 c8 -8 4 -26 -14 -67 -35 -80 -60
-112 -88 -112 -13 0 -30 -7 -39 -15 -15 -15 -36 -15 -101 3 -26 7 -30 13 -30
44 -1 25 3 34 12 31 7 -3 13 1 13 9 0 55 209 145 247 107z"/>
</g>
</svg>
