<?xml version="1.0" standalone="no"?>
<!DOCTYPE svg PUBLIC "-//W3C//DTD SVG 20010904//EN"
 "http://www.w3.org/TR/2001/REC-SVG-20010904/DTD/svg10.dtd">
<svg version="1.0" xmlns="http://www.w3.org/2000/svg"
 width="81.000000pt" height="90.000000pt" viewBox="0 0 81.000000 90.000000"
 preserveAspectRatio="xMidYMid meet">
<metadata>
Created by potrace 1.16, written by Peter Selinger 2001-2019
</metadata>
<g transform="translate(0.000000,90.000000) scale(0.100000,-0.100000)"
fill="#000000" stroke="none">
<path d="M680 885 c-73 -15 -216 -26 -371 -29 -181 -3 -188 -4 -213 -27 -26
-24 -26 -25 -8 -59 14 -30 24 -36 62 -42 68 -10 207 -9 274 2 33 5 62 8 64 6
2 -3 5 -47 6 -99 1 -69 6 -101 19 -120 9 -14 17 -31 17 -37 0 -6 14 -23 30
-37 17 -13 30 -31 30 -38 0 -7 7 -18 16 -26 28 -23 56 -91 57 -136 1 -67 -34
-97 -130 -113 -93 -15 -202 -15 -266 -1 -26 6 -64 14 -85 17 -34 5 -61 19 -51
27 53 39 109 93 109 105 -1 23 -27 56 -34 43 -4 -6 -12 -8 -19 -5 -17 6 -98
-48 -140 -95 -37 -41 -39 -62 -14 -123 19 -46 119 -74 297 -84 96 -5 133 -3
220 16 141 29 195 65 218 146 22 75 22 74 -72 249 -21 39 -52 88 -69 109 -20
26 -30 50 -30 70 1 17 2 52 2 77 1 45 2 47 41 63 22 9 56 16 76 16 39 0 88 39
78 63 -3 8 -1 18 5 22 6 3 11 11 11 16 0 6 -4 8 -9 5 -5 -3 -14 1 -21 9 -11
14 -58 18 -100 10z"/>
</g>
</svg>
