<?xml version="1.0" standalone="no"?>
<!DOCTYPE svg PUBLIC "-//W3C//DTD SVG 20010904//EN"
 "http://www.w3.org/TR/2001/REC-SVG-20010904/DTD/svg10.dtd">
<svg version="1.0" xmlns="http://www.w3.org/2000/svg"
 width="92.000000pt" height="71.000000pt" viewBox="0 0 92.000000 71.000000"
 preserveAspectRatio="xMidYMid meet">
<metadata>
Created by potrace 1.16, written by Peter Selinger 2001-2019
</metadata>
<g transform="translate(0.000000,71.000000) scale(0.100000,-0.100000)"
fill="#000000" stroke="none">
<path d="M89 663 c-13 -20 -24 -53 -25 -72 -2 -20 -5 -47 -9 -61 -3 -14 -8
-59 -11 -100 -3 -41 -10 -80 -15 -86 -13 -16 -13 -244 0 -277 13 -34 54 -52
81 -34 11 6 20 19 20 27 0 30 192 303 203 290 2 -3 16 -31 31 -62 31 -64 51
-86 59 -66 3 7 5 2 4 -11 -2 -18 11 -34 53 -67 30 -23 57 -40 59 -38 2 2 11
-2 20 -10 20 -17 127 -34 203 -31 54 2 72 10 120 48 20 16 38 74 19 62 -7 -4
-18 0 -25 11 -12 16 -19 16 -73 5 -47 -10 -72 -11 -116 -1 -32 6 -57 16 -57
21 0 5 -6 9 -13 7 -15 -3 -107 52 -107 64 0 4 -6 8 -13 8 -25 0 -67 55 -67 87
0 76 108 187 230 236 8 3 11 41 5 64 -5 20 -10 22 -46 18 -36 -5 -65 -18 -165
-73 -13 -7 -24 -17 -24 -23 0 -5 -6 -9 -13 -9 -8 0 -56 -46 -108 -102 -132
-142 -190 -201 -195 -196 -2 3 1 40 7 84 6 43 12 134 15 202 3 100 1 122 -10
122 -8 0 -25 -17 -37 -37z"/>
</g>
</svg>
