<?xml version="1.0" standalone="no"?>
<!DOCTYPE svg PUBLIC "-//W3C//DTD SVG 20010904//EN"
 "http://www.w3.org/TR/2001/REC-SVG-20010904/DTD/svg10.dtd">
<svg version="1.0" xmlns="http://www.w3.org/2000/svg"
 width="107.000000pt" height="114.000000pt" viewBox="0 0 107.000000 114.000000"
 preserveAspectRatio="xMidYMid meet">
<metadata>
Created by potrace 1.16, written by Peter Selinger 2001-2019
</metadata>
<g transform="translate(0.000000,114.000000) scale(0.100000,-0.100000)"
fill="#000000" stroke="none">
<path d="M203 1101 c-30 -19 -60 -58 -55 -73 1 -4 4 -83 6 -175 3 -92 10 -206
16 -253 13 -96 8 -133 -18 -128 -12 2 -17 13 -17 38 0 41 -15 60 -47 60 -40
-1 -62 -26 -64 -74 -3 -46 24 -101 56 -116 8 -4 27 -14 43 -21 19 -8 24 -16
17 -23 -28 -28 12 -158 72 -237 15 -20 28 -41 28 -47 0 -9 30 -24 78 -37 16
-5 22 -2 22 9 0 9 4 16 8 16 11 0 -2 96 -21 157 -16 49 -34 193 -23 182 3 -3
30 17 59 45 93 91 157 136 192 136 20 0 55 -36 55 -57 0 -48 -87 -163 -124
-163 -32 0 -64 -29 -58 -53 7 -32 19 -43 70 -70 162 -83 242 -133 242 -150 0
-9 2 -9 9 1 5 9 24 11 67 7 105 -10 239 54 244 116 5 52 1 59 -29 59 -32 0
-112 -26 -121 -39 -3 -5 -30 -11 -61 -14 -56 -4 -137 15 -150 35 -3 5 -9 9
-13 9 -3 -1 -15 4 -26 11 -26 16 -26 52 0 88 27 38 53 145 46 185 -7 38 -32
92 -54 118 -10 11 -30 17 -58 17 -24 0 -46 5 -49 10 -3 6 -14 10 -24 10 -15 0
-20 11 -25 58 -14 117 -38 195 -75 242 -20 25 -39 46 -43 48 -4 2 -5 9 -2 16
2 6 -9 24 -25 40 -39 38 -103 45 -148 17z m91 -94 c18 -13 23 -21 74 -116 28
-53 32 -71 32 -134 0 -63 -4 -79 -29 -118 -15 -24 -41 -57 -57 -74 l-28 -30
-9 35 c-14 56 -44 366 -39 402 7 46 25 58 56 35z"/>
<path d="M130 1060 c0 -5 5 -10 10 -10 6 0 10 5 10 10 0 6 -4 10 -10 10 -5 0
-10 -4 -10 -10z"/>
</g>
</svg>
