<?xml version="1.0" standalone="no"?>
<!DOCTYPE svg PUBLIC "-//W3C//DTD SVG 20010904//EN"
 "http://www.w3.org/TR/2001/REC-SVG-20010904/DTD/svg10.dtd">
<svg version="1.0" xmlns="http://www.w3.org/2000/svg"
 width="89.000000pt" height="87.000000pt" viewBox="0 0 89.000000 87.000000"
 preserveAspectRatio="xMidYMid meet">
<metadata>
Created by potrace 1.16, written by Peter Selinger 2001-2019
</metadata>
<g transform="translate(0.000000,87.000000) scale(0.100000,-0.100000)"
fill="#000000" stroke="none">
<path d="M75 837 c-15 -19 -16 -28 -16 -179 0 -78 -4 -173 -9 -212 -5 -39 -12
-114 -15 -166 -3 -52 -10 -113 -15 -135 -12 -51 -12 -57 -1 -50 5 3 11 -9 13
-27 3 -29 7 -34 44 -43 64 -16 286 3 550 45 66 11 141 20 165 20 35 0 51 6 67
23 22 24 31 87 12 87 -5 0 -7 7 -4 15 5 12 -4 15 -42 16 -27 1 -53 0 -59 -1
-28 -6 -127 -21 -180 -26 -33 -4 -62 -10 -65 -14 -8 -10 -207 -30 -308 -30
l-93 0 6 33 c15 94 22 214 21 409 -1 205 -2 218 -21 232 -24 19 -37 19 -50 3z"/>
</g>
</svg>
