<?xml version="1.0" standalone="no"?>
<!DOCTYPE svg PUBLIC "-//W3C//DTD SVG 20010904//EN"
 "http://www.w3.org/TR/2001/REC-SVG-20010904/DTD/svg10.dtd">
<svg version="1.0" xmlns="http://www.w3.org/2000/svg"
 width="83.000000pt" height="116.000000pt" viewBox="0 0 83.000000 116.000000"
 preserveAspectRatio="xMidYMid meet">
<metadata>
Created by potrace 1.16, written by Peter Selinger 2001-2019
</metadata>
<g transform="translate(0.000000,116.000000) scale(0.100000,-0.100000)"
fill="#000000" stroke="none">
<path d="M338 1138 c-47 -16 -55 -72 -62 -413 -5 -224 -5 -225 -81 -225 -54 0
-79 31 -87 108 -2 17 -45 15 -52 -3 -3 -8 -12 -15 -21 -15 -18 0 -20 -37 -4
-95 10 -34 70 -105 88 -103 3 0 38 0 77 -1 l72 -1 5 -77 c7 -105 24 -209 42
-259 16 -41 16 -41 78 -47 41 -4 72 -1 92 8 17 7 43 16 58 19 16 4 38 15 49
26 12 11 39 29 62 40 81 42 92 50 126 87 42 45 46 83 15 113 l-23 22 -52 -36
c-29 -20 -49 -36 -45 -36 4 0 2 -7 -5 -15 -7 -8 -23 -15 -35 -15 -12 0 -28 -7
-35 -15 -7 -8 -21 -15 -32 -15 -10 0 -29 -6 -41 -14 -12 -8 -46 -18 -74 -22
-51 -6 -53 -6 -53 17 0 13 -5 77 -11 141 -7 82 -7 124 1 137 5 11 35 35 64 52
31 19 57 42 60 54 3 12 17 27 31 35 14 7 25 18 25 23 0 6 6 18 13 26 24 29 42
105 41 176 0 58 -6 79 -31 125 -16 30 -39 59 -51 65 -19 9 -35 37 -33 60 1 14
-106 85 -127 84 -9 0 -29 -5 -44 -11z m114 -160 c22 -23 46 -54 53 -68 16 -31
28 -160 14 -160 -5 0 -9 -9 -9 -19 0 -11 -6 -26 -13 -33 -7 -7 -30 -34 -50
-60 -21 -26 -44 -45 -50 -42 -9 3 -11 51 -9 177 2 145 6 233 11 245 4 8 18 -3
53 -40z"/>
</g>
</svg>
