<?xml version="1.0" standalone="no"?>
<!DOCTYPE svg PUBLIC "-//W3C//DTD SVG 20010904//EN"
 "http://www.w3.org/TR/2001/REC-SVG-20010904/DTD/svg10.dtd">
<svg version="1.0" xmlns="http://www.w3.org/2000/svg"
 width="157.000000pt" height="72.000000pt" viewBox="0 0 157.000000 72.000000"
 preserveAspectRatio="xMidYMid meet">
<metadata>
Created by potrace 1.16, written by Peter Selinger 2001-2019
</metadata>
<g transform="translate(0.000000,72.000000) scale(0.100000,-0.100000)"
fill="#000000" stroke="none">
<path d="M1075 710 c-3 -5 -19 -10 -36 -10 -16 0 -29 -4 -29 -9 0 -5 -15 -13
-32 -17 -18 -3 -48 -17 -67 -30 -19 -13 -37 -21 -41 -19 -4 2 -28 -16 -55 -40
-27 -25 -58 -45 -70 -45 -18 0 -21 7 -24 42 -3 61 -16 78 -57 78 -49 0 -125
-47 -218 -135 -44 -41 -83 -72 -88 -69 -4 3 -8 22 -8 43 0 22 -6 44 -15 51 -9
7 -13 15 -11 18 6 6 -21 61 -42 85 -32 36 -59 22 -163 -85 -72 -74 -100 -110
-105 -135 -9 -46 3 -82 29 -92 25 -10 51 5 43 25 -3 8 0 11 10 7 9 -3 14 1 14
12 0 14 47 89 81 128 11 14 45 -10 57 -40 12 -32 20 -98 26 -228 6 -122 14
-155 38 -155 10 0 21 7 25 15 3 9 15 15 27 13 18 -3 21 3 24 32 3 36 20 79 37
93 7 6 6 10 -1 13 -9 4 -7 14 4 37 9 18 17 40 17 49 3 32 114 153 128 139 16
-16 -12 -238 -33 -266 -4 -5 -13 -35 -20 -66 -14 -65 -2 -106 28 -93 9 4 34 9
56 12 27 3 40 10 43 23 3 11 12 19 20 19 8 0 12 4 8 9 -3 5 -1 12 5 16 6 4 8
10 5 15 -3 5 -1 11 4 15 6 3 13 27 17 53 4 26 16 60 26 75 14 19 19 39 16 62
-4 31 0 36 57 73 33 22 71 52 84 66 27 28 119 76 147 76 15 0 16 -9 10 -84 -6
-89 -20 -141 -35 -132 -8 6 -21 -62 -21 -115 0 -18 -7 -32 -21 -40 -18 -9 -20
-16 -14 -47 8 -42 37 -103 58 -121 18 -15 147 -17 174 -2 10 5 39 14 64 20 65
15 174 83 274 170 38 33 46 58 23 72 -5 3 -8 10 -6 15 1 5 -10 11 -27 12 -16
2 -27 1 -23 -3 8 -9 -21 -32 -74 -59 -21 -11 -38 -23 -38 -28 0 -4 -8 -8 -17
-8 -10 0 -32 -13 -48 -29 -17 -15 -46 -31 -66 -34 -19 -4 -51 -16 -70 -26 -35
-19 -38 -19 -70 -3 -46 23 -48 55 -10 134 16 35 33 86 37 113 4 28 12 53 18
57 7 4 11 42 11 96 0 85 -2 91 -35 140 -36 53 -44 59 -55 42z"/>
</g>
</svg>
