<?xml version="1.0" standalone="no"?>
<!DOCTYPE svg PUBLIC "-//W3C//DTD SVG 20010904//EN"
 "http://www.w3.org/TR/2001/REC-SVG-20010904/DTD/svg10.dtd">
<svg version="1.0" xmlns="http://www.w3.org/2000/svg"
 width="111.000000pt" height="82.000000pt" viewBox="0 0 111.000000 82.000000"
 preserveAspectRatio="xMidYMid meet">
<metadata>
Created by potrace 1.16, written by Peter Selinger 2001-2019
</metadata>
<g transform="translate(0.000000,82.000000) scale(0.100000,-0.100000)"
fill="#000000" stroke="none">
<path d="M760 800 c-52 -4 -122 -12 -155 -19 -121 -24 -169 -31 -424 -60 -46
-5 -97 -8 -113 -6 -16 2 -26 0 -23 -4 2 -5 -4 -11 -14 -14 -15 -4 -18 -11 -14
-28 3 -13 10 -29 14 -35 5 -6 6 -14 3 -17 -12 -11 69 -20 124 -13 59 7 155 18
306 35 49 6 110 17 135 25 122 38 274 47 298 16 55 -69 74 -183 61 -364 -5
-77 -7 -178 -3 -224 l7 -82 48 0 c49 0 69 11 90 50 16 29 9 70 -12 70 -15 0
-18 10 -19 63 -3 189 -8 402 -10 405 -1 1 -2 5 -4 10 -1 4 -9 24 -18 44 -10
21 -17 42 -17 48 0 5 -4 10 -9 10 -5 0 -13 10 -16 23 -4 12 -19 34 -33 50 -28
30 -24 29 -202 17z"/>
<path d="M313 564 c-11 -17 -17 -51 -19 -102 -1 -43 -9 -147 -17 -232 -15
-166 -11 -207 17 -202 10 2 24 -3 33 -10 31 -25 40 13 48 205 12 309 -9 422
-62 341z"/>
</g>
</svg>
