<?xml version="1.0" standalone="no"?>
<!DOCTYPE svg PUBLIC "-//W3C//DTD SVG 20010904//EN"
 "http://www.w3.org/TR/2001/REC-SVG-20010904/DTD/svg10.dtd">
<svg version="1.0" xmlns="http://www.w3.org/2000/svg"
 width="87.000000pt" height="71.000000pt" viewBox="0 0 87.000000 71.000000"
 preserveAspectRatio="xMidYMid meet">
<metadata>
Created by potrace 1.16, written by Peter Selinger 2001-2019
</metadata>
<g transform="translate(0.000000,71.000000) scale(0.100000,-0.100000)"
fill="#000000" stroke="none">
<path d="M216 693 c-11 -3 -28 -16 -39 -29 -10 -13 -28 -24 -40 -24 -14 -1
-34 -16 -52 -41 -16 -22 -37 -48 -46 -57 -22 -23 -29 -67 -17 -108 8 -31 11
-33 24 -19 9 8 26 15 40 15 20 0 24 5 24 29 0 32 30 61 63 61 18 0 18 -19 2
-115 -6 -35 -59 -180 -67 -183 -5 -2 -6 -8 -2 -13 3 -5 0 -9 -5 -9 -6 0 -11
-7 -11 -15 0 -8 -5 -15 -10 -15 -11 0 -3 -49 11 -64 11 -12 81 -14 97 -3 6 5
12 19 12 31 0 24 115 203 163 254 31 32 61 46 37 17 -7 -9 -14 -23 -15 -33 -3
-30 -16 -96 -23 -112 -3 -8 -6 -22 -7 -30 0 -8 -6 -14 -12 -13 -6 1 -13 -24
-17 -59 -4 -47 -2 -67 9 -85 21 -32 56 -53 99 -60 35 -5 53 0 113 31 29 15
257 211 293 253 26 29 28 36 19 63 -6 16 -15 32 -19 35 -12 7 -162 -100 -224
-159 -26 -26 -51 -45 -54 -42 -2 3 -17 -3 -31 -13 -22 -16 -81 -26 -81 -14 0
2 7 15 16 28 14 21 14 28 3 42 -8 9 -9 14 -3 10 15 -9 28 9 42 58 6 22 15 51
19 65 4 14 8 30 9 35 1 6 12 34 23 64 17 41 20 65 15 98 -7 46 -41 98 -50 76
-3 -7 -16 -13 -29 -13 -13 0 -26 -4 -30 -9 -3 -6 -26 -20 -52 -33 -25 -13 -50
-33 -56 -45 -21 -46 -43 -22 -55 60 -15 93 -26 105 -86 90z"/>
</g>
</svg>
