<?xml version="1.0" standalone="no"?>
<!DOCTYPE svg PUBLIC "-//W3C//DTD SVG 20010904//EN"
 "http://www.w3.org/TR/2001/REC-SVG-20010904/DTD/svg10.dtd">
<svg version="1.0" xmlns="http://www.w3.org/2000/svg"
 width="76.000000pt" height="79.000000pt" viewBox="0 0 76.000000 79.000000"
 preserveAspectRatio="xMidYMid meet">
<metadata>
Created by potrace 1.16, written by Peter Selinger 2001-2019
</metadata>
<g transform="translate(0.000000,79.000000) scale(0.100000,-0.100000)"
fill="#000000" stroke="none">
<path d="M618 776 c-33 -12 -36 -36 -7 -62 41 -37 47 -70 33 -179 -34 -267
-52 -345 -78 -345 -32 1 -172 138 -226 221 -43 67 -120 150 -174 190 -44 33
-114 40 -136 14 -17 -20 -27 -111 -11 -101 6 4 11 1 11 -6 0 -7 5 -58 10 -113
6 -55 10 -138 11 -185 0 -93 15 -160 35 -160 6 0 14 -7 18 -15 8 -21 39 -19
53 4 9 14 10 62 3 192 -5 96 -10 180 -10 187 0 6 4 12 9 12 18 0 92 -75 128
-129 49 -75 209 -231 236 -231 15 0 69 -35 63 -41 -2 -2 17 -5 42 -7 26 -2 50
-8 53 -14 13 -20 50 27 51 63 1 74 0 326 -1 360 -1 20 6 53 15 74 10 25 14 53
10 84 -3 25 -7 71 -8 101 -3 46 -7 58 -28 71 -34 22 -70 27 -102 15z"/>
<path d="M742 30 c0 -14 2 -19 5 -12 2 6 2 18 0 25 -3 6 -5 1 -5 -13z"/>
</g>
</svg>
