<?xml version="1.0" standalone="no"?>
<!DOCTYPE svg PUBLIC "-//W3C//DTD SVG 20010904//EN"
 "http://www.w3.org/TR/2001/REC-SVG-20010904/DTD/svg10.dtd">
<svg version="1.0" xmlns="http://www.w3.org/2000/svg"
 width="95.000000pt" height="83.000000pt" viewBox="0 0 95.000000 83.000000"
 preserveAspectRatio="xMidYMid meet">
<metadata>
Created by potrace 1.16, written by Peter Selinger 2001-2019
</metadata>
<g transform="translate(0.000000,83.000000) scale(0.100000,-0.100000)"
fill="#000000" stroke="none">
<path d="M330 810 c-8 -5 -24 -10 -35 -10 -11 0 -51 -30 -89 -67 -56 -54 -77
-83 -108 -152 -21 -47 -43 -94 -48 -103 -6 -10 -10 -32 -10 -50 0 -23 -3 -29
-9 -19 -16 25 -24 -143 -11 -217 10 -52 20 -74 44 -99 17 -18 37 -33 44 -33 7
0 34 -9 59 -21 31 -14 68 -21 107 -22 102 0 274 37 364 78 29 14 63 25 76 25
41 0 183 118 210 175 21 44 20 77 -4 122 -11 21 -20 48 -20 60 0 12 -4 25 -10
28 -5 3 -10 15 -10 26 0 11 -10 30 -23 42 -129 123 -250 233 -264 239 -27 10
-246 9 -263 -2z m175 -90 c11 -4 27 -11 35 -14 8 -3 46 -28 84 -55 72 -51 181
-182 193 -231 3 -14 10 -28 15 -31 4 -3 5 -20 2 -38 -5 -23 -18 -39 -43 -55
-20 -13 -42 -30 -49 -39 -7 -8 -28 -18 -47 -21 -19 -4 -35 -11 -35 -16 0 -6
-9 -10 -20 -10 -11 0 -28 -4 -38 -9 -9 -5 -44 -17 -77 -27 -33 -10 -65 -22
-72 -27 -7 -5 -16 -6 -21 -3 -6 3 -26 -1 -47 -10 -30 -12 -52 -13 -127 -5 -83
9 -95 13 -125 43 -31 30 -33 36 -33 102 0 39 6 88 14 111 8 22 20 60 27 85 6
25 24 61 39 80 14 19 36 51 48 71 56 92 184 138 277 99z"/>
</g>
</svg>
