<?xml version="1.0" standalone="no"?>
<!DOCTYPE svg PUBLIC "-//W3C//DTD SVG 20010904//EN"
 "http://www.w3.org/TR/2001/REC-SVG-20010904/DTD/svg10.dtd">
<svg version="1.0" xmlns="http://www.w3.org/2000/svg"
 width="91.000000pt" height="69.000000pt" viewBox="0 0 91.000000 69.000000"
 preserveAspectRatio="xMidYMid meet">
<metadata>
Created by potrace 1.16, written by Peter Selinger 2001-2019
</metadata>
<g transform="translate(0.000000,69.000000) scale(0.100000,-0.100000)"
fill="#000000" stroke="none">
<path d="M331 667 c-52 -16 -211 -180 -211 -217 0 -9 -11 -27 -24 -39 -13 -13
-26 -39 -30 -62 -3 -21 -10 -39 -15 -39 -13 0 -53 -84 -41 -88 6 -2 10 -11 10
-21 0 -9 21 -40 48 -69 36 -40 65 -58 127 -84 77 -32 84 -33 215 -32 196 1
230 17 412 195 67 64 68 66 62 107 -4 27 -2 42 5 42 16 0 13 62 -4 103 -15 37
-35 58 -123 130 -70 59 -171 87 -303 86 -52 -1 -109 -6 -128 -12z m244 -102
c22 -4 60 -17 84 -31 24 -13 48 -24 53 -24 15 0 68 -43 68 -56 0 -6 7 -14 15
-18 17 -6 20 -51 5 -61 -6 -3 -10 -15 -10 -27 0 -30 -153 -174 -219 -205 -48
-23 -65 -26 -170 -25 -118 0 -141 6 -215 50 -16 10 -39 30 -50 45 -19 26 -19
29 -3 56 9 16 17 36 17 45 0 9 8 29 17 44 15 23 103 130 140 170 21 22 84 4
120 -36 l32 -35 26 29 c18 21 25 38 22 62 -2 25 0 31 13 28 8 -2 33 -7 55 -11z"/>
</g>
</svg>
