<?xml version="1.0" standalone="no"?>
<!DOCTYPE svg PUBLIC "-//W3C//DTD SVG 20010904//EN"
 "http://www.w3.org/TR/2001/REC-SVG-20010904/DTD/svg10.dtd">
<svg version="1.0" xmlns="http://www.w3.org/2000/svg"
 width="75.000000pt" height="100.000000pt" viewBox="0 0 75.000000 100.000000"
 preserveAspectRatio="xMidYMid meet">
<metadata>
Created by potrace 1.16, written by Peter Selinger 2001-2019
</metadata>
<g transform="translate(0.000000,100.000000) scale(0.100000,-0.100000)"
fill="#000000" stroke="none">
<path d="M253 974 c-18 -9 -68 -53 -111 -98 -65 -67 -80 -90 -85 -124 -8 -47
-21 -59 -45 -40 -15 11 -16 11 -5 -3 8 -10 11 -29 7 -50 -4 -19 -8 -74 -11
-122 -3 -69 -1 -92 10 -105 9 -10 18 -38 22 -65 4 -26 11 -50 16 -53 5 -3 9
-13 9 -22 0 -9 10 -37 22 -62 11 -25 22 -53 23 -63 1 -9 11 -28 23 -40 12 -13
22 -31 22 -40 0 -30 37 -58 62 -48 13 4 28 6 34 4 14 -5 26 97 13 113 -5 6
-11 60 -14 120 -5 80 -10 111 -21 117 -7 4 -14 19 -14 32 0 13 -7 31 -16 40
-15 15 -15 17 2 29 17 13 16 15 -7 38 -13 14 -34 43 -46 65 -19 35 -20 45 -11
89 8 38 23 62 66 109 31 33 61 59 68 57 6 -1 14 4 18 13 4 10 20 15 53 15 57
0 115 -36 181 -114 106 -124 102 -117 102 -167 0 -61 -32 -102 -92 -117 -47
-12 -103 4 -115 34 -5 13 -12 10 -38 -19 -18 -20 -35 -34 -38 -31 -7 8 -47
-19 -47 -31 1 -20 40 -57 54 -52 8 3 16 1 18 -5 5 -13 176 -20 183 -7 4 5 17
9 31 9 14 0 23 4 19 9 -6 10 29 34 37 26 3 -3 23 18 44 47 38 52 39 54 37 133
-2 90 -11 147 -23 140 -5 -3 -14 8 -22 25 -7 16 -16 30 -20 30 -5 0 -7 3 -6 8
3 11 -55 72 -68 72 -7 0 -14 3 -16 8 -7 18 -96 80 -136 95 -53 21 -127 21
-169 1z"/>
<path d="M270 75 c0 -8 4 -15 10 -15 5 0 7 7 4 15 -4 8 -8 15 -10 15 -2 0 -4
-7 -4 -15z"/>
</g>
</svg>
