<?xml version="1.0" standalone="no"?>
<!DOCTYPE svg PUBLIC "-//W3C//DTD SVG 20010904//EN"
 "http://www.w3.org/TR/2001/REC-SVG-20010904/DTD/svg10.dtd">
<svg version="1.0" xmlns="http://www.w3.org/2000/svg"
 width="62.000000pt" height="97.000000pt" viewBox="0 0 62.000000 97.000000"
 preserveAspectRatio="xMidYMid meet">
<metadata>
Created by potrace 1.16, written by Peter Selinger 2001-2019
</metadata>
<g transform="translate(0.000000,97.000000) scale(0.100000,-0.100000)"
fill="#000000" stroke="none">
<path d="M311 948 c-8 -13 -25 -44 -38 -70 -13 -26 -33 -54 -44 -61 -20 -14
-17 -44 5 -59 7 -5 5 -8 -4 -8 -12 0 -14 -14 -12 -75 4 -86 -5 -105 -50 -105
-23 0 -31 6 -39 29 -6 16 -27 40 -47 55 l-37 26 -17 -22 c-9 -12 -18 -40 -20
-62 -3 -33 1 -46 26 -74 30 -34 82 -64 119 -67 10 -1 22 -6 28 -12 16 -16 30
-150 23 -220 -4 -38 -3 -68 4 -75 5 -7 13 -32 17 -55 3 -23 13 -47 21 -54 7
-6 11 -15 9 -19 -5 -8 45 3 62 13 5 3 8 90 8 194 0 212 1 216 70 227 122 18
118 17 164 71 39 45 45 59 48 105 1 29 -4 78 -12 110 -12 47 -25 68 -71 114
-31 31 -62 56 -69 56 -8 0 -18 7 -22 15 -7 12 -81 45 -102 45 -3 0 -13 -10
-20 -22z m143 -158 c64 -54 65 -56 59 -95 -13 -89 -56 -134 -136 -142 l-55 -6
-13 43 c-10 32 -10 46 -1 61 7 10 12 33 12 51 0 17 7 58 16 90 20 71 29 71
118 -2z"/>
</g>
</svg>
