<?xml version="1.0" standalone="no"?>
<!DOCTYPE svg PUBLIC "-//W3C//DTD SVG 20010904//EN"
 "http://www.w3.org/TR/2001/REC-SVG-20010904/DTD/svg10.dtd">
<svg version="1.0" xmlns="http://www.w3.org/2000/svg"
 width="81.000000pt" height="95.000000pt" viewBox="0 0 81.000000 95.000000"
 preserveAspectRatio="xMidYMid meet">
<metadata>
Created by potrace 1.16, written by Peter Selinger 2001-2019
</metadata>
<g transform="translate(0.000000,95.000000) scale(0.100000,-0.100000)"
fill="#000000" stroke="none">
<path d="M272 929 c-13 -5 -35 -18 -48 -28 -29 -23 -104 -121 -104 -137 0 -6
-7 -17 -15 -24 -8 -7 -15 -21 -15 -32 0 -10 -8 -31 -17 -45 -29 -44 -45 -94
-54 -173 -15 -122 -15 -125 -2 -122 8 1 13 -9 13 -29 0 -42 14 -65 79 -132 63
-66 84 -77 195 -107 71 -20 87 -21 153 -11 131 20 150 16 226 -46 30 -25 85
-31 104 -12 8 8 8 21 1 43 -16 48 -38 96 -46 96 -4 1 -22 14 -40 29 l-33 29
25 60 c26 60 26 62 11 133 -8 39 -14 83 -13 98 1 15 -1 32 -6 39 -4 7 -1 12 8
12 21 0 20 9 -5 36 -13 14 -22 37 -22 58 -1 20 -7 38 -15 41 -8 3 -11 12 -8
21 4 9 -4 28 -18 45 -13 15 -26 32 -28 37 -10 25 -78 62 -114 62 -28 0 -47 7
-66 25 -15 14 -34 25 -43 25 -8 0 -15 5 -15 10 0 12 -57 12 -88 -1z m110 -136
c22 -21 46 -37 53 -35 7 1 30 -18 50 -43 21 -25 45 -45 55 -45 35 0 46 -32 58
-170 11 -124 11 -136 -6 -152 -16 -17 -19 -17 -52 0 -19 9 -44 31 -55 49 -11
18 -28 32 -37 33 -9 0 -20 5 -23 11 -10 15 -78 7 -92 -12 -20 -26 -11 -57 29
-102 21 -23 40 -50 43 -59 4 -10 12 -18 19 -18 7 0 22 -11 33 -24 18 -21 19
-25 6 -30 -51 -20 -206 12 -224 46 -5 10 -18 18 -29 18 -10 0 -30 11 -44 25
-14 14 -28 25 -31 25 -9 0 -44 43 -45 53 0 5 5 5 11 1 8 -5 10 6 7 37 -8 71
10 159 40 199 15 19 25 42 24 52 -2 9 8 24 22 34 15 9 26 20 26 25 0 5 14 28
31 51 24 34 56 59 87 67 2 1 21 -16 44 -36z"/>
</g>
</svg>
