<?xml version="1.0" standalone="no"?>
<!DOCTYPE svg PUBLIC "-//W3C//DTD SVG 20010904//EN"
 "http://www.w3.org/TR/2001/REC-SVG-20010904/DTD/svg10.dtd">
<svg version="1.0" xmlns="http://www.w3.org/2000/svg"
 width="69.000000pt" height="123.000000pt" viewBox="0 0 69.000000 123.000000"
 preserveAspectRatio="xMidYMid meet">
<metadata>
Created by potrace 1.16, written by Peter Selinger 2001-2019
</metadata>
<g transform="translate(0.000000,123.000000) scale(0.100000,-0.100000)"
fill="#000000" stroke="none">
<path d="M253 1190 c-49 -24 -68 -40 -87 -73 -14 -24 -37 -54 -51 -67 -13 -12
-22 -27 -19 -31 3 -5 -8 -37 -24 -71 -38 -84 -49 -126 -57 -229 -5 -59 -3 -93
5 -108 7 -15 8 -26 2 -34 -7 -8 1 -23 26 -48 46 -44 123 -67 168 -48 90 37
114 51 134 79 l22 31 14 -27 c13 -24 12 -37 -7 -113 -12 -47 -23 -106 -25
-131 -2 -25 -12 -73 -21 -106 -15 -54 -15 -68 -3 -120 15 -65 24 -77 58 -86
26 -7 37 8 47 65 4 21 10 36 13 33 9 -10 32 45 32 78 0 17 -7 42 -16 54 -10
15 -11 22 -3 22 8 0 10 15 6 50 -5 38 -2 55 9 69 12 14 17 48 20 139 4 145 16
191 61 232 18 17 33 35 33 41 0 6 11 24 24 40 33 39 66 131 66 184 0 56 -46
115 -89 115 -34 0 -111 -73 -111 -105 0 -13 -7 -35 -14 -51 -8 -15 -13 -31
-10 -36 3 -4 0 -8 -5 -8 -7 0 -11 -26 -11 -64 0 -36 -4 -68 -10 -71 -5 -3 -10
-15 -10 -26 0 -20 -70 -95 -135 -145 -47 -35 -129 -50 -162 -29 -20 14 -23 24
-23 87 0 73 23 181 45 208 7 8 21 37 31 65 24 63 110 155 146 155 13 0 33 -9
43 -20 10 -11 13 -20 7 -20 -8 0 -12 -18 -12 -48 0 -26 -4 -52 -9 -57 -13 -13
16 -75 34 -75 18 0 33 43 50 150 20 124 19 127 -11 155 -37 34 -92 32 -171 -5z
m327 -207 c0 -20 -3 -24 -11 -16 -7 7 -9 19 -6 27 10 24 17 19 17 -11z"/>
</g>
</svg>
