<?xml version="1.0" standalone="no"?>
<!DOCTYPE svg PUBLIC "-//W3C//DTD SVG 20010904//EN"
 "http://www.w3.org/TR/2001/REC-SVG-20010904/DTD/svg10.dtd">
<svg version="1.0" xmlns="http://www.w3.org/2000/svg"
 width="101.000000pt" height="110.000000pt" viewBox="0 0 101.000000 110.000000"
 preserveAspectRatio="xMidYMid meet">
<metadata>
Created by potrace 1.16, written by Peter Selinger 2001-2019
</metadata>
<g transform="translate(0.000000,110.000000) scale(0.100000,-0.100000)"
fill="#000000" stroke="none">
<path d="M325 1072 c-28 -9 -64 -26 -80 -38 -17 -12 -47 -29 -67 -38 -20 -10
-56 -40 -80 -68 -24 -27 -52 -60 -63 -72 -11 -12 -19 -32 -17 -44 2 -13 -1
-29 -8 -36 -13 -17 -12 -334 1 -342 5 -3 9 -23 9 -46 0 -35 2 -39 15 -28 12
10 15 9 15 -8 0 -11 -5 -22 -11 -24 -7 -2 3 -29 24 -68 19 -36 32 -71 30 -77
-3 -7 0 -13 6 -13 7 0 16 -10 22 -23 43 -94 65 -122 94 -125 17 -1 36 2 43 6
19 13 24 82 6 89 -8 3 -11 9 -8 14 3 5 7 39 9 76 2 57 0 70 -16 81 -16 11 -17
17 -7 35 26 49 14 157 -18 157 -18 0 -14 152 4 158 20 6 14 29 -14 51 -15 12
-30 21 -34 21 -4 0 -19 -18 -34 -40 -14 -22 -31 -40 -36 -40 -6 0 -10 24 -10
54 0 41 4 55 16 60 9 4 14 9 11 12 -9 9 30 78 61 106 58 55 175 118 218 118
39 0 112 -49 96 -64 -3 -4 4 -15 16 -27 18 -16 21 -27 16 -62 -3 -23 -10 -54
-16 -69 -5 -15 -7 -31 -4 -36 3 -5 -1 -18 -9 -28 -8 -10 -15 -27 -15 -38 0
-31 -94 -139 -149 -170 -53 -31 -70 -55 -49 -67 7 -4 26 -19 42 -33 16 -13 41
-28 54 -31 23 -6 71 -44 238 -192 93 -82 200 -127 283 -118 66 6 89 26 89 77
0 24 -6 52 -14 63 -12 17 -18 18 -47 8 -45 -16 -127 -14 -127 4 0 7 -7 13 -15
13 -8 0 -15 3 -15 8 0 4 -17 16 -37 27 -21 11 -50 33 -64 48 -14 16 -43 34
-63 41 -52 18 -126 82 -126 109 0 14 13 31 35 46 19 13 33 26 32 30 -1 3 11
25 27 48 15 23 32 61 37 85 5 24 16 58 25 75 12 26 13 41 4 73 -6 21 -8 50 -5
63 4 15 1 28 -9 36 -9 8 -16 24 -16 37 0 13 -9 29 -20 36 -11 7 -20 22 -20 33
0 14 -16 29 -50 48 -65 36 -137 43 -205 19z"/>
<path d="M298 383 c7 -3 16 -2 19 1 4 3 -2 6 -13 5 -11 0 -14 -3 -6 -6z"/>
</g>
</svg>
