<?xml version="1.0" standalone="no"?>
<!DOCTYPE svg PUBLIC "-//W3C//DTD SVG 20010904//EN"
 "http://www.w3.org/TR/2001/REC-SVG-20010904/DTD/svg10.dtd">
<svg version="1.0" xmlns="http://www.w3.org/2000/svg"
 width="69.000000pt" height="50.000000pt" viewBox="0 0 69.000000 50.000000"
 preserveAspectRatio="xMidYMid meet">
<metadata>
Created by potrace 1.16, written by Peter Selinger 2001-2019
</metadata>
<g transform="translate(0.000000,50.000000) scale(0.100000,-0.100000)"
fill="#000000" stroke="none">
<path d="M440 493 c-92 -4 -303 -33 -347 -48 -58 -20 -73 -58 -73 -181 0 -107
22 -208 53 -239 9 -8 29 -15 44 -15 27 0 31 5 50 67 12 38 18 72 15 78 -3 5
-7 27 -8 49 -1 21 -7 43 -13 49 -15 15 -14 62 2 75 26 22 204 50 393 61 117 7
134 14 134 51 -1 8 -12 23 -26 34 -26 19 -90 24 -224 19z"/>
</g>
</svg>
