<?xml version="1.0" standalone="no"?>
<!DOCTYPE svg PUBLIC "-//W3C//DTD SVG 20010904//EN"
 "http://www.w3.org/TR/2001/REC-SVG-20010904/DTD/svg10.dtd">
<svg version="1.0" xmlns="http://www.w3.org/2000/svg"
 width="74.000000pt" height="77.000000pt" viewBox="0 0 74.000000 77.000000"
 preserveAspectRatio="xMidYMid meet">
<metadata>
Created by potrace 1.16, written by Peter Selinger 2001-2019
</metadata>
<g transform="translate(0.000000,77.000000) scale(0.100000,-0.100000)"
fill="#000000" stroke="none">
<path d="M310 747 c-119 -32 -241 -87 -269 -121 -7 -8 -11 -34 -9 -58 3 -36 8
-45 33 -58 17 -8 47 -25 67 -37 23 -14 63 -24 108 -29 58 -5 68 -9 59 -20 -9
-11 -5 -14 22 -14 19 0 47 -7 63 -15 15 -8 36 -15 45 -15 29 0 120 -69 149
-113 15 -23 30 -43 35 -45 4 -2 7 -18 7 -35 -1 -53 -34 -68 -156 -75 -104 -5
-175 4 -282 35 l-52 15 27 32 c16 18 40 42 55 52 33 23 36 50 7 59 -46 15
-163 -37 -188 -83 -5 -9 -12 -38 -15 -64 -6 -44 -4 -50 26 -81 24 -24 46 -36
78 -41 24 -4 49 -11 55 -15 13 -11 95 -19 95 -9 0 10 37 10 43 0 3 -4 51 -8
107 -10 134 -3 222 21 262 72 16 19 28 42 28 50 0 8 4 18 10 21 15 9 12 57 -5
79 -8 11 -15 31 -15 46 0 30 -101 137 -119 126 -7 -5 -8 -1 -4 10 4 12 3 15
-5 10 -7 -4 -12 -2 -12 5 0 7 -3 9 -7 6 -3 -4 -16 1 -27 11 -39 36 -170 94
-236 107 -19 3 -46 15 -60 25 -20 16 -23 22 -14 37 16 25 67 37 170 37 98 1
124 12 124 50 0 41 -21 54 -95 58 -38 2 -86 0 -105 -5z"/>
</g>
</svg>
