<?xml version="1.0" standalone="no"?>
<!DOCTYPE svg PUBLIC "-//W3C//DTD SVG 20010904//EN"
 "http://www.w3.org/TR/2001/REC-SVG-20010904/DTD/svg10.dtd">
<svg version="1.0" xmlns="http://www.w3.org/2000/svg"
 width="71.000000pt" height="77.000000pt" viewBox="0 0 71.000000 77.000000"
 preserveAspectRatio="xMidYMid meet">
<metadata>
Created by potrace 1.16, written by Peter Selinger 2001-2019
</metadata>
<g transform="translate(0.000000,77.000000) scale(0.100000,-0.100000)"
fill="#000000" stroke="none">
<path d="M130 739 c-34 -12 -65 -31 -82 -51 -25 -29 -27 -37 -22 -92 6 -72 30
-107 107 -166 29 -21 66 -50 82 -63 17 -13 49 -34 73 -46 24 -12 45 -28 48
-36 3 -7 11 -12 18 -9 6 2 21 -4 31 -13 30 -27 73 -53 88 -53 7 0 28 -13 47
-29 26 -22 32 -32 24 -41 -27 -27 -370 -38 -395 -13 -18 18 7 60 42 72 39 14
39 46 -1 59 -45 16 -95 -3 -142 -53 -37 -39 -41 -48 -41 -97 0 -45 3 -55 23
-65 44 -22 185 -34 370 -31 165 3 189 5 215 23 17 11 33 18 38 17 4 -1 7 2 7
8 0 5 7 7 15 4 13 -5 13 -2 0 30 -12 28 -12 34 -2 30 10 -4 12 3 9 26 -2 17
-10 30 -19 30 -8 0 -11 5 -8 10 3 6 -2 13 -12 17 -17 6 -80 55 -129 100 -13
12 -40 27 -61 34 -21 7 -59 28 -84 46 -26 18 -51 33 -55 33 -5 1 -47 27 -94
59 -84 57 -85 58 -88 103 l-3 46 51 11 c76 16 158 13 220 -10 30 -11 63 -23
73 -26 13 -4 21 4 33 32 l16 38 -34 29 c-18 15 -49 30 -68 33 -19 3 -51 10
-71 15 -55 15 -158 10 -219 -11z"/>
</g>
</svg>
