<?xml version="1.0" standalone="no"?>
<!DOCTYPE svg PUBLIC "-//W3C//DTD SVG 20010904//EN"
 "http://www.w3.org/TR/2001/REC-SVG-20010904/DTD/svg10.dtd">
<svg version="1.0" xmlns="http://www.w3.org/2000/svg"
 width="74.000000pt" height="84.000000pt" viewBox="0 0 74.000000 84.000000"
 preserveAspectRatio="xMidYMid meet">
<metadata>
Created by potrace 1.16, written by Peter Selinger 2001-2019
</metadata>
<g transform="translate(0.000000,84.000000) scale(0.100000,-0.100000)"
fill="#000000" stroke="none">
<path d="M128 813 c-19 -23 -32 -69 -64 -228 -59 -289 -61 -302 -38 -361 17
-47 81 -143 96 -144 4 0 36 -18 72 -41 l65 -40 85 5 c61 3 91 10 102 21 9 9
30 19 46 22 17 3 45 24 70 52 23 25 37 39 33 31 -7 -12 -5 -12 11 1 10 9 30
19 44 22 39 9 93 70 85 96 -5 16 -15 21 -41 21 -19 0 -34 -4 -34 -10 0 -5 -6
-10 -14 -10 -18 0 -111 -36 -167 -66 -26 -13 -59 -24 -74 -24 -14 0 -33 -6
-41 -14 -10 -10 -21 -12 -41 -5 -16 5 -44 11 -65 14 -22 3 -51 20 -77 43 -35
31 -43 47 -53 96 -11 56 -10 59 13 77 13 10 32 19 41 19 10 0 32 6 50 14 46
19 111 35 190 46 119 17 168 52 124 89 -18 15 -221 9 -319 -10 -37 -7 -70 -9
-74 -6 -3 4 1 44 10 89 27 139 29 159 16 189 -13 33 -29 37 -51 12z"/>
</g>
</svg>
