<?xml version="1.0" standalone="no"?>
<!DOCTYPE svg PUBLIC "-//W3C//DTD SVG 20010904//EN"
 "http://www.w3.org/TR/2001/REC-SVG-20010904/DTD/svg10.dtd">
<svg version="1.0" xmlns="http://www.w3.org/2000/svg"
 width="97.000000pt" height="77.000000pt" viewBox="0 0 97.000000 77.000000"
 preserveAspectRatio="xMidYMid meet">
<metadata>
Created by potrace 1.16, written by Peter Selinger 2001-2019
</metadata>
<g transform="translate(0.000000,77.000000) scale(0.100000,-0.100000)"
fill="#000000" stroke="none">
<path d="M49 749 c-13 -10 -29 -19 -34 -19 -6 0 -9 -17 -7 -40 6 -63 27 -71
215 -86 185 -16 181 -14 221 -115 29 -73 38 -150 40 -334 0 -66 5 -125 9 -132
13 -20 71 -9 98 18 44 43 50 69 23 109 -17 24 -24 49 -24 79 0 25 -4 58 -9 75
-16 50 -52 198 -58 233 -3 23 -1 34 8 37 8 3 92 9 187 15 203 12 242 26 242
88 0 54 -16 56 -335 58 -159 1 -333 7 -385 13 -165 21 -165 21 -191 1z"/>
</g>
</svg>
