<?xml version="1.0" standalone="no"?>
<!DOCTYPE svg PUBLIC "-//W3C//DTD SVG 20010904//EN"
 "http://www.w3.org/TR/2001/REC-SVG-20010904/DTD/svg10.dtd">
<svg version="1.0" xmlns="http://www.w3.org/2000/svg"
 width="72.000000pt" height="98.000000pt" viewBox="0 0 72.000000 98.000000"
 preserveAspectRatio="xMidYMid meet">
<metadata>
Created by potrace 1.16, written by Peter Selinger 2001-2019
</metadata>
<g transform="translate(0.000000,98.000000) scale(0.100000,-0.100000)"
fill="#000000" stroke="none">
<path d="M510 951 c-17 -33 -11 -55 25 -94 26 -27 38 -52 45 -88 12 -60 11
-349 -1 -349 -4 0 -13 -26 -20 -57 -15 -70 -60 -159 -97 -192 -23 -21 -32 -23
-84 -17 -33 3 -69 11 -81 18 -12 7 -25 11 -29 10 -4 -1 -5 5 -1 14 3 8 2 14
-3 13 -25 -4 -36 2 -30 18 4 10 4 14 0 10 -4 -4 -27 35 -52 85 -45 91 -46 94
-53 228 -5 74 -12 151 -17 171 -10 41 -37 85 -56 92 -18 7 -37 -30 -38 -73 -1
-53 9 -183 15 -200 3 -8 7 -53 10 -100 2 -62 9 -96 25 -127 12 -23 22 -52 22
-63 0 -12 5 -18 10 -15 6 3 10 -1 10 -10 0 -23 98 -124 127 -131 13 -4 23 -10
23 -15 0 -5 18 -20 40 -35 30 -20 51 -26 92 -25 134 2 203 59 264 218 16 43
24 81 21 103 -2 19 0 48 5 65 4 16 13 101 19 189 10 151 10 161 -9 195 -11 20
-23 53 -26 75 -10 55 -62 106 -109 106 -26 0 -39 -6 -47 -19z"/>
</g>
</svg>
