<?xml version="1.0" standalone="no"?>
<!DOCTYPE svg PUBLIC "-//W3C//DTD SVG 20010904//EN"
 "http://www.w3.org/TR/2001/REC-SVG-20010904/DTD/svg10.dtd">
<svg version="1.0" xmlns="http://www.w3.org/2000/svg"
 width="70.000000pt" height="83.000000pt" viewBox="0 0 70.000000 83.000000"
 preserveAspectRatio="xMidYMid meet">
<metadata>
Created by potrace 1.16, written by Peter Selinger 2001-2019
</metadata>
<g transform="translate(0.000000,83.000000) scale(0.100000,-0.100000)"
fill="#000000" stroke="none">
<path d="M639 814 c-13 -7 -32 -13 -41 -14 -10 0 -18 -6 -19 -12 -5 -79 -19
-193 -29 -233 -40 -177 -51 -228 -61 -290 -6 -38 -16 -74 -21 -80 -10 -11 -38
18 -152 156 -38 46 -76 98 -84 116 -9 18 -19 33 -24 33 -4 0 -8 13 -8 29 0 25
-20 71 -89 211 -5 8 -18 20 -31 26 -18 10 -26 9 -41 -4 -20 -17 -26 -72 -8
-72 5 0 8 -4 5 -9 -9 -15 15 -113 34 -141 10 -14 21 -36 24 -50 18 -63 43
-105 111 -188 17 -20 38 -48 47 -62 9 -14 58 -70 109 -125 93 -101 107 -109
141 -78 9 8 29 13 44 11 32 -4 38 10 54 127 16 117 27 177 50 260 31 116 39
177 39 292 0 110 -6 121 -50 97z"/>
</g>
</svg>
