<?xml version="1.0" standalone="no"?>
<!DOCTYPE svg PUBLIC "-//W3C//DTD SVG 20010904//EN"
 "http://www.w3.org/TR/2001/REC-SVG-20010904/DTD/svg10.dtd">
<svg version="1.0" xmlns="http://www.w3.org/2000/svg"
 width="108.000000pt" height="94.000000pt" viewBox="0 0 108.000000 94.000000"
 preserveAspectRatio="xMidYMid meet">
<metadata>
Created by potrace 1.16, written by Peter Selinger 2001-2019
</metadata>
<g transform="translate(0.000000,94.000000) scale(0.100000,-0.100000)"
fill="#000000" stroke="none">
<path d="M934 906 c-3 -13 2 -45 10 -71 12 -34 15 -70 12 -133 -3 -48 -6 -87
-7 -87 -1 0 -7 -52 -14 -115 -24 -216 -44 -318 -70 -353 -12 -17 -18 -18 -52
-6 -20 6 -46 23 -57 36 -15 20 -21 22 -28 11 -7 -9 -8 -6 -5 10 5 19 -24 68
-54 92 -11 9 -46 115 -42 126 2 6 -3 17 -12 24 -8 7 -15 20 -15 29 0 9 -7 26
-15 37 -18 27 -45 103 -45 131 0 12 -4 25 -10 28 -5 3 -10 16 -10 29 0 12 -3
26 -7 30 -5 4 -9 12 -9 17 -1 5 -2 13 -3 17 -2 17 -59 0 -69 -21 -14 -28 -32
-119 -32 -158 0 -17 -9 -42 -20 -56 -11 -14 -20 -35 -20 -47 0 -26 -32 -120
-42 -124 -5 -2 -8 -12 -8 -23 0 -22 -28 -69 -40 -69 -23 0 -64 129 -75 235 -8
79 -25 146 -42 166 -7 8 -13 30 -13 47 0 18 -9 43 -22 57 -17 20 -31 25 -70
25 -49 0 -58 -8 -35 -32 17 -18 37 -65 37 -88 0 -11 9 -47 20 -79 23 -65 36
-128 51 -240 10 -81 58 -194 104 -245 25 -27 27 -27 39 -10 13 17 15 17 39 1
25 -16 27 -16 47 5 11 12 20 28 20 35 0 7 9 32 19 56 11 23 22 61 26 84 4 24
11 45 16 49 5 3 9 20 9 39 0 19 6 38 13 42 6 4 12 17 12 27 0 31 24 30 36 -1
6 -15 15 -35 19 -43 4 -9 11 -31 15 -50 4 -19 13 -46 20 -60 12 -22 19 -41 26
-68 5 -18 80 -104 128 -146 63 -56 81 -61 168 -47 76 12 113 41 113 90 0 15 5
32 10 37 6 6 15 37 20 70 12 70 39 394 46 549 l5 110 -41 28 c-51 34 -87 36
-96 3z"/>
</g>
</svg>
