<?xml version="1.0" standalone="no"?>
<!DOCTYPE svg PUBLIC "-//W3C//DTD SVG 20010904//EN"
 "http://www.w3.org/TR/2001/REC-SVG-20010904/DTD/svg10.dtd">
<svg version="1.0" xmlns="http://www.w3.org/2000/svg"
 width="83.000000pt" height="84.000000pt" viewBox="0 0 83.000000 84.000000"
 preserveAspectRatio="xMidYMid meet">
<metadata>
Created by potrace 1.16, written by Peter Selinger 2001-2019
</metadata>
<g transform="translate(0.000000,84.000000) scale(0.100000,-0.100000)"
fill="#000000" stroke="none">
<path d="M60 815 c-6 -8 -19 -13 -28 -12 -22 3 -24 -9 -11 -57 12 -45 47 -102
101 -165 21 -24 38 -49 38 -55 0 -6 21 -33 46 -60 73 -78 78 -89 60 -123 -8
-15 -38 -52 -66 -82 -27 -29 -50 -61 -50 -70 0 -10 -10 -23 -23 -30 -17 -9
-22 -20 -21 -47 1 -36 1 -36 52 -40 48 -4 52 -2 66 23 8 16 26 39 41 53 15 14
42 46 61 71 54 73 70 72 151 -13 37 -39 84 -88 103 -108 69 -72 160 -124 160
-91 0 6 17 11 38 13 36 3 37 4 40 47 4 52 -25 91 -69 91 -15 0 -30 4 -34 10
-3 5 -12 7 -19 4 -8 -3 -26 12 -45 38 -17 24 -65 74 -106 111 -41 38 -75 74
-75 81 0 7 11 19 25 26 14 7 25 18 25 24 1 6 23 35 50 65 28 30 50 58 50 63 0
9 35 50 103 121 24 26 37 49 37 67 0 30 -33 66 -51 55 -14 -9 -79 -80 -129
-142 -64 -78 -109 -130 -142 -162 -21 -21 -38 -43 -38 -49 0 -5 -9 -8 -20 -5
-11 3 -20 8 -20 12 0 4 -21 30 -47 58 -88 93 -193 230 -193 251 0 7 -36 42
-44 42 -2 0 -9 -7 -16 -15z"/>
</g>
</svg>
