<?xml version="1.0" standalone="no"?>
<!DOCTYPE svg PUBLIC "-//W3C//DTD SVG 20010904//EN"
 "http://www.w3.org/TR/2001/REC-SVG-20010904/DTD/svg10.dtd">
<svg version="1.0" xmlns="http://www.w3.org/2000/svg"
 width="70.000000pt" height="104.000000pt" viewBox="0 0 70.000000 104.000000"
 preserveAspectRatio="xMidYMid meet">
<metadata>
Created by potrace 1.16, written by Peter Selinger 2001-2019
</metadata>
<g transform="translate(0.000000,104.000000) scale(0.100000,-0.100000)"
fill="#000000" stroke="none">
<path d="M32 1020 c-14 -24 -16 -106 -2 -181 5 -30 11 -84 14 -120 2 -37 9
-75 14 -85 5 -11 22 -48 38 -83 34 -74 72 -108 129 -113 38 -3 40 -5 37 -33
-2 -16 -11 -38 -20 -49 -9 -10 -16 -20 -14 -22 5 -9 1 -22 -16 -40 -10 -10
-27 -37 -37 -59 -11 -22 -36 -60 -55 -84 -19 -23 -33 -45 -32 -48 2 -3 -2 -10
-10 -14 -11 -8 -11 -10 0 -18 8 -4 14 -12 14 -17 0 -13 17 -41 18 -29 0 6 19
11 43 13 23 1 44 8 46 13 2 6 16 26 32 44 16 18 29 37 29 43 0 5 6 15 14 22 8
6 12 18 10 25 -3 7 10 31 29 52 41 46 118 173 112 184 -3 4 4 10 15 14 14 4
20 15 20 34 0 17 11 38 30 56 25 24 30 37 30 76 0 50 16 99 33 99 5 0 7 10 4
22 -4 14 4 36 26 67 42 61 88 111 103 111 19 0 4 41 -25 66 l-26 23 -40 -22
c-26 -15 -48 -38 -64 -69 -14 -27 -31 -48 -37 -48 -6 0 -11 -12 -11 -26 0 -15
-5 -29 -11 -33 -6 -3 -12 -18 -14 -31 -2 -14 -19 -52 -38 -85 -19 -33 -33 -64
-32 -69 7 -23 -41 -54 -94 -61 -47 -6 -58 -4 -83 17 -17 13 -30 30 -30 39 -1
8 -6 20 -12 26 -18 18 -51 205 -53 303 -2 87 -52 141 -84 90z"/>
</g>
</svg>
