<?xml version="1.0" standalone="no"?>
<!DOCTYPE svg PUBLIC "-//W3C//DTD SVG 20010904//EN"
 "http://www.w3.org/TR/2001/REC-SVG-20010904/DTD/svg10.dtd">
<svg version="1.0" xmlns="http://www.w3.org/2000/svg"
 width="108.000000pt" height="104.000000pt" viewBox="0 0 108.000000 104.000000"
 preserveAspectRatio="xMidYMid meet">
<metadata>
Created by potrace 1.16, written by Peter Selinger 2001-2019
</metadata>
<g transform="translate(0.000000,104.000000) scale(0.100000,-0.100000)"
fill="#000000" stroke="none">
<path d="M215 1009 c-22 -4 -62 -12 -90 -18 -57 -11 -85 -20 -86 -30 -6 -45
-4 -60 7 -83 12 -24 17 -26 41 -18 16 5 73 18 128 29 186 35 275 22 275 -40 0
-17 -3 -28 -7 -26 -5 3 -8 -17 -9 -45 0 -27 -5 -53 -10 -56 -5 -4 -18 -20 -28
-37 -21 -32 -23 -34 -59 -79 l-24 -30 -137 13 c-123 11 -140 11 -155 -3 -10
-9 -21 -13 -24 -9 -13 12 -7 -53 5 -66 11 -11 11 -13 0 -7 -6 4 -12 3 -12 -3
0 -11 13 -20 37 -26 46 -12 112 -25 147 -30 36 -6 38 -8 32 -36 -3 -16 -20
-44 -37 -63 -17 -19 -31 -38 -31 -43 0 -4 -8 -20 -19 -34 -17 -24 -36 -118
-30 -149 2 -8 15 -25 29 -38 23 -21 24 -22 5 -13 -13 7 -23 8 -23 3 0 -18 28
-33 67 -37 21 -2 58 -8 83 -14 37 -9 64 -6 160 15 63 13 140 30 170 36 30 6
60 15 65 19 6 4 34 10 62 14 29 4 55 11 58 15 3 4 29 11 57 15 29 4 70 14 92
21 21 8 47 14 58 14 31 0 50 26 46 62 -3 26 -11 37 -38 50 -43 22 -123 24
-143 3 -8 -8 -32 -19 -54 -24 -21 -6 -65 -17 -98 -25 -33 -9 -73 -16 -90 -16
-16 0 -64 -11 -105 -24 -100 -31 -262 -43 -281 -20 -8 10 -9 18 -2 22 5 4 26
33 47 65 51 82 124 157 171 178 22 10 62 19 88 19 26 0 64 7 84 15 19 8 43 15
53 15 19 0 148 41 167 53 13 9 11 63 -3 77 -5 4 -45 4 -89 -1 -189 -21 -212
-22 -220 -9 -7 12 12 59 30 72 5 4 7 8 3 8 -4 0 2 21 13 48 18 41 20 58 14
132 -4 47 -7 93 -8 102 -1 9 -3 15 -5 13 -2 -2 -13 5 -25 16 -19 17 -35 19
-166 18 -80 -1 -164 -5 -186 -10z"/>
</g>
</svg>
