<?xml version="1.0" standalone="no"?>
<!DOCTYPE svg PUBLIC "-//W3C//DTD SVG 20010904//EN"
 "http://www.w3.org/TR/2001/REC-SVG-20010904/DTD/svg10.dtd">
<svg version="1.0" xmlns="http://www.w3.org/2000/svg"
 width="95.000000pt" height="70.000000pt" viewBox="0 0 95.000000 70.000000"
 preserveAspectRatio="xMidYMid meet">
<metadata>
Created by potrace 1.16, written by Peter Selinger 2001-2019
</metadata>
<g transform="translate(0.000000,70.000000) scale(0.100000,-0.100000)"
fill="#000000" stroke="none">
<path d="M294 679 c-41 -12 -142 -119 -150 -158 -4 -17 -10 -31 -14 -31 -4 0
-11 -11 -14 -25 -4 -14 -11 -25 -16 -25 -6 0 -10 -9 -10 -20 0 -21 -18 -66
-57 -143 -39 -76 -29 -169 23 -218 24 -22 33 -24 122 -22 60 0 98 5 100 12 2
6 11 11 21 11 9 0 32 11 51 25 18 14 48 28 67 31 29 5 39 1 82 -38 69 -62 138
-83 226 -69 36 5 78 19 94 30 16 12 35 21 43 21 33 0 64 53 60 100 -3 25 -122
11 -162 -19 -26 -19 -39 -22 -73 -17 -89 14 -154 79 -149 149 1 15 -2 27 -8
27 -5 0 -10 7 -10 15 0 8 -6 15 -12 15 -8 1 -6 6 4 14 17 12 17 14 -1 30 -13
11 -21 36 -24 69 -8 85 -40 184 -72 217 -30 32 -61 37 -121 19z m84 -136 c6
-21 15 -58 20 -83 5 -28 13 -45 21 -45 8 0 16 -6 19 -12 2 -7 -1 -13 -7 -13
-6 0 -11 -14 -11 -31 0 -41 -81 -147 -113 -149 -5 0 -23 -10 -40 -22 -17 -13
-49 -28 -71 -35 -32 -10 -43 -9 -62 4 -28 18 -30 26 -8 44 10 8 13 21 9 38 -6
22 -5 23 11 10 15 -12 17 -12 12 1 -2 8 4 38 14 65 10 28 21 58 25 68 3 9 9
17 14 17 5 0 8 3 7 8 -1 4 4 20 10 35 7 16 12 32 12 36 0 5 19 29 43 55 54 57
80 60 95 9z"/>
</g>
</svg>
