<?xml version="1.0" standalone="no"?>
<!DOCTYPE svg PUBLIC "-//W3C//DTD SVG 20010904//EN"
 "http://www.w3.org/TR/2001/REC-SVG-20010904/DTD/svg10.dtd">
<svg version="1.0" xmlns="http://www.w3.org/2000/svg"
 width="81.000000pt" height="98.000000pt" viewBox="0 0 81.000000 98.000000"
 preserveAspectRatio="xMidYMid meet">
<metadata>
Created by potrace 1.16, written by Peter Selinger 2001-2019
</metadata>
<g transform="translate(0.000000,98.000000) scale(0.100000,-0.100000)"
fill="#000000" stroke="none">
<path d="M302 952 c-48 -26 -109 -88 -129 -133 -10 -21 -21 -39 -26 -39 -4 0
-17 20 -29 44 -18 38 -25 43 -50 41 -52 -4 -72 -56 -43 -111 8 -16 15 -37 15
-46 0 -9 4 -19 9 -23 6 -3 17 -39 26 -80 13 -59 16 -106 12 -227 -3 -84 -6
-157 -7 -163 -2 -23 21 -110 35 -132 13 -19 19 -21 41 -13 14 6 35 10 47 10
21 0 22 4 22 105 0 58 -3 105 -7 105 -26 0 -42 120 -18 135 5 3 88 7 187 10
98 3 186 8 195 11 13 4 19 -2 24 -23 3 -15 8 -37 12 -48 13 -47 33 -292 26
-321 -5 -19 -1 -24 19 -29 13 -4 37 -5 52 -3 24 3 28 8 30 40 1 21 -2 38 -7
38 -4 0 -8 20 -8 45 0 27 5 45 12 45 7 0 5 6 -4 18 -9 10 -13 24 -9 36 12 31
5 187 -8 196 -8 5 -10 19 -6 43 6 30 3 40 -19 64 -19 20 -26 39 -26 66 0 23
-4 36 -10 32 -6 -4 -10 14 -9 47 1 91 0 99 -31 136 -16 19 -27 39 -24 43 6 10
-67 66 -110 84 -48 20 -143 19 -184 -3z m153 -108 c17 -8 42 -31 56 -52 29
-41 73 -177 65 -198 -3 -8 0 -15 7 -15 21 -3 -96 -20 -138 -21 -42 -1 -175 10
-212 18 -21 4 -23 10 -23 64 0 48 3 60 16 60 9 0 14 7 13 18 -1 9 4 30 11 45
12 24 12 30 -1 39 -11 8 -10 9 5 4 12 -4 31 3 54 21 59 46 79 48 147 17z m252
-356 c-3 -7 -5 -2 -5 12 0 14 2 19 5 13 2 -7 2 -19 0 -25z"/>
</g>
</svg>
