<?xml version="1.0" standalone="no"?>
<!DOCTYPE svg PUBLIC "-//W3C//DTD SVG 20010904//EN"
 "http://www.w3.org/TR/2001/REC-SVG-20010904/DTD/svg10.dtd">
<svg version="1.0" xmlns="http://www.w3.org/2000/svg"
 width="90.000000pt" height="107.000000pt" viewBox="0 0 90.000000 107.000000"
 preserveAspectRatio="xMidYMid meet">
<metadata>
Created by potrace 1.16, written by Peter Selinger 2001-2019
</metadata>
<g transform="translate(0.000000,107.000000) scale(0.100000,-0.100000)"
fill="#000000" stroke="none">
<path d="M310 1049 c-30 -5 -64 -16 -77 -24 -12 -8 -29 -15 -38 -15 -23 0
-158 -140 -179 -187 -23 -52 -15 -77 35 -106 35 -19 40 -26 36 -52 -4 -25 3
-118 16 -250 2 -11 9 -39 16 -63 12 -35 12 -54 2 -110 -20 -101 -23 -144 -9
-136 7 5 9 0 6 -14 -4 -13 -2 -20 4 -16 11 7 68 -15 68 -26 0 -15 65 -33 130
-35 70 -3 207 25 277 56 24 11 49 19 56 19 7 0 31 13 53 29 22 16 52 33 66 36
39 10 78 50 78 80 0 14 4 25 8 25 9 0 13 24 15 88 1 37 -3 47 -33 75 -57 53
-114 87 -145 87 -26 0 -123 30 -172 52 -26 13 -20 34 13 42 19 5 24 13 24 40
0 25 7 38 25 50 14 9 25 25 25 35 0 10 3 21 7 25 11 11 14 48 3 41 -6 -4 -10
6 -10 24 0 22 4 29 14 25 14 -5 -41 108 -74 152 -37 51 -131 72 -240 53z m167
-147 c18 -24 31 -48 28 -52 -3 -5 -1 -27 4 -50 7 -33 6 -42 -5 -47 -8 -3 -14
-14 -14 -25 0 -14 -5 -18 -15 -14 -10 3 -28 -11 -53 -44 -20 -27 -51 -56 -69
-65 -29 -14 -31 -18 -23 -41 12 -31 55 -69 95 -85 17 -6 44 -17 61 -25 16 -7
49 -16 72 -20 23 -3 40 -10 37 -14 -3 -4 19 -11 48 -14 37 -5 61 -15 85 -36
38 -35 38 -38 11 -84 -17 -30 -86 -76 -113 -76 -4 0 -14 -6 -21 -14 -8 -8 -38
-21 -67 -29 -181 -51 -261 -50 -321 5 -24 21 -16 47 29 96 41 44 43 85 6 118
-13 11 -24 30 -25 42 -1 12 -5 22 -9 22 -5 0 -6 11 -2 24 3 14 -1 39 -11 60
-11 23 -18 65 -19 123 -1 54 -8 98 -17 113 -15 26 -20 80 -7 80 4 0 24 17 45
38 45 45 93 61 178 59 57 -2 60 -3 92 -45z"/>
</g>
</svg>
