<?xml version="1.0" standalone="no"?>
<!DOCTYPE svg PUBLIC "-//W3C//DTD SVG 20010904//EN"
 "http://www.w3.org/TR/2001/REC-SVG-20010904/DTD/svg10.dtd">
<svg version="1.0" xmlns="http://www.w3.org/2000/svg"
 width="54.000000pt" height="94.000000pt" viewBox="0 0 54.000000 94.000000"
 preserveAspectRatio="xMidYMid meet">
<metadata>
Created by potrace 1.16, written by Peter Selinger 2001-2019
</metadata>
<g transform="translate(0.000000,94.000000) scale(0.100000,-0.100000)"
fill="#000000" stroke="none">
<path d="M105 912 c-25 -21 -28 -45 -13 -102 17 -68 24 -231 16 -363 -5 -68
-9 -82 -37 -117 -17 -22 -34 -53 -38 -70 -3 -17 -11 -47 -18 -66 -8 -24 -9
-49 -3 -77 5 -23 10 -50 11 -61 4 -35 64 -57 147 -54 110 4 296 77 308 120 2
10 8 18 13 18 5 0 9 9 9 19 0 11 5 23 11 26 6 4 9 31 8 61 -2 29 0 57 4 61 10
9 9 25 -2 19 -8 -5 -23 38 -25 72 -1 7 -12 19 -26 27 -24 14 -32 18 -75 35
-24 10 -95 27 -147 35 l-37 6 13 37 c11 33 11 41 -6 71 -13 22 -18 45 -14 63
4 18 -2 40 -15 63 -18 29 -19 38 -8 51 9 11 10 17 2 22 -6 4 -15 21 -19 37 -4
17 -11 35 -16 41 -5 7 -7 17 -6 24 5 20 -15 21 -37 2z m280 -569 c34 -39 39
-59 25 -107 -13 -45 -68 -94 -129 -115 -45 -15 -164 -14 -179 1 -18 18 -15 52
8 81 11 14 20 30 20 36 0 6 5 11 10 11 6 0 10 7 10 16 0 25 67 102 93 107 12
3 43 4 70 2 36 -3 53 -10 72 -32z"/>
</g>
</svg>
