<?xml version="1.0" standalone="no"?>
<!DOCTYPE svg PUBLIC "-//W3C//DTD SVG 20010904//EN"
 "http://www.w3.org/TR/2001/REC-SVG-20010904/DTD/svg10.dtd">
<svg version="1.0" xmlns="http://www.w3.org/2000/svg"
 width="95.000000pt" height="80.000000pt" viewBox="0 0 95.000000 80.000000"
 preserveAspectRatio="xMidYMid meet">
<metadata>
Created by potrace 1.16, written by Peter Selinger 2001-2019
</metadata>
<g transform="translate(0.000000,80.000000) scale(0.100000,-0.100000)"
fill="#000000" stroke="none">
<path d="M320 785 c-42 -16 -80 -19 -80 -5 0 6 -8 5 -20 -2 -11 -7 -18 -19
-15 -25 2 -8 -3 -13 -13 -13 -10 0 -38 -21 -64 -47 -45 -47 -72 -108 -107
-240 -17 -64 -20 -154 -6 -188 7 -16 16 -43 20 -60 7 -35 110 -140 152 -156
76 -29 261 -45 298 -25 11 5 34 11 50 11 54 2 215 37 215 46 0 5 13 9 28 9 23
0 148 36 161 46 11 9 -34 105 -56 119 -24 16 -28 16 -69 0 -24 -9 -44 -21 -44
-26 0 -5 -10 -9 -23 -9 -12 0 -33 -8 -47 -17 -13 -9 -42 -20 -64 -24 -130 -25
-166 -30 -230 -33 -83 -3 -171 16 -200 43 -12 11 -27 21 -35 23 -22 5 -45 31
-57 65 -13 34 -4 170 11 181 11 8 30 45 42 82 8 25 10 35 12 57 0 6 10 14 21
18 11 3 31 19 46 34 19 20 35 28 55 27 16 -1 29 2 29 7 0 14 149 0 163 -16 7
-7 23 -34 36 -60 15 -29 31 -48 42 -48 11 -1 24 -2 30 -3 32 -3 11 113 -26
144 -8 7 -15 20 -15 29 0 22 -43 46 -108 60 -66 14 -88 13 -132 -4z"/>
</g>
</svg>
