<?xml version="1.0" standalone="no"?>
<!DOCTYPE svg PUBLIC "-//W3C//DTD SVG 20010904//EN"
 "http://www.w3.org/TR/2001/REC-SVG-20010904/DTD/svg10.dtd">
<svg version="1.0" xmlns="http://www.w3.org/2000/svg"
 width="81.000000pt" height="86.000000pt" viewBox="0 0 81.000000 86.000000"
 preserveAspectRatio="xMidYMid meet">
<metadata>
Created by potrace 1.16, written by Peter Selinger 2001-2019
</metadata>
<g transform="translate(0.000000,86.000000) scale(0.100000,-0.100000)"
fill="#000000" stroke="none">
<path d="M385 831 c-17 -4 -42 -15 -55 -23 -14 -9 -36 -19 -50 -23 -54 -16
-190 -174 -190 -221 0 -10 -6 -14 -15 -10 -9 3 -15 0 -15 -9 0 -8 -4 -15 -9
-15 -5 0 -7 -8 -4 -19 3 -10 0 -22 -6 -25 -6 -4 -11 -29 -11 -57 0 -34 -4 -49
-14 -49 -15 0 -12 -81 6 -143 12 -39 104 -147 125 -147 7 0 47 -19 90 -42 78
-42 78 -42 183 -41 77 1 107 5 115 16 5 7 31 17 57 20 45 6 170 62 176 79 2 4
8 6 13 2 5 -3 9 15 9 40 0 37 -4 48 -24 62 -22 13 -33 14 -83 4 -32 -7 -66
-19 -75 -27 -9 -8 -22 -12 -28 -8 -6 4 -19 0 -28 -8 -9 -8 -32 -19 -51 -26
-40 -13 -207 -15 -215 -2 -3 5 -21 12 -40 15 -44 8 -123 78 -134 119 -11 41
-5 126 13 174 7 21 14 32 14 26 1 -7 6 -13 12 -13 6 0 8 8 5 18 -6 19 14 62
28 59 5 -1 18 15 28 35 11 21 33 49 50 63 16 14 26 25 21 25 -16 1 31 30 48
30 10 0 30 5 46 11 89 36 138 10 168 -91 9 -30 52 -72 60 -59 4 5 0 9 -7 10
-7 0 -3 5 9 11 19 9 21 17 18 72 -1 33 -9 75 -16 91 -14 31 -49 75 -49 61 0
-4 -10 0 -22 8 -24 17 -98 20 -153 7z"/>
<path d="M628 583 c7 -3 16 -2 19 1 4 3 -2 6 -13 5 -11 0 -14 -3 -6 -6z"/>
</g>
</svg>
