<?xml version="1.0" standalone="no"?>
<!DOCTYPE svg PUBLIC "-//W3C//DTD SVG 20010904//EN"
 "http://www.w3.org/TR/2001/REC-SVG-20010904/DTD/svg10.dtd">
<svg version="1.0" xmlns="http://www.w3.org/2000/svg"
 width="84.000000pt" height="99.000000pt" viewBox="0 0 84.000000 99.000000"
 preserveAspectRatio="xMidYMid meet">
<metadata>
Created by potrace 1.16, written by Peter Selinger 2001-2019
</metadata>
<g transform="translate(0.000000,99.000000) scale(0.100000,-0.100000)"
fill="#000000" stroke="none">
<path d="M155 964 c-58 -18 -110 -71 -120 -123 -6 -30 -3 -37 29 -63 37 -31
45 -55 24 -76 -10 -10 -10 -15 -1 -20 6 -4 14 -47 17 -97 3 -49 11 -115 17
-145 6 -30 13 -77 15 -105 11 -131 22 -150 89 -153 l45 -2 0 38 c0 21 -5 43
-10 48 -12 12 -16 41 -35 229 -8 86 -20 146 -34 178 -12 27 -21 53 -21 59 0 5
-9 22 -19 37 -10 14 -21 37 -22 50 -3 19 2 25 31 35 20 7 50 9 70 5 19 -4 51
-10 70 -13 68 -10 154 -68 244 -165 58 -62 133 -176 141 -214 4 -18 11 -37 16
-43 5 -6 2 -33 -7 -65 -11 -40 -28 -66 -62 -99 -57 -54 -138 -97 -197 -102
-19 -2 -29 -8 -27 -16 1 -8 -1 -12 -5 -9 -5 2 -55 -2 -113 -8 -99 -12 -160
-10 -160 4 0 3 -12 19 -25 34 -21 24 -31 27 -55 22 -17 -4 -30 -13 -30 -21 0
-9 -4 -13 -9 -10 -5 3 -7 -9 -6 -27 2 -17 3 -42 4 -54 2 -36 57 -62 137 -65
90 -3 201 7 217 20 6 5 38 12 70 16 39 4 82 19 132 46 41 22 83 40 93 40 19 0
64 44 122 120 33 42 35 49 38 140 4 91 3 97 -22 127 -14 17 -26 38 -26 46 0
19 -32 77 -42 77 -5 0 -8 6 -8 13 0 14 -220 248 -233 247 -4 0 -25 11 -46 24
-46 29 -143 56 -197 55 -22 0 -61 -7 -89 -15z"/>
</g>
</svg>
