<?xml version="1.0" standalone="no"?>
<!DOCTYPE svg PUBLIC "-//W3C//DTD SVG 20010904//EN"
 "http://www.w3.org/TR/2001/REC-SVG-20010904/DTD/svg10.dtd">
<svg version="1.0" xmlns="http://www.w3.org/2000/svg"
 width="104.000000pt" height="97.000000pt" viewBox="0 0 104.000000 97.000000"
 preserveAspectRatio="xMidYMid meet">
<metadata>
Created by potrace 1.16, written by Peter Selinger 2001-2019
</metadata>
<g transform="translate(0.000000,97.000000) scale(0.100000,-0.100000)"
fill="#000000" stroke="none">
<path d="M439 941 c-32 -26 -41 -147 -14 -188 15 -22 17 -43 12 -145 -5 -119
-5 -120 -43 -176 -68 -99 -187 -229 -231 -253 -35 -19 -49 -5 -57 53 -4 29 -7
58 -6 63 0 6 3 33 5 61 2 27 11 63 20 80 8 16 15 35 15 42 0 6 6 12 13 12 8 0
7 3 -3 10 -12 8 -10 14 14 39 39 40 84 60 124 54 24 -4 32 -10 32 -25 0 -29
31 -77 54 -84 13 -4 24 0 33 12 18 25 17 80 -3 88 -10 4 -13 13 -9 26 3 11 2
20 -4 20 -5 0 -11 7 -13 16 -4 21 -71 46 -128 49 -38 1 -51 -3 -80 -29 -68
-61 -110 -107 -110 -121 0 -8 -9 -32 -20 -53 -27 -51 -36 -190 -20 -281 10
-53 19 -73 49 -104 34 -36 39 -38 88 -35 29 2 53 6 53 10 0 5 6 8 13 8 7 0 46
34 87 75 41 41 79 75 85 75 5 0 11 -22 13 -48 4 -85 75 -185 131 -185 70 -1
131 9 131 21 0 6 10 12 23 12 12 0 49 21 81 48 33 26 78 60 100 76 23 16 64
49 92 73 44 37 53 50 59 89 7 52 8 49 -24 59 -16 5 -21 4 -17 -4 4 -7 -1 -11
-12 -11 -11 0 -42 -21 -69 -47 -26 -26 -57 -49 -68 -50 -26 -5 -51 -22 -103
-72 -24 -22 -51 -41 -62 -41 -10 0 -25 -7 -34 -15 -19 -19 -51 -19 -81 1 -21
14 -24 21 -19 54 4 21 1 47 -6 59 -9 18 -8 32 4 69 8 26 19 91 25 145 5 54 15
104 21 112 12 15 19 198 9 235 -4 14 -10 38 -13 53 -4 15 -11 25 -16 22 -6 -3
-10 1 -10 10 0 11 -5 15 -15 11 -10 -3 -15 1 -15 12 0 13 -2 14 -9 4 -6 -10
-10 -9 -14 7 -6 26 -28 27 -58 2z"/>
</g>
</svg>
