<?xml version="1.0" standalone="no"?>
<!DOCTYPE svg PUBLIC "-//W3C//DTD SVG 20010904//EN"
 "http://www.w3.org/TR/2001/REC-SVG-20010904/DTD/svg10.dtd">
<svg version="1.0" xmlns="http://www.w3.org/2000/svg"
 width="96.000000pt" height="69.000000pt" viewBox="0 0 96.000000 69.000000"
 preserveAspectRatio="xMidYMid meet">
<metadata>
Created by potrace 1.16, written by Peter Selinger 2001-2019
</metadata>
<g transform="translate(0.000000,69.000000) scale(0.100000,-0.100000)"
fill="#000000" stroke="none">
<path d="M297 659 c-10 -6 -29 -8 -42 -5 -19 5 -35 -5 -84 -53 -37 -36 -61
-68 -61 -81 0 -11 -7 -23 -15 -26 -12 -5 -13 -10 -5 -20 9 -10 3 -13 -32 -16
l-43 -3 1 -79 1 -80 45 -40 c49 -44 73 -80 63 -96 -9 -14 42 -58 76 -65 16 -4
29 -13 29 -20 0 -18 39 -40 63 -36 9 1 17 -2 17 -8 0 -5 8 -10 18 -11 9 0 56
-3 104 -6 70 -5 98 -2 138 12 27 10 50 22 50 26 0 4 8 8 18 8 26 0 158 69 195
102 11 9 32 20 47 23 39 8 58 33 62 79 3 38 2 40 -30 43 -43 5 -119 -20 -195
-66 -34 -20 -82 -43 -107 -50 -25 -7 -56 -18 -70 -23 -40 -16 -183 -22 -208
-9 -36 19 -25 37 41 70 65 33 167 117 167 138 0 6 9 15 20 18 11 3 20 12 20
19 0 8 7 20 16 27 20 16 12 93 -12 120 -8 9 -14 23 -13 31 4 23 -13 48 -32 48
-10 0 -19 5 -19 10 0 6 -5 10 -11 10 -5 0 -7 -6 -4 -12 4 -7 0 -5 -9 6 -12 14
-32 19 -98 22 -50 3 -90 0 -101 -7z m253 -49 c0 -5 -2 -10 -4 -10 -3 0 -8 5
-11 10 -3 6 -1 10 4 10 6 0 11 -4 11 -10z m-125 -41 c117 -32 97 -116 -49
-204 -33 -19 -73 -35 -90 -35 -24 0 -27 -3 -16 -10 11 -7 6 -10 -22 -10 -20 0
-45 -3 -55 -7 -16 -6 -16 -5 -4 10 7 9 10 17 5 17 -10 0 -10 97 0 107 3 4 6
17 6 31 0 26 56 87 94 102 30 12 84 12 131 -1z m172 -121 c-3 -8 -6 -5 -6 6
-1 11 2 17 5 13 3 -3 4 -12 1 -19z"/>
</g>
</svg>
