<?xml version="1.0" standalone="no"?>
<!DOCTYPE svg PUBLIC "-//W3C//DTD SVG 20010904//EN"
 "http://www.w3.org/TR/2001/REC-SVG-20010904/DTD/svg10.dtd">
<svg version="1.0" xmlns="http://www.w3.org/2000/svg"
 width="99.000000pt" height="82.000000pt" viewBox="0 0 99.000000 82.000000"
 preserveAspectRatio="xMidYMid meet">
<metadata>
Created by potrace 1.16, written by Peter Selinger 2001-2019
</metadata>
<g transform="translate(0.000000,82.000000) scale(0.100000,-0.100000)"
fill="#000000" stroke="none">
<path d="M825 799 c-16 -5 -106 -12 -200 -15 -93 -3 -211 -9 -262 -15 -51 -5
-124 -9 -164 -9 -61 0 -76 -4 -110 -27 -43 -31 -51 -67 -24 -113 16 -29 20
-110 5 -110 -5 0 -10 -15 -10 -33 0 -17 -12 -73 -26 -122 -30 -106 -31 -186
-5 -248 24 -56 51 -72 138 -86 134 -21 225 -12 383 36 107 32 130 55 122 121
-3 26 -10 50 -16 54 -17 12 -68 10 -61 -2 3 -5 -2 -10 -12 -10 -10 0 -29 -9
-43 -20 -14 -11 -39 -20 -57 -20 -17 0 -35 -5 -39 -11 -3 -6 -24 -9 -45 -7
-21 2 -40 0 -41 -4 -2 -4 -44 -8 -94 -9 -113 -1 -157 17 -177 74 -4 10 -3 16
2 13 4 -3 8 8 9 24 0 17 12 41 26 56 24 27 25 27 128 21 80 -5 112 -3 143 9
22 9 51 18 65 21 14 3 30 9 35 13 6 5 26 10 45 12 40 3 58 22 56 58 -2 43 -44
55 -150 42 -50 -7 -128 -15 -172 -18 -92 -7 -95 -5 -109 68 -11 56 14 74 101
76 38 1 107 7 154 12 47 5 141 15 210 20 132 11 244 24 296 35 31 7 65 48 51
62 -4 3 -2 12 4 19 7 9 5 14 -10 19 -12 3 -21 11 -21 16 0 11 -85 10 -125 -2z"/>
</g>
</svg>
