<?xml version="1.0" standalone="no"?>
<!DOCTYPE svg PUBLIC "-//W3C//DTD SVG 20010904//EN"
 "http://www.w3.org/TR/2001/REC-SVG-20010904/DTD/svg10.dtd">
<svg version="1.0" xmlns="http://www.w3.org/2000/svg"
 width="98.000000pt" height="85.000000pt" viewBox="0 0 98.000000 85.000000"
 preserveAspectRatio="xMidYMid meet">
<metadata>
Created by potrace 1.16, written by Peter Selinger 2001-2019
</metadata>
<g transform="translate(0.000000,85.000000) scale(0.100000,-0.100000)"
fill="#000000" stroke="none">
<path d="M870 835 c-30 -6 -68 -17 -83 -23 -43 -18 -283 -27 -353 -14 -33 7
-123 13 -201 14 l-141 3 -39 -31 c-35 -29 -38 -36 -36 -79 1 -36 10 -59 40
-102 50 -73 60 -92 68 -130 l7 -33 -42 0 c-62 0 -80 -14 -80 -59 0 -45 3 -46
97 -61 36 -6 72 -18 80 -26 10 -9 19 -47 24 -101 5 -47 14 -92 20 -99 6 -7 8
-17 5 -23 -3 -5 1 -12 10 -15 8 -3 13 -10 9 -15 -9 -16 16 -25 27 -10 7 11 11
11 15 2 2 -7 8 -13 13 -13 11 0 31 60 24 71 -3 5 0 9 6 9 13 0 4 87 -16 145
-15 44 -18 62 -7 52 3 -4 11 1 18 10 8 11 31 17 76 19 35 2 65 8 67 14 2 5 15
10 28 10 13 0 24 4 24 8 0 4 14 13 30 19 35 13 38 35 9 64 -18 18 -28 20 -68
14 -63 -10 -189 -15 -207 -8 -24 9 -41 53 -49 123 -4 36 -14 72 -21 81 -8 9
-12 24 -8 33 7 19 31 20 71 5 39 -15 449 -23 458 -10 3 6 30 11 59 11 40 0 62
6 89 24 19 13 38 21 42 18 9 -9 35 28 35 49 0 10 -10 29 -22 42 -22 23 -26 23
-78 12z"/>
</g>
</svg>
