<?xml version="1.0" standalone="no"?>
<!DOCTYPE svg PUBLIC "-//W3C//DTD SVG 20010904//EN"
 "http://www.w3.org/TR/2001/REC-SVG-20010904/DTD/svg10.dtd">
<svg version="1.0" xmlns="http://www.w3.org/2000/svg"
 width="80.000000pt" height="156.000000pt" viewBox="0 0 80.000000 156.000000"
 preserveAspectRatio="xMidYMid meet">
<metadata>
Created by potrace 1.16, written by Peter Selinger 2001-2019
</metadata>
<g transform="translate(0.000000,156.000000) scale(0.100000,-0.100000)"
fill="#000000" stroke="none">
<path d="M204 1542 c-67 -5 -79 -26 -78 -140 1 -91 28 -212 46 -212 5 0 8 -8
9 -17 0 -10 9 -31 19 -48 49 -77 70 -135 50 -135 -6 0 -8 5 -5 10 9 15 -4 12
-46 -12 -32 -18 -38 -26 -36 -51 1 -22 11 -36 39 -54 31 -21 41 -23 72 -15 35
10 36 10 36 -18 0 -15 9 -47 20 -71 11 -24 20 -54 20 -66 0 -13 5 -23 10 -23
6 0 10 -11 10 -24 0 -14 5 -28 11 -31 14 -9 -46 -40 -117 -60 -58 -16 -90 -29
-171 -66 -104 -49 -87 -125 50 -226 26 -19 60 -47 76 -62 101 -95 143 -132
194 -175 57 -47 59 -48 95 -38 21 6 46 17 56 25 21 15 50 146 35 162 -5 5 -9
23 -9 41 0 17 -7 48 -15 69 -9 20 -15 44 -14 53 3 20 -21 103 -33 117 -12 14
-10 51 5 63 6 5 32 12 57 15 64 8 130 23 168 38 39 16 42 46 8 78 -23 21 -28
22 -58 11 -30 -12 -74 -20 -180 -36 -36 -6 -44 0 -39 29 0 4 -4 7 -9 7 -6 0
-10 8 -10 18 0 10 -7 27 -15 38 -8 10 -15 29 -15 42 0 12 -5 22 -11 22 -6 0
-9 6 -6 13 2 6 -4 33 -14 59 l-19 48 33 37 c17 21 42 48 54 60 90 92 123 215
72 269 -10 11 -19 28 -19 37 0 16 -36 64 -68 91 -7 6 -35 32 -62 59 -27 26
-57 47 -68 47 -10 0 -23 5 -30 12 -13 13 -37 15 -98 10z m88 -124 c100 -51
153 -115 164 -200 6 -40 2 -48 -40 -106 -64 -86 -86 -91 -102 -22 -3 14 -9 32
-14 41 -4 9 -11 37 -15 62 -4 26 -13 51 -21 58 -7 6 -16 26 -20 45 -3 19 -10
34 -15 34 -10 0 -12 93 -2 103 10 11 19 9 65 -15z m132 -951 c20 -26 29 -58
42 -144 10 -61 14 -118 11 -127 -11 -28 -48 -17 -101 30 -28 26 -62 54 -76 63
-14 8 -29 21 -33 28 -4 7 -17 13 -28 13 -11 0 -18 4 -15 8 3 5 -8 22 -24 37
-27 26 -29 30 -14 46 25 28 143 75 196 78 9 1 28 -14 42 -32z"/>
</g>
</svg>
