<?xml version="1.0" standalone="no"?>
<!DOCTYPE svg PUBLIC "-//W3C//DTD SVG 20010904//EN"
 "http://www.w3.org/TR/2001/REC-SVG-20010904/DTD/svg10.dtd">
<svg version="1.0" xmlns="http://www.w3.org/2000/svg"
 width="75.000000pt" height="94.000000pt" viewBox="0 0 75.000000 94.000000"
 preserveAspectRatio="xMidYMid meet">
<metadata>
Created by potrace 1.16, written by Peter Selinger 2001-2019
</metadata>
<g transform="translate(0.000000,94.000000) scale(0.100000,-0.100000)"
fill="#000000" stroke="none">
<path d="M405 921 c-57 -14 -110 -51 -165 -115 -31 -36 -62 -78 -70 -93 -8
-15 -21 -39 -30 -53 -23 -35 -80 -167 -80 -184 0 -8 -5 -27 -11 -43 -22 -55
-30 -171 -16 -221 16 -54 82 -146 98 -136 6 3 18 -3 27 -14 11 -12 37 -22 71
-26 30 -4 62 -11 70 -15 30 -15 177 5 218 30 48 29 53 35 82 90 22 42 26 59
30 115 0 12 20 34 49 54 57 41 62 47 62 85 0 51 -9 56 -74 44 -60 -11 -179 -1
-256 21 -51 15 -74 12 -97 -9 -14 -13 -19 -28 -15 -49 4 -29 10 -33 86 -58 96
-32 126 -55 126 -99 0 -26 -10 -41 -44 -73 -25 -23 -57 -44 -71 -48 -40 -10
-146 4 -165 21 -9 8 -21 15 -27 15 -5 0 -18 9 -27 19 -10 11 -27 22 -39 25
-21 5 -22 10 -19 106 2 107 -3 89 98 306 22 46 112 143 163 176 68 42 90 38
150 -29 28 -31 51 -61 51 -65 0 -4 6 -8 14 -8 8 0 17 -6 20 -12 3 -9 9 -8 20
6 8 10 19 15 24 12 5 -3 9 12 10 33 1 32 -5 46 -33 78 -19 21 -35 41 -35 45 0
4 -26 23 -59 42 -59 36 -80 40 -136 27z"/>
</g>
</svg>
