<?xml version="1.0" standalone="no"?>
<!DOCTYPE svg PUBLIC "-//W3C//DTD SVG 20010904//EN"
 "http://www.w3.org/TR/2001/REC-SVG-20010904/DTD/svg10.dtd">
<svg version="1.0" xmlns="http://www.w3.org/2000/svg"
 width="57.000000pt" height="125.000000pt" viewBox="0 0 57.000000 125.000000"
 preserveAspectRatio="xMidYMid meet">
<metadata>
Created by potrace 1.16, written by Peter Selinger 2001-2019
</metadata>
<g transform="translate(0.000000,125.000000) scale(0.100000,-0.100000)"
fill="#000000" stroke="none">
<path d="M165 1210 c-28 -17 -56 -43 -66 -62 -35 -67 -48 -99 -55 -136 -4 -20
-10 -42 -15 -48 -5 -6 -4 -26 1 -45 6 -18 10 -46 10 -61 0 -14 12 -40 26 -58
62 -73 141 -79 217 -16 66 54 67 54 87 -64 6 -36 16 -77 22 -92 20 -53 -33
-100 -127 -113 -41 -6 -150 -48 -214 -83 -16 -9 -25 -24 -38 -67 -7 -24 -4
-41 14 -83 13 -29 23 -59 23 -67 0 -8 20 -39 45 -69 25 -31 45 -59 45 -64 0
-4 15 -23 34 -41 31 -30 41 -34 88 -33 47 0 59 5 92 34 61 54 106 122 111 167
2 23 13 56 23 74 13 21 23 60 27 112 7 80 16 107 42 133 17 18 17 32 -2 32 -8
0 -15 5 -15 10 0 6 -6 10 -13 10 -9 0 -17 24 -24 73 -12 83 -41 190 -53 197
-11 7 -34 134 -33 178 1 17 -2 32 -5 32 -4 0 -13 15 -20 33 -34 83 -47 100
-97 123 -63 30 -69 29 -130 -6z m109 -112 c28 -66 30 -98 7 -149 -32 -72 -120
-133 -142 -98 -28 44 14 201 69 256 18 18 36 33 40 33 4 0 16 -19 26 -42z
m119 -759 c-6 -38 -20 -81 -30 -96 -10 -14 -30 -44 -44 -67 -20 -32 -32 -42
-58 -44 -26 -3 -38 3 -67 34 -25 28 -32 44 -28 58 6 19 5 20 -11 6 -17 -14
-18 -13 -12 3 8 21 -1 69 -12 63 -4 -3 -13 -1 -21 4 -24 15 8 62 49 72 18 5
44 16 56 24 12 8 24 11 28 8 8 -9 96 15 122 33 31 21 41 -13 28 -98z"/>
</g>
</svg>
