<?xml version="1.0" standalone="no"?>
<!DOCTYPE svg PUBLIC "-//W3C//DTD SVG 20010904//EN"
 "http://www.w3.org/TR/2001/REC-SVG-20010904/DTD/svg10.dtd">
<svg version="1.0" xmlns="http://www.w3.org/2000/svg"
 width="72.000000pt" height="84.000000pt" viewBox="0 0 72.000000 84.000000"
 preserveAspectRatio="xMidYMid meet">
<metadata>
Created by potrace 1.16, written by Peter Selinger 2001-2019
</metadata>
<g transform="translate(0.000000,84.000000) scale(0.100000,-0.100000)"
fill="#000000" stroke="none">
<path d="M442 767 c5 -23 14 -66 18 -95 5 -29 21 -77 35 -107 40 -85 31 -135
-24 -135 -15 0 -46 -6 -71 -13 -28 -8 -75 -12 -123 -9 -91 5 -99 12 -116 107
-6 33 -24 87 -41 121 -24 49 -34 60 -52 59 -20 -1 -24 -9 -31 -64 -7 -50 -6
-66 6 -79 27 -29 39 -74 47 -175 4 -53 12 -103 18 -110 5 -6 12 -34 16 -62 11
-90 22 -150 29 -162 4 -7 24 -17 44 -22 32 -9 40 -8 56 10 21 23 20 56 -7 126
-8 23 -18 60 -22 81 l-6 39 98 13 c55 7 119 19 144 26 69 21 89 18 100 -14 6
-15 15 -36 20 -47 12 -26 32 -174 24 -186 -5 -8 0 -10 39 -13 6 -1 15 -5 19
-11 5 -7 14 -6 25 1 16 10 18 24 15 109 -3 78 -11 119 -38 203 -19 58 -34 111
-34 117 0 6 -9 21 -19 32 -11 12 -18 23 -15 26 7 6 -36 119 -52 138 -8 8 -14
22 -14 30 0 8 -7 25 -16 37 -8 12 -13 26 -9 31 3 5 1 12 -5 16 -6 4 -8 10 -5
15 3 4 -10 8 -29 8 l-33 0 9 -41z"/>
</g>
</svg>
