<?xml version="1.0" standalone="no"?>
<!DOCTYPE svg PUBLIC "-//W3C//DTD SVG 20010904//EN"
 "http://www.w3.org/TR/2001/REC-SVG-20010904/DTD/svg10.dtd">
<svg version="1.0" xmlns="http://www.w3.org/2000/svg"
 width="103.000000pt" height="100.000000pt" viewBox="0 0 103.000000 100.000000"
 preserveAspectRatio="xMidYMid meet">
<metadata>
Created by potrace 1.16, written by Peter Selinger 2001-2019
</metadata>
<g transform="translate(0.000000,100.000000) scale(0.100000,-0.100000)"
fill="#000000" stroke="none">
<path d="M70 980 c0 -7 -7 -9 -16 -6 -9 4 -23 1 -31 -5 -16 -14 -10 -84 12
-134 23 -53 36 -276 26 -445 -11 -183 -3 -299 21 -323 18 -19 38 -22 38 -7 0
6 17 10 38 10 35 0 38 3 55 48 10 26 25 61 32 77 8 17 17 47 21 68 3 21 16 50
29 65 12 15 25 38 28 52 8 31 71 95 86 86 6 -4 11 -17 11 -28 0 -12 7 -29 15
-38 9 -10 17 -31 18 -47 1 -17 7 -29 12 -27 10 4 32 -49 39 -91 6 -37 17 -65
27 -65 5 0 9 -9 9 -19 0 -24 38 -97 66 -125 19 -18 32 -21 105 -20 83 2 85 2
159 51 41 27 88 55 103 63 40 20 61 63 45 90 -8 12 -24 20 -39 20 -22 0 -96
-32 -139 -60 -23 -15 -127 -60 -139 -60 -6 0 -23 19 -38 43 -15 23 -33 47 -40
54 -8 6 -15 20 -16 32 -1 12 -4 21 -8 21 -7 0 -21 71 -21 108 0 12 -6 22 -14
22 -8 0 -11 6 -7 17 5 12 3 14 -7 8 -9 -5 -11 -4 -6 4 5 7 -2 20 -17 31 -13
10 -39 44 -58 75 -33 55 -34 55 -79 53 -39 -3 -51 -9 -94 -53 -27 -27 -55 -63
-62 -80 -13 -32 -50 -72 -59 -63 -3 2 -7 92 -9 199 -2 140 -8 210 -20 253 -16
59 -44 118 -59 124 -4 2 -5 8 -2 12 3 5 1 11 -5 15 -5 3 -10 1 -10 -5z"/>
</g>
</svg>
