<?xml version="1.0" standalone="no"?>
<!DOCTYPE svg PUBLIC "-//W3C//DTD SVG 20010904//EN"
 "http://www.w3.org/TR/2001/REC-SVG-20010904/DTD/svg10.dtd">
<svg version="1.0" xmlns="http://www.w3.org/2000/svg"
 width="52.000000pt" height="93.000000pt" viewBox="0 0 52.000000 93.000000"
 preserveAspectRatio="xMidYMid meet">
<metadata>
Created by potrace 1.16, written by Peter Selinger 2001-2019
</metadata>
<g transform="translate(0.000000,93.000000) scale(0.100000,-0.100000)"
fill="#000000" stroke="none">
<path d="M43 885 c-13 -19 -23 -40 -23 -46 0 -21 42 -70 56 -65 8 3 14 0 14
-6 0 -6 13 7 28 28 16 21 25 41 20 42 -4 2 -5 8 -2 13 3 6 3 22 -1 36 -5 20
-11 24 -30 20 -14 -2 -25 0 -25 4 0 19 -16 7 -37 -26z"/>
<path d="M55 520 c-3 -5 -3 -10 2 -11 4 0 -2 -4 -13 -9 -18 -7 -23 -20 -29
-77 -21 -181 3 -334 62 -396 26 -27 32 -29 88 -24 37 3 78 14 107 30 61 32
157 108 183 144 11 15 30 38 42 51 22 21 22 25 8 57 -7 19 -19 35 -25 35 -5 0
-47 -29 -92 -65 -45 -36 -87 -65 -93 -65 -6 0 -24 -14 -40 -30 -24 -25 -36
-30 -73 -28 -65 2 -74 29 -66 195 6 120 5 130 -16 166 -22 38 -34 45 -45 27z"/>
</g>
</svg>
