<?xml version="1.0" standalone="no"?>
<!DOCTYPE svg PUBLIC "-//W3C//DTD SVG 20010904//EN"
 "http://www.w3.org/TR/2001/REC-SVG-20010904/DTD/svg10.dtd">
<svg version="1.0" xmlns="http://www.w3.org/2000/svg"
 width="100.000000pt" height="60.000000pt" viewBox="0 0 100.000000 60.000000"
 preserveAspectRatio="xMidYMid meet">
<metadata>
Created by potrace 1.16, written by Peter Selinger 2001-2019
</metadata>
<g transform="translate(0.000000,60.000000) scale(0.100000,-0.100000)"
fill="#000000" stroke="none">
<path d="M423 589 c-11 -4 -98 -12 -193 -18 -104 -6 -178 -15 -187 -22 -9 -8
-12 -21 -8 -37 4 -15 2 -21 -5 -17 -6 3 -10 -3 -10 -15 0 -12 5 -18 10 -15 6
3 13 -1 16 -9 3 -9 14 -16 24 -16 11 0 22 -5 26 -11 5 -8 40 -9 123 -3 64 4
131 8 149 9 18 1 35 5 39 9 20 20 36 -25 58 -164 20 -130 19 -131 -131 -127
-105 2 -114 1 -123 -18 -5 -11 -9 -31 -8 -45 4 -44 78 -60 317 -68 251 -9 422
1 456 26 30 22 30 54 1 88 -17 19 -31 26 -53 24 -16 -1 -92 -2 -169 -3 -128
-2 -186 5 -171 21 3 3 -1 16 -10 30 -11 17 -14 36 -10 61 3 21 1 53 -5 72 -27
90 -15 105 91 111 81 4 104 25 92 84 -6 30 -13 39 -37 46 -40 11 -257 16 -282
7z"/>
</g>
</svg>
