<?xml version="1.0" standalone="no"?>
<!DOCTYPE svg PUBLIC "-//W3C//DTD SVG 20010904//EN"
 "http://www.w3.org/TR/2001/REC-SVG-20010904/DTD/svg10.dtd">
<svg version="1.0" xmlns="http://www.w3.org/2000/svg"
 width="68.000000pt" height="76.000000pt" viewBox="0 0 68.000000 76.000000"
 preserveAspectRatio="xMidYMid meet">
<metadata>
Created by potrace 1.16, written by Peter Selinger 2001-2019
</metadata>
<g transform="translate(0.000000,76.000000) scale(0.100000,-0.100000)"
fill="#000000" stroke="none">
<path d="M210 740 c-80 -3 -152 -9 -161 -15 -12 -7 -19 -30 -23 -74 -4 -35 -9
-68 -12 -72 -9 -15 46 -10 79 8 35 18 213 34 279 25 44 -5 45 -13 18 -73 -21
-47 -26 -131 -11 -172 9 -22 59 -87 116 -149 14 -15 25 -33 25 -40 0 -20 -87
-55 -130 -53 -19 1 -70 2 -112 3 -47 1 -78 6 -78 13 0 5 5 7 11 3 9 -5 10 1 5
20 -5 19 -2 28 9 33 12 4 15 13 10 32 -14 55 -30 58 -95 13 -57 -39 -71 -59
-73 -107 -1 -34 4 -50 22 -69 13 -14 26 -24 30 -23 3 0 16 -4 27 -11 12 -6 24
-9 26 -7 3 3 49 1 104 -5 81 -9 113 -7 184 6 100 19 170 50 186 81 6 13 14 20
19 15 15 -14 -7 83 -23 101 -9 10 -38 35 -65 54 -67 49 -117 117 -117 159 0
28 7 38 45 64 25 17 60 37 79 45 37 16 68 66 80 126 5 31 3 38 -24 57 -32 24
-81 25 -430 12z"/>
</g>
</svg>
