<?xml version="1.0" standalone="no"?>
<!DOCTYPE svg PUBLIC "-//W3C//DTD SVG 20010904//EN"
 "http://www.w3.org/TR/2001/REC-SVG-20010904/DTD/svg10.dtd">
<svg version="1.0" xmlns="http://www.w3.org/2000/svg"
 width="76.000000pt" height="141.000000pt" viewBox="0 0 76.000000 141.000000"
 preserveAspectRatio="xMidYMid meet">
<metadata>
Created by potrace 1.16, written by Peter Selinger 2001-2019
</metadata>
<g transform="translate(0.000000,141.000000) scale(0.100000,-0.100000)"
fill="#000000" stroke="none">
<path d="M126 1368 c-9 -12 -16 -34 -16 -49 0 -33 33 -64 57 -54 10 4 50 9 89
10 40 2 82 9 95 16 13 7 27 13 32 14 4 0 7 3 7 8 0 65 -2 66 -132 72 -113 6
-116 6 -132 -17z"/>
<path d="M380 957 c-33 -16 -39 -70 -33 -277 3 -85 1 -166 -4 -179 -9 -22 -16
-24 -72 -25 -48 -1 -66 -5 -76 -19 -7 -10 -15 -13 -17 -7 -4 14 -118 -87 -118
-105 0 -7 -7 -16 -16 -19 -10 -4 -14 -14 -11 -26 3 -11 2 -20 -2 -20 -4 0 -13
-23 -19 -51 -10 -44 -10 -60 5 -105 9 -29 29 -68 45 -85 25 -27 34 -31 62 -26
19 3 38 1 43 -4 16 -16 89 28 131 79 21 26 53 79 72 117 54 112 63 122 123
124 85 4 101 7 105 19 2 7 14 12 26 12 28 0 126 98 126 126 0 12 -9 29 -21 40
-18 16 -23 16 -42 4 -12 -8 -39 -22 -59 -32 -20 -10 -40 -22 -43 -28 -8 -13
-105 -13 -125 0 -12 8 -15 33 -13 142 2 73 -1 172 -5 220 -4 53 -4 89 2 91 9
3 -23 47 -34 47 -3 0 -16 -6 -30 -13z m-87 -634 c-7 -52 -67 -157 -102 -182
-35 -25 -45 -26 -61 -6 -7 8 -17 12 -23 8 -6 -4 -8 2 -4 18 4 13 7 35 7 49 0
15 20 50 51 88 49 59 54 62 95 62 l43 0 -6 -37z"/>
</g>
</svg>
