<?xml version="1.0" standalone="no"?>
<!DOCTYPE svg PUBLIC "-//W3C//DTD SVG 20010904//EN"
 "http://www.w3.org/TR/2001/REC-SVG-20010904/DTD/svg10.dtd">
<svg version="1.0" xmlns="http://www.w3.org/2000/svg"
 width="89.000000pt" height="109.000000pt" viewBox="0 0 89.000000 109.000000"
 preserveAspectRatio="xMidYMid meet">
<metadata>
Created by potrace 1.16, written by Peter Selinger 2001-2019
</metadata>
<g transform="translate(0.000000,109.000000) scale(0.100000,-0.100000)"
fill="#000000" stroke="none">
<path d="M120 1073 c-65 -10 -68 -12 -85 -64 -18 -53 -17 -71 15 -214 5 -22
14 -65 20 -95 7 -30 18 -81 27 -113 15 -62 11 -83 -14 -68 -15 8 -53 4 -53 -6
0 -21 57 -104 74 -109 17 -4 22 -14 24 -54 2 -31 -2 -50 -8 -50 -18 0 -6 -159
15 -203 9 -20 21 -37 25 -37 5 0 12 -9 15 -20 8 -24 30 -26 39 -4 6 15 8 15
26 -1 11 -10 23 -15 27 -12 3 4 1 70 -5 147 -11 143 -3 210 24 210 6 0 14 10
18 23 3 12 20 31 38 41 18 11 36 24 40 29 9 15 130 28 144 16 7 -5 14 -26 16
-45 3 -27 0 -38 -14 -45 -10 -6 -16 -14 -13 -20 4 -5 1 -9 -4 -9 -6 0 -29 -13
-52 -29 -22 -16 -55 -32 -72 -36 -60 -12 -74 -23 -69 -58 5 -35 22 -56 43 -55
63 4 82 -4 132 -50 29 -27 78 -63 109 -80 52 -29 66 -32 141 -32 73 0 84 2 97
21 8 12 21 27 28 35 17 18 15 89 -3 107 -19 20 -53 11 -80 -21 -29 -33 -65
-31 -140 7 -33 17 -56 30 -50 31 5 0 0 7 -11 15 -16 11 -20 21 -16 42 3 15 8
30 12 33 3 3 19 23 35 45 17 22 33 43 38 46 4 3 10 28 14 56 5 50 5 51 -44
102 -35 36 -57 51 -76 51 -45 0 -79 21 -72 44 3 12 8 33 11 49 4 15 11 27 17
27 16 0 0 124 -20 157 -19 31 -135 143 -149 143 -4 0 -15 6 -23 14 -9 7 -45
19 -80 25 -34 7 -68 14 -75 15 -6 2 -22 1 -36 -1z m138 -118 c135 -72 162 -97
162 -153 0 -47 -8 -74 -21 -66 -5 3 -9 -2 -9 -12 0 -9 -15 -33 -32 -53 -18
-21 -42 -48 -54 -62 -38 -44 -88 -81 -82 -62 1 5 -6 21 -17 37 -12 18 -20 49
-21 87 -3 67 -11 99 -25 99 -6 0 -7 5 -4 10 4 6 0 24 -9 40 -8 16 -18 59 -21
95 l-7 65 46 0 c31 0 63 -9 94 -25z"/>
</g>
</svg>
