<?xml version="1.0" standalone="no"?>
<!DOCTYPE svg PUBLIC "-//W3C//DTD SVG 20010904//EN"
 "http://www.w3.org/TR/2001/REC-SVG-20010904/DTD/svg10.dtd">
<svg version="1.0" xmlns="http://www.w3.org/2000/svg"
 width="94.000000pt" height="81.000000pt" viewBox="0 0 94.000000 81.000000"
 preserveAspectRatio="xMidYMid meet">
<metadata>
Created by potrace 1.16, written by Peter Selinger 2001-2019
</metadata>
<g transform="translate(0.000000,81.000000) scale(0.100000,-0.100000)"
fill="#000000" stroke="none">
<path d="M82 775 c-16 -18 -36 -20 -26 -2 5 8 2 8 -9 -2 -9 -7 -17 -19 -17
-25 0 -6 5 -4 10 4 14 21 12 4 -2 -23 -26 -51 -28 -57 -18 -57 7 0 10 -51 9
-150 -1 -83 -4 -150 -8 -150 -11 0 -5 -254 8 -292 10 -31 18 -38 46 -44 20 -3
35 -13 37 -23 2 -10 9 -4 21 20 9 21 33 60 52 89 19 29 35 55 35 60 0 4 13 27
30 51 16 24 30 50 30 57 0 13 37 71 115 182 21 30 81 104 133 163 76 88 93
112 88 131 -5 20 -12 23 -48 22 -56 -2 -70 -11 -153 -95 -76 -77 -115 -134
-115 -168 0 -13 -13 -32 -31 -45 -31 -23 -89 -98 -102 -131 -4 -10 -14 -17
-24 -15 -26 5 -34 71 -31 272 3 178 -1 203 -30 171z"/>
<path d="M490 445 c-13 -16 -11 -30 21 -125 4 -14 11 -41 15 -60 3 -19 18 -46
33 -61 14 -14 43 -45 65 -67 21 -23 41 -41 45 -40 16 1 51 -15 51 -25 0 -13
106 -3 140 13 14 6 36 25 49 41 40 51 8 132 -36 88 -5 -5 -33 -11 -61 -11 -42
-1 -55 3 -71 21 -11 13 -25 20 -31 16 -20 -12 -152 143 -176 208 -8 21 -27 22
-44 2z"/>
</g>
</svg>
