<?xml version="1.0" standalone="no"?>
<!DOCTYPE svg PUBLIC "-//W3C//DTD SVG 20010904//EN"
 "http://www.w3.org/TR/2001/REC-SVG-20010904/DTD/svg10.dtd">
<svg version="1.0" xmlns="http://www.w3.org/2000/svg"
 width="69.000000pt" height="77.000000pt" viewBox="0 0 69.000000 77.000000"
 preserveAspectRatio="xMidYMid meet">
<metadata>
Created by potrace 1.16, written by Peter Selinger 2001-2019
</metadata>
<g transform="translate(0.000000,77.000000) scale(0.100000,-0.100000)"
fill="#000000" stroke="none">
<path d="M39 738 c-3 -9 -14 -417 -14 -533 0 -132 1 -141 23 -163 19 -19 34
-23 90 -24 37 0 76 4 87 10 29 16 185 32 307 32 119 0 130 6 146 77 l10 41
-49 25 c-39 21 -50 23 -59 12 -7 -8 -47 -15 -113 -19 -125 -7 -270 -22 -317
-31 -33 -6 -36 -5 -40 22 -5 40 -4 107 5 188 15 144 18 285 5 300 -6 8 -9 23
-6 33 5 16 0 21 -25 26 -34 6 -48 8 -50 4z"/>
</g>
</svg>
