<?xml version="1.0" standalone="no"?>
<!DOCTYPE svg PUBLIC "-//W3C//DTD SVG 20010904//EN"
 "http://www.w3.org/TR/2001/REC-SVG-20010904/DTD/svg10.dtd">
<svg version="1.0" xmlns="http://www.w3.org/2000/svg"
 width="59.000000pt" height="117.000000pt" viewBox="0 0 59.000000 117.000000"
 preserveAspectRatio="xMidYMid meet">
<metadata>
Created by potrace 1.16, written by Peter Selinger 2001-2019
</metadata>
<g transform="translate(0.000000,117.000000) scale(0.100000,-0.100000)"
fill="#000000" stroke="none">
<path d="M105 1142 c-32 -6 -55 -33 -55 -64 0 -16 -7 -51 -16 -78 -11 -35 -13
-53 -5 -68 6 -10 10 -81 10 -158 1 -202 1 -202 -15 -208 -15 -6 -20 -57 -6
-70 4 -4 7 -60 7 -124 0 -87 5 -132 19 -174 10 -32 23 -58 27 -58 5 0 9 -7 9
-16 0 -8 23 -38 51 -65 45 -43 55 -49 94 -49 65 0 193 49 266 103 91 66 99 73
99 84 0 22 -33 73 -47 73 -26 0 -93 -23 -93 -32 0 -4 -5 -8 -11 -8 -6 0 -28
-13 -48 -28 -73 -57 -170 -79 -198 -45 -36 47 -52 94 -59 176 -7 91 0 116 35
118 21 1 163 158 176 195 6 16 16 40 24 53 9 17 12 48 9 105 -5 67 -11 92 -40
146 -47 90 -68 120 -84 120 -8 0 -14 5 -14 10 0 32 -85 71 -135 62z m139 -171
c6 -9 11 -27 12 -40 2 -13 7 -27 12 -30 30 -19 33 -169 4 -201 -9 -10 -25 -30
-35 -44 -10 -14 -24 -26 -31 -26 -8 0 -16 -6 -19 -14 -7 -17 -43 -27 -45 -12
0 6 -1 78 -2 159 -1 96 -5 156 -13 168 -10 16 -9 21 1 28 8 5 12 17 10 28 -1
11 3 27 11 37 13 15 17 14 50 -11 20 -15 40 -34 45 -42z"/>
</g>
</svg>
