<?xml version="1.0" standalone="no"?>
<!DOCTYPE svg PUBLIC "-//W3C//DTD SVG 20010904//EN"
 "http://www.w3.org/TR/2001/REC-SVG-20010904/DTD/svg10.dtd">
<svg version="1.0" xmlns="http://www.w3.org/2000/svg"
 width="89.000000pt" height="89.000000pt" viewBox="0 0 89.000000 89.000000"
 preserveAspectRatio="xMidYMid meet">
<metadata>
Created by potrace 1.16, written by Peter Selinger 2001-2019
</metadata>
<g transform="translate(0.000000,89.000000) scale(0.100000,-0.100000)"
fill="#000000" stroke="none">
<path d="M677 884 c-3 -3 -18 -7 -34 -9 -46 -6 -204 -42 -258 -60 -49 -16
-132 -29 -272 -41 -40 -4 -73 -11 -73 -16 0 -5 -7 -16 -15 -24 -41 -41 10 -74
113 -74 l69 0 9 -102 c5 -57 9 -139 10 -183 2 -216 3 -231 23 -254 11 -12 32
-23 48 -24 l28 -2 -2 146 c-1 88 -8 179 -18 230 -9 46 -19 110 -21 141 -3 50
-1 59 18 73 13 8 35 15 51 15 33 0 114 24 173 51 22 11 62 19 91 19 l50 0 24
-62 c26 -72 28 -131 12 -393 -5 -88 -6 -168 -1 -177 4 -9 9 -28 10 -42 1 -15
6 -26 9 -26 4 0 9 -10 11 -22 3 -25 42 -33 66 -15 8 6 12 6 12 -2 0 -23 30
-10 46 21 38 74 36 87 -15 116 -19 11 -25 11 -31 2 -4 -7 -5 54 -2 136 13 338
7 420 -40 499 -19 33 -82 87 -91 79z m-437 -234 c0 -5 -2 -10 -4 -10 -3 0 -8
5 -11 10 -3 6 -1 10 4 10 6 0 11 -4 11 -10z"/>
</g>
</svg>
