<?xml version="1.0" standalone="no"?>
<!DOCTYPE svg PUBLIC "-//W3C//DTD SVG 20010904//EN"
 "http://www.w3.org/TR/2001/REC-SVG-20010904/DTD/svg10.dtd">
<svg version="1.0" xmlns="http://www.w3.org/2000/svg"
 width="138.000000pt" height="76.000000pt" viewBox="0 0 138.000000 76.000000"
 preserveAspectRatio="xMidYMid meet">
<metadata>
Created by potrace 1.16, written by Peter Selinger 2001-2019
</metadata>
<g transform="translate(0.000000,76.000000) scale(0.100000,-0.100000)"
fill="#000000" stroke="none">
<path d="M982 730 c-18 -11 -46 -33 -62 -48 -92 -86 -138 -103 -161 -59 -7 12
-15 24 -18 27 -3 3 -11 14 -17 25 -23 42 -98 21 -164 -46 -27 -27 -46 -37 -81
-42 -42 -6 -47 -4 -58 19 -6 14 -11 31 -11 39 0 8 -4 15 -10 15 -5 0 -10 7
-10 16 0 13 -7 15 -31 10 -17 -3 -38 -6 -46 -6 -8 0 -11 -4 -8 -10 3 -5 0 -10
-7 -10 -7 0 -30 -16 -50 -36 -21 -19 -42 -32 -48 -29 -5 3 -10 -1 -10 -10 0
-9 -5 -13 -10 -10 -6 3 -14 -4 -19 -17 -5 -13 -23 -39 -40 -57 -17 -18 -28
-37 -25 -42 3 -6 -13 -30 -35 -54 -31 -34 -41 -53 -41 -79 0 -65 47 -70 112
-12 21 18 35 36 31 39 -3 3 9 23 26 44 17 21 31 44 31 52 0 8 17 30 37 48 41
38 53 32 53 -26 0 -48 -22 -151 -33 -151 -4 0 -5 -10 -2 -21 5 -14 3 -19 -3
-15 -6 4 -11 -1 -11 -11 1 -24 -20 -105 -30 -118 -4 -5 -13 -29 -21 -52 -12
-39 -11 -42 13 -67 36 -35 80 -32 100 9 27 55 37 86 37 110 0 25 30 85 43 85
4 0 7 20 7 45 0 30 5 47 14 51 8 3 21 25 31 50 21 57 139 162 161 144 8 -8 11
-23 8 -43 -11 -65 -27 -117 -40 -128 -8 -6 -14 -22 -14 -36 0 -25 -48 -117
-65 -124 -11 -5 -7 -70 6 -83 5 -6 17 -2 29 9 19 17 22 17 36 3 15 -15 19 -13
45 16 15 18 33 44 39 57 24 52 46 88 78 125 19 22 40 53 47 69 7 17 21 39 32
50 10 11 23 29 27 40 8 19 8 19 19 -3 14 -32 -3 -132 -34 -197 -20 -42 -24
-64 -22 -134 1 -66 5 -86 17 -93 9 -5 21 -15 28 -21 17 -19 184 -10 224 12 80
42 152 101 123 101 -7 0 2 11 21 25 19 14 41 25 50 25 9 0 27 11 40 25 13 14
20 25 15 25 -4 0 -1 8 8 18 30 33 38 71 21 97 -18 28 -34 32 -34 9 0 -8 -4
-13 -10 -9 -12 8 -78 -57 -73 -72 4 -10 -31 -26 -59 -28 -4 0 -22 -12 -40 -28
-89 -75 -109 -89 -123 -83 -8 3 -17 1 -20 -4 -9 -15 -61 -12 -73 3 -14 17 3
78 35 127 14 21 23 50 23 75 0 22 7 49 15 59 8 11 15 31 15 45 0 14 9 41 20
59 11 18 20 42 20 53 0 11 3 18 8 16 6 -5 10 25 11 92 1 29 -24 71 -42 71 -6
0 -27 -9 -45 -20z"/>
</g>
</svg>
