<?xml version="1.0" standalone="no"?>
<!DOCTYPE svg PUBLIC "-//W3C//DTD SVG 20010904//EN"
 "http://www.w3.org/TR/2001/REC-SVG-20010904/DTD/svg10.dtd">
<svg version="1.0" xmlns="http://www.w3.org/2000/svg"
 width="75.000000pt" height="82.000000pt" viewBox="0 0 75.000000 82.000000"
 preserveAspectRatio="xMidYMid meet">
<metadata>
Created by potrace 1.16, written by Peter Selinger 2001-2019
</metadata>
<g transform="translate(0.000000,82.000000) scale(0.100000,-0.100000)"
fill="#000000" stroke="none">
<path d="M584 779 c4 -25 15 -51 26 -61 17 -13 20 -29 20 -92 0 -42 -6 -102
-14 -134 -24 -93 -56 -249 -56 -269 0 -10 -9 -24 -20 -31 -24 -15 -38 -4 -121
98 -29 36 -56 67 -59 70 -4 3 -10 12 -14 20 -3 8 -20 38 -36 65 -16 28 -38 66
-48 85 -23 40 -95 125 -131 155 -34 27 -64 29 -86 5 -16 -17 -18 -39 -18 -167
0 -154 20 -363 35 -363 5 0 6 -4 3 -10 -3 -5 -2 -17 3 -26 6 -10 12 -13 16 -6
3 5 15 8 26 5 15 -4 22 2 30 22 15 38 12 152 -4 183 -18 36 -26 182 -9 182 6
0 15 -5 18 -11 4 -5 18 -15 32 -20 16 -6 23 -15 19 -24 -3 -8 1 -20 8 -28 8
-7 27 -37 42 -67 42 -77 46 -82 81 -120 18 -19 33 -42 33 -50 0 -24 129 -140
179 -162 30 -12 55 -17 75 -12 51 11 63 28 65 97 1 34 6 91 12 127 15 95 27
191 39 316 11 108 10 112 -14 167 -26 59 -52 83 -106 93 l-33 7 7 -44z"/>
</g>
</svg>
