<?xml version="1.0" standalone="no"?>
<!DOCTYPE svg PUBLIC "-//W3C//DTD SVG 20010904//EN"
 "http://www.w3.org/TR/2001/REC-SVG-20010904/DTD/svg10.dtd">
<svg version="1.0" xmlns="http://www.w3.org/2000/svg"
 width="87.000000pt" height="65.000000pt" viewBox="0 0 87.000000 65.000000"
 preserveAspectRatio="xMidYMid meet">
<metadata>
Created by potrace 1.16, written by Peter Selinger 2001-2019
</metadata>
<g transform="translate(0.000000,65.000000) scale(0.100000,-0.100000)"
fill="#000000" stroke="none">
<path d="M240 630 c0 -5 -6 -10 -13 -10 -8 0 -22 -9 -31 -19 -10 -11 -30 -24
-46 -29 -23 -8 -32 -6 -53 14 -22 20 -45 31 -48 22 0 -2 -3 -30 -5 -63 -2 -33
-9 -76 -14 -95 -6 -21 -6 -38 0 -44 6 -6 5 -16 -1 -28 -17 -31 10 -285 33
-312 l18 -21 30 35 c37 43 45 70 32 110 -6 16 -7 32 -3 34 7 5 21 92 24 156 1
14 9 31 19 38 10 7 18 19 18 26 0 14 64 76 78 76 32 0 71 -99 52 -131 -5 -8
-4 -19 2 -26 11 -14 22 -94 22 -161 0 -31 3 -41 13 -38 9 4 12 -2 9 -17 -2
-12 4 -35 12 -52 9 -16 15 -34 14 -39 -7 -23 33 -46 80 -46 99 0 378 172 378
234 0 30 -27 66 -50 66 -11 0 -34 -13 -52 -28 -55 -47 -151 -108 -191 -121
-20 -7 -37 -16 -37 -21 0 -13 -26 -6 -44 12 -9 10 -16 33 -16 57 0 28 -5 43
-17 50 -13 7 -14 10 -4 11 11 0 13 12 8 56 -3 30 -10 61 -16 67 -5 7 -9 34 -9
61 0 40 -6 54 -30 80 -16 17 -32 39 -36 49 -3 10 -20 24 -36 30 -17 6 -30 15
-30 19 0 4 -13 8 -30 8 -16 0 -30 -4 -30 -10z"/>
</g>
</svg>
