<?xml version="1.0" standalone="no"?>
<!DOCTYPE svg PUBLIC "-//W3C//DTD SVG 20010904//EN"
 "http://www.w3.org/TR/2001/REC-SVG-20010904/DTD/svg10.dtd">
<svg version="1.0" xmlns="http://www.w3.org/2000/svg"
 width="94.000000pt" height="89.000000pt" viewBox="0 0 94.000000 89.000000"
 preserveAspectRatio="xMidYMid meet">
<metadata>
Created by potrace 1.16, written by Peter Selinger 2001-2019
</metadata>
<g transform="translate(0.000000,89.000000) scale(0.100000,-0.100000)"
fill="#000000" stroke="none">
<path d="M330 873 c-54 -17 -161 -93 -210 -149 -45 -51 -71 -94 -65 -104 4 -6
-1 -7 -11 -3 -13 5 -15 2 -10 -14 3 -10 0 -28 -9 -39 -18 -23 -22 -214 -4
-214 6 0 9 -10 8 -22 -3 -28 24 -77 69 -127 18 -20 30 -42 26 -51 -3 -8 -2
-12 1 -8 4 3 38 -16 77 -43 40 -27 83 -49 96 -49 14 0 33 -7 42 -15 20 -19
158 -23 250 -7 87 14 182 39 189 49 3 5 24 17 46 26 22 10 50 32 62 50 27 39
47 127 39 170 -3 18 -8 47 -11 66 -3 18 -10 42 -16 52 -5 10 -7 19 -4 19 3 0
-6 18 -20 40 -14 23 -30 51 -36 63 -5 12 -21 40 -34 62 -13 22 -27 48 -31 58
-3 9 -10 17 -15 17 -5 0 -9 22 -9 49 0 43 -4 53 -31 75 -17 14 -40 28 -52 30
-12 2 -46 9 -75 15 -53 11 -233 14 -262 4z m213 -87 c56 -14 121 -61 113 -82
-3 -7 0 -19 7 -26 15 -16 77 -136 77 -149 0 -6 11 -22 25 -37 14 -15 25 -39
25 -54 0 -15 4 -29 9 -33 6 -3 9 -13 9 -23 0 -9 3 -35 7 -58 5 -30 3 -44 -7
-55 -8 -8 -13 -19 -11 -26 5 -13 -38 -44 -87 -63 -19 -7 -39 -17 -45 -21 -5
-4 -69 -10 -140 -14 -110 -6 -141 -5 -195 11 -67 18 -153 78 -171 119 -5 11
-19 36 -31 55 -19 30 -22 50 -22 130 -1 87 2 99 27 138 36 56 96 122 111 122
6 0 29 14 50 32 55 45 155 59 249 34z"/>
</g>
</svg>
