<?xml version="1.0" standalone="no"?>
<!DOCTYPE svg PUBLIC "-//W3C//DTD SVG 20010904//EN"
 "http://www.w3.org/TR/2001/REC-SVG-20010904/DTD/svg10.dtd">
<svg version="1.0" xmlns="http://www.w3.org/2000/svg"
 width="74.000000pt" height="78.000000pt" viewBox="0 0 74.000000 78.000000"
 preserveAspectRatio="xMidYMid meet">
<metadata>
Created by potrace 1.16, written by Peter Selinger 2001-2019
</metadata>
<g transform="translate(0.000000,78.000000) scale(0.100000,-0.100000)"
fill="#000000" stroke="none">
<path d="M290 754 c-25 -7 -55 -14 -67 -14 -13 0 -23 -4 -23 -9 0 -4 -16 -11
-34 -14 -19 -3 -52 -13 -73 -22 -96 -43 -96 -43 -60 -79 18 -18 32 -22 70 -20
45 3 47 2 47 -24 0 -21 -2 -24 -10 -12 -8 12 -10 9 -10 -12 0 -16 -4 -28 -8
-28 -4 0 -8 -9 -9 -20 -1 -11 -9 -27 -17 -36 -9 -8 -16 -21 -16 -29 0 -7 -5
-15 -11 -17 -6 -2 -12 -18 -13 -36 -1 -18 -8 -37 -16 -42 -8 -5 -11 -10 -5
-10 5 0 4 -5 -3 -12 -15 -15 -16 -154 -2 -163 6 -3 10 -13 10 -21 0 -30 62
-93 97 -100 18 -3 36 -10 39 -15 7 -12 114 -11 114 1 0 6 20 10 44 10 28 0 48
6 57 16 23 28 89 65 102 58 7 -4 9 -3 4 1 -11 13 23 44 41 38 11 -5 14 -2 9
10 -3 9 -2 17 2 17 18 0 93 81 88 94 -3 7 5 24 18 38 12 13 26 40 30 59 4 19
16 47 27 62 16 23 19 38 14 73 -14 106 -76 189 -181 241 -54 27 -193 36 -255
17z m166 -98 c93 -25 147 -65 159 -119 8 -34 -4 -129 -15 -122 -5 3 -13 -10
-19 -28 -6 -19 -25 -43 -41 -56 -17 -12 -30 -26 -30 -32 0 -16 -134 -139 -139
-127 -2 6 -13 -2 -25 -16 -38 -48 -149 -48 -201 0 -27 25 -27 28 -21 97 4 43
16 92 31 123 14 29 25 59 25 66 1 7 21 35 45 62 l44 49 38 -15 c54 -22 68 -6
59 73 -5 56 -5 59 17 59 12 0 45 -6 73 -14z"/>
</g>
</svg>
