<?xml version="1.0" standalone="no"?>
<!DOCTYPE svg PUBLIC "-//W3C//DTD SVG 20010904//EN"
 "http://www.w3.org/TR/2001/REC-SVG-20010904/DTD/svg10.dtd">
<svg version="1.0" xmlns="http://www.w3.org/2000/svg"
 width="58.000000pt" height="113.000000pt" viewBox="0 0 58.000000 113.000000"
 preserveAspectRatio="xMidYMid meet">
<metadata>
Created by potrace 1.16, written by Peter Selinger 2001-2019
</metadata>
<g transform="translate(0.000000,113.000000) scale(0.100000,-0.100000)"
fill="#000000" stroke="none">
<path d="M115 1090 c-16 -16 -35 -30 -42 -30 -7 0 -13 -9 -13 -19 0 -11 -5
-21 -12 -23 -7 -3 -13 -26 -14 -57 -1 -29 -7 -56 -13 -60 -19 -12 -22 -312 -4
-370 8 -25 17 -62 19 -81 3 -19 8 -48 11 -65 3 -16 6 -53 7 -82 1 -28 8 -59
16 -68 9 -10 15 -46 17 -89 3 -80 25 -121 63 -121 20 0 24 6 28 35 2 19 7 41
12 49 12 22 -5 165 -19 157 -4 -3 -13 31 -20 75 -18 105 -14 109 95 109 45 0
86 5 89 10 3 6 17 10 31 10 13 0 24 5 24 10 0 6 8 10 18 10 18 0 105 69 87 70
-7 0 -7 3 0 8 17 12 55 145 57 201 1 41 -2 55 -15 62 -9 6 -16 20 -15 32 3 38
-135 197 -171 197 -6 0 -30 14 -54 30 -36 24 -55 30 -99 30 -47 0 -58 -4 -83
-30z m177 -110 c15 -11 34 -20 43 -20 8 0 15 -3 15 -7 0 -5 15 -24 33 -43 32
-34 49 -72 66 -144 12 -50 -12 -105 -72 -164 -38 -37 -48 -42 -109 -48 l-66
-7 -46 43 c-25 24 -46 51 -46 59 0 9 -7 27 -16 39 -11 16 -14 34 -10 55 3 18
8 52 11 76 3 24 8 48 11 52 3 5 0 9 -5 9 -6 0 -11 5 -11 11 0 5 5 7 11 3 8 -5
10 3 7 26 -4 26 1 40 21 63 24 27 29 29 81 23 30 -4 67 -15 82 -26z"/>
</g>
</svg>
