<?xml version="1.0" standalone="no"?>
<!DOCTYPE svg PUBLIC "-//W3C//DTD SVG 20010904//EN"
 "http://www.w3.org/TR/2001/REC-SVG-20010904/DTD/svg10.dtd">
<svg version="1.0" xmlns="http://www.w3.org/2000/svg"
 width="69.000000pt" height="126.000000pt" viewBox="0 0 69.000000 126.000000"
 preserveAspectRatio="xMidYMid meet">
<metadata>
Created by potrace 1.16, written by Peter Selinger 2001-2019
</metadata>
<g transform="translate(0.000000,126.000000) scale(0.100000,-0.100000)"
fill="#000000" stroke="none">
<path d="M243 1182 c-45 -31 -89 -64 -97 -72 -23 -23 -105 -220 -99 -236 3 -8
0 -21 -6 -28 -7 -8 -16 -70 -21 -138 -9 -122 -9 -139 3 -168 4 -8 8 -46 11
-85 7 -108 17 -188 26 -210 11 -28 30 -122 30 -151 0 -43 28 -74 67 -74 57 0
67 18 60 115 -3 49 -2 87 3 90 5 3 9 34 8 68 -3 100 8 312 16 326 7 11 10 11
17 0 6 -11 38 -14 128 -14 116 0 121 1 148 27 15 14 36 28 47 30 34 6 75 78
87 153 15 92 15 168 0 173 -6 2 -8 14 -5 27 3 13 -3 39 -14 61 -22 42 -95 124
-111 124 -5 0 -16 7 -25 15 -10 10 -43 17 -103 20 l-88 4 -82 -57z m233 -47
c4 -8 10 -13 14 -10 12 7 55 -51 79 -106 15 -32 19 -63 18 -115 -2 -67 -4 -74
-39 -113 -21 -22 -41 -41 -45 -41 -4 0 -16 -8 -27 -19 -25 -22 -126 -38 -126
-20 0 6 -6 9 -14 6 -18 -7 -56 37 -56 64 0 12 -9 37 -21 55 -16 27 -20 47 -18
103 2 39 0 73 -3 77 -4 3 -3 11 2 18 6 6 21 26 36 44 14 17 34 32 44 32 10 0
23 7 31 16 9 11 26 15 56 12 24 -2 43 0 43 4 0 14 20 8 26 -7z m-324 -300 c-2
-11 -3 -24 -3 -30 1 -5 3 -44 6 -85 5 -75 -6 -119 -32 -127 -8 -3 -12 31 -12
123 0 70 2 131 5 136 11 17 39 3 36 -17z"/>
</g>
</svg>
