<?xml version="1.0" standalone="no"?>
<!DOCTYPE svg PUBLIC "-//W3C//DTD SVG 20010904//EN"
 "http://www.w3.org/TR/2001/REC-SVG-20010904/DTD/svg10.dtd">
<svg version="1.0" xmlns="http://www.w3.org/2000/svg"
 width="89.000000pt" height="93.000000pt" viewBox="0 0 89.000000 93.000000"
 preserveAspectRatio="xMidYMid meet">
<metadata>
Created by potrace 1.16, written by Peter Selinger 2001-2019
</metadata>
<g transform="translate(0.000000,93.000000) scale(0.100000,-0.100000)"
fill="#000000" stroke="none">
<path d="M220 913 c-47 -19 -148 -136 -183 -213 -21 -48 -29 -115 -30 -250 0
-100 3 -120 22 -153 12 -21 20 -46 19 -55 -2 -9 3 -16 10 -14 7 1 12 -9 12
-27 0 -32 54 -108 101 -142 26 -18 45 -22 117 -23 99 -1 148 11 263 63 25 12
50 21 55 21 5 0 32 -22 61 -49 49 -46 84 -62 111 -53 7 2 12 10 12 18 0 14 11
18 37 15 15 -2 9 17 -23 74 -13 22 -27 39 -33 38 -5 -2 -19 9 -31 24 -19 25
-19 27 -4 52 9 14 27 37 40 52 13 14 24 38 25 55 0 26 1 27 10 9 8 -17 9 -15
5 9 -3 21 1 30 15 33 21 6 33 35 24 62 -3 11 -1 22 5 26 12 8 14 45 1 45 -5 0
-11 11 -13 25 -4 17 -1 25 8 25 8 0 14 5 14 11 0 5 -5 7 -10 4 -7 -4 -9 2 -5
18 5 19 2 25 -16 30 -14 4 -20 11 -16 21 4 10 1 16 -9 16 -8 0 -12 5 -9 10 3
6 -1 10 -9 10 -9 0 -16 9 -16 21 0 11 -4 18 -9 15 -5 -3 -22 9 -38 28 -19 21
-43 36 -66 40 -21 4 -37 11 -37 16 0 6 -13 10 -29 10 -16 0 -34 6 -40 14 -14
17 -86 36 -135 36 -19 0 -37 4 -40 8 -2 4 -19 9 -38 10 -18 2 -37 7 -42 12
-11 11 -62 12 -86 3z m130 -143 c27 -28 33 -30 64 -21 19 5 38 6 42 3 4 -4 4
-2 1 4 -13 23 25 23 71 0 26 -13 67 -34 91 -46 24 -12 55 -35 69 -52 14 -17
32 -37 41 -45 8 -8 18 -35 21 -59 8 -49 -12 -102 -67 -179 -44 -61 -59 -58
-154 34 -45 45 -89 81 -96 81 -7 0 -13 5 -13 10 0 18 -17 10 -27 -13 -6 -13
-9 -37 -6 -53 6 -29 61 -111 115 -170 28 -30 28 -30 8 -49 -11 -10 -20 -15
-20 -11 0 4 -19 -7 -41 -25 -38 -30 -49 -33 -124 -37 -97 -5 -146 12 -167 59
-7 16 -16 29 -20 29 -4 0 -5 7 -1 15 3 10 0 15 -8 13 -9 -2 -14 7 -14 26 0 16
-5 31 -12 33 -9 3 -10 9 -1 23 9 14 9 28 1 54 -19 60 -5 198 21 221 6 6 13 21
14 35 5 32 69 117 102 135 42 23 78 18 110 -15z m500 -330 c0 -5 -5 -10 -11
-10 -5 0 -7 5 -4 10 3 6 8 10 11 10 2 0 4 -4 4 -10z"/>
</g>
</svg>
