<?xml version="1.0" standalone="no"?>
<!DOCTYPE svg PUBLIC "-//W3C//DTD SVG 20010904//EN"
 "http://www.w3.org/TR/2001/REC-SVG-20010904/DTD/svg10.dtd">
<svg version="1.0" xmlns="http://www.w3.org/2000/svg"
 width="58.000000pt" height="103.000000pt" viewBox="0 0 58.000000 103.000000"
 preserveAspectRatio="xMidYMid meet">
<metadata>
Created by potrace 1.16, written by Peter Selinger 2001-2019
</metadata>
<g transform="translate(0.000000,103.000000) scale(0.100000,-0.100000)"
fill="#000000" stroke="none">
<path d="M275 995 c-58 -30 -92 -60 -149 -134 -48 -63 -44 -56 -90 -152 -34
-71 -35 -78 -26 -132 10 -61 56 -135 99 -159 14 -8 56 -13 102 -13 63 0 83 4
106 21 16 12 39 25 52 29 14 4 34 16 45 27 l21 19 3 -37 c2 -21 -2 -58 -8 -82
-6 -25 -8 -57 -5 -72 4 -19 2 -29 -8 -33 -10 -4 -16 -32 -21 -93 -7 -99 2
-133 45 -158 41 -24 72 -20 97 14 33 44 28 120 -8 120 -15 0 -17 5 -10 33 4
18 5 48 2 66 -3 22 2 45 16 70 13 23 23 64 27 111 10 113 11 269 3 264 -5 -3
-8 6 -8 21 0 14 -4 33 -9 43 -24 43 -41 87 -41 102 0 23 -86 119 -117 131 -50
19 -69 18 -118 -6z m56 -97 c0 -10 2 -10 6 0 9 22 25 12 23 -15 -4 -51 0 -63
18 -63 23 0 71 -49 73 -75 6 -63 -2 -87 -47 -135 -42 -45 -72 -64 -161 -101
-18 -8 -33 -17 -33 -21 0 -13 -27 -9 -58 9 -17 10 -37 32 -46 50 -14 29 -13
36 3 80 35 97 79 156 108 147 15 -5 15 -4 3 4 -8 6 -19 8 -25 5 -5 -4 -6 -2
-2 3 5 5 32 35 60 66 51 56 76 71 78 46z"/>
</g>
</svg>
