<?xml version="1.0" standalone="no"?>
<!DOCTYPE svg PUBLIC "-//W3C//DTD SVG 20010904//EN"
 "http://www.w3.org/TR/2001/REC-SVG-20010904/DTD/svg10.dtd">
<svg version="1.0" xmlns="http://www.w3.org/2000/svg"
 width="83.000000pt" height="87.000000pt" viewBox="0 0 83.000000 87.000000"
 preserveAspectRatio="xMidYMid meet">
<metadata>
Created by potrace 1.16, written by Peter Selinger 2001-2019
</metadata>
<g transform="translate(0.000000,87.000000) scale(0.100000,-0.100000)"
fill="#000000" stroke="none">
<path d="M145 835 c-22 -8 -41 -15 -42 -15 -8 -1 -49 -71 -64 -113 -39 -103
-50 -426 -16 -465 20 -23 37 -79 37 -119 0 -18 7 -49 14 -68 14 -33 18 -35 62
-35 38 0 44 2 35 14 -9 11 -8 15 5 20 12 4 15 17 13 49 -2 23 3 61 9 83 l12
41 88 6 c94 5 106 1 158 -51 16 -16 40 -35 54 -42 14 -7 43 -28 65 -45 48 -39
133 -62 164 -46 31 17 71 75 71 104 0 40 -39 62 -83 46 -29 -10 -39 -9 -67 5
-18 9 -39 16 -46 16 -7 0 -37 23 -67 50 -30 28 -60 50 -66 50 -9 0 -31 31 -31
44 0 3 7 6 15 6 8 0 15 8 15 19 0 10 6 24 14 30 8 7 14 26 14 44 0 18 5 43 10
57 17 44 6 143 -22 198 -29 57 -84 107 -130 117 -67 15 -181 15 -221 0z m207
-123 c21 -16 33 -33 30 -42 -5 -13 -3 -13 11 -1 10 7 17 12 18 10 3 -11 10
-66 10 -79 0 -24 -16 -93 -28 -115 -6 -11 -16 -32 -24 -48 -15 -33 -55 -55
-118 -63 -43 -5 -47 -4 -58 23 -12 26 -24 81 -38 166 -3 20 -11 37 -18 37 -7
0 -11 14 -11 38 4 84 24 100 130 101 52 1 66 -3 96 -27z"/>
</g>
</svg>
