<?xml version="1.0" standalone="no"?>
<!DOCTYPE svg PUBLIC "-//W3C//DTD SVG 20010904//EN"
 "http://www.w3.org/TR/2001/REC-SVG-20010904/DTD/svg10.dtd">
<svg version="1.0" xmlns="http://www.w3.org/2000/svg"
 width="86.000000pt" height="94.000000pt" viewBox="0 0 86.000000 94.000000"
 preserveAspectRatio="xMidYMid meet">
<metadata>
Created by potrace 1.16, written by Peter Selinger 2001-2019
</metadata>
<g transform="translate(0.000000,94.000000) scale(0.100000,-0.100000)"
fill="#000000" stroke="none">
<path d="M320 921 c-32 -7 -89 -29 -132 -52 -10 -5 -26 -9 -36 -9 -10 0 -29
-11 -42 -25 -20 -22 -22 -31 -18 -97 4 -63 10 -81 43 -133 45 -72 93 -125 113
-125 8 0 39 -16 68 -35 29 -19 58 -35 66 -35 7 0 25 -6 39 -14 15 -7 55 -23
89 -35 34 -12 71 -28 83 -35 12 -8 33 -17 46 -21 26 -8 81 -62 81 -80 0 -60
-237 -120 -405 -102 -144 15 -195 28 -195 51 1 6 30 34 67 61 86 65 95 80 64
106 -30 25 -41 24 -85 -6 -20 -14 -42 -25 -47 -25 -6 0 -33 -19 -60 -42 l-50
-42 3 -69 c3 -63 6 -72 31 -90 15 -12 51 -24 80 -28 28 -4 90 -13 136 -20 190
-27 461 29 554 114 22 22 27 34 27 76 0 42 -6 57 -37 98 -43 57 -80 91 -108
99 -11 3 -33 11 -50 19 -44 19 -99 35 -121 35 -11 0 -30 8 -44 17 -35 24 -165
90 -193 96 -27 7 -91 92 -82 108 4 5 -1 19 -10 29 -10 11 -15 25 -12 33 8 21
85 53 143 61 60 7 82 -9 86 -63 2 -32 4 -33 37 -27 19 3 39 11 45 17 8 9 8 10
-1 5 -7 -4 -13 -2 -13 3 0 6 7 11 15 11 18 0 20 26 3 33 -9 4 -9 6 -1 6 7 1 2
21 -15 55 -26 54 -30 57 -116 81 -6 1 -27 -1 -46 -4z"/>
</g>
</svg>
