<?xml version="1.0" standalone="no"?>
<!DOCTYPE svg PUBLIC "-//W3C//DTD SVG 20010904//EN"
 "http://www.w3.org/TR/2001/REC-SVG-20010904/DTD/svg10.dtd">
<svg version="1.0" xmlns="http://www.w3.org/2000/svg"
 width="86.000000pt" height="70.000000pt" viewBox="0 0 86.000000 70.000000"
 preserveAspectRatio="xMidYMid meet">
<metadata>
Created by potrace 1.16, written by Peter Selinger 2001-2019
</metadata>
<g transform="translate(0.000000,70.000000) scale(0.100000,-0.100000)"
fill="#000000" stroke="none">
<path d="M395 678 c-54 -9 -63 -13 -92 -52 -39 -50 -40 -67 -12 -141 17 -45
31 -63 75 -96 30 -22 82 -49 117 -60 34 -10 83 -30 108 -44 26 -14 53 -25 61
-25 14 0 47 -31 62 -57 10 -18 -59 -49 -153 -68 -98 -20 -381 -19 -388 2 -3 7
-10 10 -17 7 -30 -11 -23 84 7 107 14 10 -5 39 -29 45 -30 8 -74 -3 -74 -17 0
-6 -9 -23 -19 -38 -10 -14 -22 -52 -26 -83 -7 -54 -6 -58 21 -82 47 -40 142
-62 269 -60 131 2 294 13 315 21 8 4 43 16 76 27 85 29 154 92 154 140 0 27
-121 135 -160 142 -19 4 -48 17 -63 30 -16 13 -34 24 -41 24 -8 0 -25 9 -39
20 -14 11 -38 20 -54 20 -40 0 -105 64 -101 98 5 39 64 56 150 42 132 -20 178
-11 178 35 0 32 -50 55 -142 65 -94 11 -100 11 -183 -2z"/>
</g>
</svg>
