<?xml version="1.0" standalone="no"?>
<!DOCTYPE svg PUBLIC "-//W3C//DTD SVG 20010904//EN"
 "http://www.w3.org/TR/2001/REC-SVG-20010904/DTD/svg10.dtd">
<svg version="1.0" xmlns="http://www.w3.org/2000/svg"
 width="132.000000pt" height="76.000000pt" viewBox="0 0 132.000000 76.000000"
 preserveAspectRatio="xMidYMid meet">
<metadata>
Created by potrace 1.16, written by Peter Selinger 2001-2019
</metadata>
<g transform="translate(0.000000,76.000000) scale(0.100000,-0.100000)"
fill="#000000" stroke="none">
<path d="M770 741 c-162 -4 -301 -10 -308 -14 -7 -5 -100 -8 -206 -8 -113 1
-205 -3 -221 -9 -24 -9 -27 -14 -21 -41 3 -17 1 -40 -5 -51 -20 -37 12 -47
151 -47 69 0 149 4 178 8 34 5 58 4 67 -3 30 -24 53 -111 63 -241 11 -138 27
-263 37 -295 7 -22 35 -26 53 -8 9 9 16 7 31 -6 37 -33 40 33 5 103 -8 17 -14
41 -13 53 1 13 -3 34 -8 48 -6 14 -14 72 -18 130 -4 58 -11 110 -16 116 -16
19 -20 81 -6 91 20 16 268 34 467 35 178 2 265 11 255 28 -6 10 14 24 34 25
19 0 36 29 28 49 -4 9 -17 16 -32 16 -14 0 -28 7 -31 15 -5 12 -24 15 -98 13
-50 -1 -224 -4 -386 -7z"/>
</g>
</svg>
