<?xml version="1.0" standalone="no"?>
<!DOCTYPE svg PUBLIC "-//W3C//DTD SVG 20010904//EN"
 "http://www.w3.org/TR/2001/REC-SVG-20010904/DTD/svg10.dtd">
<svg version="1.0" xmlns="http://www.w3.org/2000/svg"
 width="71.000000pt" height="92.000000pt" viewBox="0 0 71.000000 92.000000"
 preserveAspectRatio="xMidYMid meet">
<metadata>
Created by potrace 1.16, written by Peter Selinger 2001-2019
</metadata>
<g transform="translate(0.000000,92.000000) scale(0.100000,-0.100000)"
fill="#000000" stroke="none">
<path d="M93 873 c-6 -16 -14 -48 -17 -72 -4 -24 -13 -53 -21 -64 -9 -12 -15
-44 -15 -73 0 -29 -4 -54 -9 -56 -5 -1 -11 -65 -14 -141 -6 -132 -5 -141 19
-195 13 -30 23 -60 21 -66 -13 -38 134 -173 200 -185 75 -12 197 -7 224 10 13
9 39 20 58 24 25 5 30 10 20 16 -10 6 -6 9 14 9 34 0 84 35 103 73 8 15 12 27
9 27 -3 0 -1 9 5 20 8 14 8 26 0 40 -13 24 -52 19 -85 -10 -11 -9 -45 -33 -75
-52 -49 -31 -65 -35 -148 -41 -81 -6 -100 -4 -140 13 -72 31 -122 122 -122
222 0 43 3 49 37 72 23 16 58 28 94 32 38 4 64 14 81 29 13 12 34 28 46 34 16
9 22 21 22 46 0 45 -30 68 -71 53 -16 -5 -29 -14 -29 -18 0 -5 -26 -11 -57
-15 -32 -3 -66 -10 -75 -15 -25 -14 -28 -13 -28 15 0 14 3 25 8 25 4 0 9 28
10 62 2 35 8 65 13 69 7 4 7 19 0 45 -5 21 -13 51 -16 67 -4 20 -11 27 -28 27
-15 0 -26 -9 -34 -27z"/>
</g>
</svg>
