<?xml version="1.0" standalone="no"?>
<!DOCTYPE svg PUBLIC "-//W3C//DTD SVG 20010904//EN"
 "http://www.w3.org/TR/2001/REC-SVG-20010904/DTD/svg10.dtd">
<svg version="1.0" xmlns="http://www.w3.org/2000/svg"
 width="116.000000pt" height="78.000000pt" viewBox="0 0 116.000000 78.000000"
 preserveAspectRatio="xMidYMid meet">
<metadata>
Created by potrace 1.16, written by Peter Selinger 2001-2019
</metadata>
<g transform="translate(0.000000,78.000000) scale(0.100000,-0.100000)"
fill="#000000" stroke="none">
<path d="M324 756 c-18 -8 -35 -19 -38 -25 -4 -6 -31 -18 -61 -26 -29 -9 -59
-22 -65 -30 -7 -8 -17 -15 -22 -15 -6 0 -32 -21 -59 -47 -33 -32 -49 -54 -47
-68 4 -28 39 -23 124 20 38 19 73 35 77 35 5 0 20 9 34 20 33 25 73 27 72 3
-1 -30 -24 -126 -38 -158 -8 -16 -30 -64 -50 -105 -32 -68 -36 -85 -39 -173
-4 -92 -2 -100 20 -124 37 -41 98 -64 139 -53 53 15 163 83 174 108 5 12 15
22 21 22 6 0 23 9 37 20 14 11 30 20 36 20 11 0 47 -60 43 -73 -1 -4 4 -7 10
-7 7 0 36 -18 63 -40 34 -27 60 -40 81 -40 56 0 148 22 173 41 13 11 44 24 67
30 23 6 52 21 64 34 18 19 19 26 9 49 -9 20 -19 26 -43 26 -18 0 -41 -7 -53
-15 -12 -9 -57 -20 -101 -27 -75 -10 -81 -10 -110 12 -16 12 -35 19 -41 16
-20 -12 -38 18 -44 74 -4 30 -10 68 -13 84 -4 16 -3 27 2 24 5 -3 10 24 10 59
1 49 6 68 18 75 11 6 16 23 16 53 0 40 -3 45 -22 47 -65 4 -97 -14 -98 -55 0
-9 -4 -25 -9 -35 -5 -9 -14 -42 -20 -73 -15 -75 -34 -107 -109 -183 -61 -62
-132 -106 -193 -120 -26 -6 -27 -4 -31 52 -4 42 -1 66 12 92 10 19 21 50 25
67 3 18 14 37 23 42 9 5 14 13 10 17 -4 3 0 23 8 43 54 127 75 247 52 291 -16
30 -66 37 -114 16z"/>
<path d="M20 510 c0 -5 5 -10 11 -10 5 0 7 5 4 10 -3 6 -8 10 -11 10 -2 0 -4
-4 -4 -10z"/>
</g>
</svg>
