<?xml version="1.0" standalone="no"?>
<!DOCTYPE svg PUBLIC "-//W3C//DTD SVG 20010904//EN"
 "http://www.w3.org/TR/2001/REC-SVG-20010904/DTD/svg10.dtd">
<svg version="1.0" xmlns="http://www.w3.org/2000/svg"
 width="68.000000pt" height="77.000000pt" viewBox="0 0 68.000000 77.000000"
 preserveAspectRatio="xMidYMid meet">
<metadata>
Created by potrace 1.16, written by Peter Selinger 2001-2019
</metadata>
<g transform="translate(0.000000,77.000000) scale(0.100000,-0.100000)"
fill="#000000" stroke="none">
<path d="M470 756 c-15 -15 -12 -63 5 -70 8 -3 15 -12 15 -19 0 -8 16 -45 36
-83 31 -59 35 -75 30 -114 -16 -125 -27 -179 -41 -206 -8 -16 -15 -35 -15 -41
0 -7 -4 -13 -9 -13 -9 0 -35 -59 -32 -73 1 -5 -3 -6 -9 -2 -5 3 -10 1 -10 -6
0 -13 -67 -4 -86 12 -7 5 -16 8 -20 7 -14 -5 -87 43 -116 76 -15 17 -30 46
-33 66 -4 19 -15 43 -26 53 -22 20 -22 24 -43 176 -17 132 -33 159 -79 142
-27 -10 -27 -12 -22 -83 13 -175 17 -204 30 -233 7 -16 17 -45 20 -63 9 -45
23 -69 73 -128 48 -58 132 -119 177 -130 17 -4 35 -10 40 -14 6 -4 40 -4 77
-1 75 7 110 31 144 99 10 20 24 44 30 52 5 8 21 48 33 88 28 86 36 291 14 313
-7 7 -13 26 -13 41 0 27 -42 121 -65 144 -15 15 -93 22 -105 10z"/>
</g>
</svg>
