<?xml version="1.0" standalone="no"?>
<!DOCTYPE svg PUBLIC "-//W3C//DTD SVG 20010904//EN"
 "http://www.w3.org/TR/2001/REC-SVG-20010904/DTD/svg10.dtd">
<svg version="1.0" xmlns="http://www.w3.org/2000/svg"
 width="81.000000pt" height="83.000000pt" viewBox="0 0 81.000000 83.000000"
 preserveAspectRatio="xMidYMid meet">
<metadata>
Created by potrace 1.16, written by Peter Selinger 2001-2019
</metadata>
<g transform="translate(0.000000,83.000000) scale(0.100000,-0.100000)"
fill="#000000" stroke="none">
<path d="M685 771 c-9 -27 -22 -55 -30 -61 -8 -7 -26 -51 -40 -98 -14 -48 -30
-102 -36 -120 -11 -34 -21 -88 -39 -209 -5 -35 -14 -73 -21 -85 -11 -21 -13
-20 -56 28 -24 27 -71 77 -104 112 -32 34 -59 65 -59 68 0 4 -18 29 -40 56
-22 28 -40 58 -40 68 0 9 -9 25 -20 35 -11 10 -36 50 -55 89 -19 39 -43 81
-54 94 -21 24 -70 30 -72 10 -3 -41 4 -103 12 -106 5 -2 9 -11 9 -21 0 -9 16
-48 35 -85 19 -38 35 -72 35 -77 0 -5 14 -28 30 -51 17 -24 46 -66 65 -94 19
-28 61 -75 92 -105 32 -30 74 -72 93 -94 20 -22 43 -47 52 -55 9 -8 29 -28 44
-43 18 -18 33 -25 43 -20 9 3 34 7 56 7 51 1 53 7 71 171 14 136 40 307 44
290 3 -14 20 51 29 110 7 52 19 78 55 130 41 59 21 105 -45 105 -36 0 -38 -2
-54 -49z"/>
</g>
</svg>
