<?xml version="1.0" standalone="no"?>
<!DOCTYPE svg PUBLIC "-//W3C//DTD SVG 20010904//EN"
 "http://www.w3.org/TR/2001/REC-SVG-20010904/DTD/svg10.dtd">
<svg version="1.0" xmlns="http://www.w3.org/2000/svg"
 width="77.000000pt" height="81.000000pt" viewBox="0 0 77.000000 81.000000"
 preserveAspectRatio="xMidYMid meet">
<metadata>
Created by potrace 1.16, written by Peter Selinger 2001-2019
</metadata>
<g transform="translate(0.000000,81.000000) scale(0.100000,-0.100000)"
fill="#000000" stroke="none">
<path d="M665 803 c-70 -14 -67 -13 -62 -41 3 -15 15 -54 27 -87 19 -53 21
-73 16 -175 -8 -154 -26 -293 -42 -314 -9 -13 -17 -15 -30 -8 -21 12 -67 74
-89 122 -9 19 -21 43 -26 52 -5 10 -9 26 -9 37 0 10 -7 24 -15 31 -8 7 -15 18
-15 25 0 45 -74 155 -104 155 -30 0 -44 -40 -56 -160 -8 -79 -16 -110 -30
-124 -18 -18 -18 -18 -30 5 -13 24 -60 165 -60 181 0 5 -16 43 -36 85 -24 49
-39 71 -44 63 -4 -7 -12 -10 -17 -7 -5 3 -15 2 -23 -3 -12 -7 -12 -19 -1 -77
8 -37 17 -72 21 -78 4 -5 15 -41 25 -80 10 -38 24 -79 32 -90 7 -11 13 -32 13
-47 0 -16 10 -38 21 -49 20 -20 33 -54 46 -121 3 -16 10 -28 15 -28 5 0 6 -4
3 -10 -3 -5 -1 -10 4 -10 6 0 11 5 11 10 0 13 53 13 67 -1 7 -7 14 4 22 38 7
26 16 52 20 58 5 5 11 28 15 50 14 82 25 94 48 51 7 -13 23 -41 35 -62 11 -22
41 -60 66 -84 95 -95 94 -94 144 -91 69 3 67 0 106 141 10 35 18 123 22 241 6
156 4 199 -10 265 -14 63 -49 149 -58 143 -1 -1 -11 -3 -22 -6z"/>
</g>
</svg>
