<?xml version="1.0" standalone="no"?>
<!DOCTYPE svg PUBLIC "-//W3C//DTD SVG 20010904//EN"
 "http://www.w3.org/TR/2001/REC-SVG-20010904/DTD/svg10.dtd">
<svg version="1.0" xmlns="http://www.w3.org/2000/svg"
 width="77.000000pt" height="73.000000pt" viewBox="0 0 77.000000 73.000000"
 preserveAspectRatio="xMidYMid meet">
<metadata>
Created by potrace 1.16, written by Peter Selinger 2001-2019
</metadata>
<g transform="translate(0.000000,73.000000) scale(0.100000,-0.100000)"
fill="#000000" stroke="none">
<path d="M625 668 c-83 -93 -230 -238 -240 -238 -5 0 -21 16 -34 36 -14 20
-44 52 -67 71 -24 19 -46 43 -49 54 -9 27 -66 83 -105 102 -38 20 -43 21 -35
7 3 -5 1 -10 -5 -10 -6 0 -10 -10 -9 -22 2 -13 0 -28 -4 -34 -4 -7 0 -14 7
-17 8 -3 30 -30 50 -59 19 -29 47 -68 63 -86 57 -66 73 -91 73 -113 0 -27 -81
-108 -162 -162 -68 -45 -85 -65 -89 -102 -5 -50 10 -65 60 -58 39 5 55 17 145
105 91 90 128 118 157 118 5 0 65 -57 133 -127 l124 -128 66 3 c43 3 64 7 60
14 -4 6 -6 42 -5 79 1 45 -2 69 -9 69 -6 0 -8 5 -4 11 5 9 -9 10 -51 4 -51 -6
-58 -4 -72 14 -8 12 -20 21 -28 21 -7 0 -15 4 -17 10 -1 5 -24 31 -49 57 -25
26 -48 56 -52 65 -4 13 30 51 134 150 100 95 139 139 139 155 0 13 -4 23 -9
23 -5 0 -13 9 -16 20 -11 36 -49 24 -100 -32z"/>
</g>
</svg>
