<?xml version="1.0" standalone="no"?>
<!DOCTYPE svg PUBLIC "-//W3C//DTD SVG 20010904//EN"
 "http://www.w3.org/TR/2001/REC-SVG-20010904/DTD/svg10.dtd">
<svg version="1.0" xmlns="http://www.w3.org/2000/svg"
 width="71.000000pt" height="87.000000pt" viewBox="0 0 71.000000 87.000000"
 preserveAspectRatio="xMidYMid meet">
<metadata>
Created by potrace 1.16, written by Peter Selinger 2001-2019
</metadata>
<g transform="translate(0.000000,87.000000) scale(0.100000,-0.100000)"
fill="#000000" stroke="none">
<path d="M651 846 c-7 -9 -17 -14 -21 -11 -17 11 -65 -108 -85 -210 -3 -16 -8
-43 -11 -60 -7 -36 -41 -85 -58 -85 -7 0 -21 -9 -31 -20 -23 -25 -47 -25 -70
0 -10 11 -24 20 -31 20 -18 0 -131 118 -154 160 -11 19 -41 59 -68 89 -42 47
-52 53 -75 47 -23 -5 -27 -12 -27 -41 0 -19 5 -35 10 -35 6 0 10 -9 10 -19 0
-11 16 -40 35 -65 19 -26 35 -48 35 -51 0 -5 40 -60 96 -132 32 -43 139 -114
181 -120 23 -4 33 -11 33 -23 0 -10 3 -26 6 -34 5 -12 2 -15 -12 -9 -13 5 -16
3 -11 -10 4 -10 -3 -32 -14 -52 -11 -19 -18 -39 -14 -45 4 -6 0 -21 -8 -34
-17 -26 -28 -79 -18 -92 3 -5 26 -10 49 -11 54 -2 87 25 88 74 1 18 15 61 32
95 16 35 35 86 42 113 7 28 16 55 20 60 7 10 28 99 66 285 9 47 23 97 31 112
16 34 16 66 -1 96 -11 21 -14 22 -25 8z"/>
</g>
</svg>
