<?xml version="1.0" standalone="no"?>
<!DOCTYPE svg PUBLIC "-//W3C//DTD SVG 20010904//EN"
 "http://www.w3.org/TR/2001/REC-SVG-20010904/DTD/svg10.dtd">
<svg version="1.0" xmlns="http://www.w3.org/2000/svg"
 width="139.000000pt" height="94.000000pt" viewBox="0 0 139.000000 94.000000"
 preserveAspectRatio="xMidYMid meet">
<metadata>
Created by potrace 1.16, written by Peter Selinger 2001-2019
</metadata>
<g transform="translate(0.000000,94.000000) scale(0.100000,-0.100000)"
fill="#000000" stroke="none">
<path d="M620 937 c-3 -3 -52 -8 -109 -12 -57 -3 -114 -11 -128 -16 -13 -5
-48 -12 -76 -15 -103 -10 -250 -35 -267 -44 -27 -14 -30 -56 -8 -80 17 -19 27
-20 76 -15 32 4 80 13 107 20 28 8 70 17 95 20 25 3 59 8 75 10 17 3 96 7 178
9 l147 3 0 -41 c0 -42 -30 -117 -61 -152 -18 -19 -28 -20 -171 -18 -143 3
-155 2 -178 -18 -14 -11 -20 -23 -14 -25 6 -2 9 -16 6 -32 -5 -38 26 -59 88
-61 111 -4 170 -12 170 -26 0 -8 -4 -14 -10 -14 -5 0 -10 -7 -10 -15 0 -8 -23
-43 -51 -77 -28 -35 -56 -73 -62 -85 -5 -13 -14 -23 -18 -23 -16 0 -41 -67
-46 -125 -3 -33 -2 -57 2 -53 5 4 14 3 22 -4 7 -6 16 -8 20 -5 3 3 19 -1 35
-9 63 -33 430 -11 608 36 20 5 89 17 154 25 122 16 144 23 177 56 25 25 17 41
-33 69 -31 17 -63 25 -118 28 -68 4 -79 2 -113 -22 -23 -16 -63 -30 -105 -37
-37 -6 -78 -13 -92 -16 -14 -3 -36 -7 -50 -8 -14 -1 -37 -5 -52 -9 -38 -9
-305 -12 -313 -4 -4 4 7 25 24 47 37 47 83 111 145 202 l45 67 113 1 c194 3
257 19 271 71 8 29 -14 36 -132 43 -118 7 -158 24 -146 60 32 101 39 128 42
172 4 44 1 53 -21 75 -18 16 -44 26 -79 31 -28 4 -70 10 -92 14 -22 4 -42 5
-45 2z"/>
</g>
</svg>
